{"glyphs":{"0":{"ha":814,"x_min":49,"x_max":765,"o":"m 765 494 q 677 109 765 231 q 407 -14 589 -14 q 139 114 229 -14 q 49 494 49 242 q 137 882 49 759 q 407 1006 225 1006 q 674 877 584 1006 q 765 494 765 749 m 315 494 q 336 263 315 326 q 407 200 357 200 q 478 265 457 200 q 498 494 498 330 q 477 725 498 659 q 407 791 456 791 q 336 728 357 791 q 315 494 315 664 z "},"1":{"ha":814,"x_min":57,"x_max":639,"o":"m 639 0 l 367 0 l 367 525 q 371 700 367 621 q 309 636 346 669 l 196 543 l 57 714 l 397 991 l 639 991 l 639 0 z "},"2":{"ha":814,"x_min":31,"x_max":761,"o":"m 761 0 l 41 0 l 41 176 l 283 421 q 419 569 387 530 q 464 637 451 609 q 476 697 476 666 q 451 758 476 736 q 380 781 426 781 q 286 754 334 781 q 178 675 238 727 l 31 847 q 159 945 107 916 q 273 990 212 975 q 411 1006 334 1006 q 583 972 507 1006 q 700 875 659 938 q 742 734 742 812 q 727 627 742 676 q 682 529 713 577 q 601 429 652 481 q 386 228 551 376 l 386 221 l 761 221 l 761 0 z "},"3":{"ha":814,"x_min":47,"x_max":757,"o":"m 728 777 q 671 618 728 684 q 509 522 615 552 l 509 518 q 757 283 757 487 q 647 66 757 145 q 343 -14 538 -14 q 195 -2 263 -14 q 47 40 127 9 l 47 262 q 180 213 113 229 q 304 197 248 197 q 433 222 393 197 q 473 300 473 247 q 452 362 473 340 q 385 396 431 385 q 262 407 338 407 l 201 407 l 201 608 l 264 608 q 468 713 468 608 q 438 771 468 752 q 357 790 408 790 q 160 726 262 790 l 49 905 q 210 983 127 960 q 399 1006 292 1006 q 640 945 553 1006 q 728 777 728 884 z "},"4":{"ha":814,"x_min":24,"x_max":793,"o":"m 793 192 l 684 192 l 684 0 l 419 0 l 419 192 l 24 192 l 24 389 l 436 991 l 684 991 l 684 392 l 793 392 l 793 192 m 419 392 l 419 507 q 421 595 419 540 q 425 653 424 650 l 418 653 q 366 555 395 601 l 256 392 l 419 392 z "},"5":{"ha":814,"x_min":64,"x_max":750,"o":"m 450 650 q 605 610 536 650 q 712 498 673 570 q 750 330 750 425 q 650 75 750 164 q 347 -14 550 -14 q 64 40 174 -14 l 64 260 q 197 215 123 233 q 325 197 271 197 q 439 229 399 197 q 479 322 479 260 q 439 411 479 379 q 315 443 398 443 q 179 419 252 443 l 81 468 l 118 991 l 684 991 l 684 768 l 346 768 l 334 637 q 409 649 387 648 q 450 650 431 650 z "},"6":{"ha":814,"x_min":47,"x_max":771,"o":"m 47 419 q 107 755 47 627 q 282 945 166 884 q 567 1006 397 1006 q 708 994 627 1006 l 708 785 q 561 798 640 798 q 361 739 427 798 q 289 546 295 680 l 297 546 q 493 661 358 661 q 698 576 625 661 q 771 339 771 491 q 679 81 771 176 q 421 -14 587 -14 q 146 100 245 -14 q 47 419 47 214 m 415 199 q 485 231 458 199 q 511 334 511 263 q 418 454 511 454 q 343 423 372 454 q 314 347 314 392 q 342 240 314 282 q 415 199 370 199 z "},"7":{"ha":814,"x_min":53,"x_max":768,"o":"m 142 0 l 482 768 l 53 768 l 53 990 l 768 990 l 768 832 l 419 0 l 142 0 z "},"8":{"ha":814,"x_min":46,"x_max":770,"o":"m 410 1006 q 653 943 566 1006 q 741 764 741 880 q 700 626 741 685 q 570 522 659 566 q 725 398 680 460 q 770 264 770 336 q 674 59 770 132 q 407 -14 578 -14 q 139 57 232 -14 q 46 261 46 128 q 87 408 46 347 q 227 518 129 469 q 112 632 148 571 q 75 765 75 692 q 164 942 75 879 q 410 1006 253 1006 m 292 272 q 321 204 292 230 q 404 179 351 179 q 524 267 524 179 q 497 332 524 300 q 404 404 471 364 q 318 340 344 372 q 292 272 292 308 m 408 812 q 350 792 374 812 q 326 741 326 772 q 406 637 326 682 q 471 688 454 665 q 489 741 489 711 q 465 793 489 773 q 408 812 441 812 z "},"9":{"ha":814,"x_min":36,"x_max":768,"o":"m 768 538 q 643 117 768 247 q 241 -14 517 -14 q 103 -7 151 -14 l 103 205 q 220 195 161 195 q 441 254 363 195 q 526 441 519 313 l 518 441 q 466 371 492 393 q 403 338 440 349 q 310 326 366 326 q 109 412 181 326 q 36 650 36 498 q 130 908 36 814 q 387 1002 224 1002 q 669 881 569 1002 q 768 538 768 760 m 395 787 q 323 755 351 787 q 296 653 296 724 q 319 565 296 597 q 392 532 343 532 q 469 564 436 532 q 501 640 501 595 q 471 744 501 701 q 395 787 441 787 z "}," ":{"ha":361,"x_min":0,"x_max":0,"o":""},"!":{"ha":403,"x_min":56,"x_max":349,"o":"m 314 350 l 90 350 l 56 991 l 349 991 l 314 350 m 58 113 q 95 209 58 174 q 201 243 132 243 q 306 209 271 243 q 342 113 342 174 q 305 17 342 52 q 201 -17 268 -17 q 96 17 134 -17 q 58 113 58 52 z "},"\"":{"ha":728,"x_min":82,"x_max":646,"o":"m 323 991 l 296 633 l 110 633 l 82 991 l 323 991 m 646 991 l 618 633 l 432 633 l 404 991 l 646 991 z "},"#":{"ha":920,"x_min":25,"x_max":895,"o":"m 707 551 l 686 437 l 851 437 l 851 265 l 654 265 l 604 0 l 422 0 l 472 265 l 358 265 l 310 0 l 129 0 l 178 265 l 25 265 l 25 437 l 211 437 l 232 551 l 71 551 l 71 728 l 265 728 l 314 991 l 496 991 l 446 728 l 558 728 l 607 991 l 789 991 l 739 728 l 895 728 l 895 551 l 707 551 m 392 437 l 504 437 l 525 551 l 412 551 l 392 437 z "},"$":{"ha":814,"x_min":54,"x_max":765,"o":"m 342 46 q 56 113 193 53 l 56 338 q 227 271 134 298 q 389 244 319 244 q 473 258 446 244 q 500 304 500 272 q 480 342 500 327 q 416 378 461 358 q 294 425 371 397 q 155 497 208 457 q 78 586 102 536 q 54 708 54 635 q 126 883 54 820 q 342 961 198 946 l 342 1054 l 482 1054 l 482 962 q 754 896 617 955 l 673 703 q 418 766 532 766 q 341 753 363 766 q 319 714 319 740 q 335 677 319 692 q 391 645 351 663 q 500 603 430 627 q 703 489 642 553 q 765 323 765 425 q 693 138 765 210 q 482 50 621 67 l 482 -81 l 342 -81 l 342 46 m 416 991 z "},"%":{"ha":1317,"x_min":25,"x_max":1291,"o":"m 229 693 q 242 581 229 615 q 281 546 255 546 q 319 580 307 546 q 332 693 332 614 q 319 806 332 771 q 281 840 307 840 q 242 805 254 840 q 229 693 229 770 m 536 696 q 469 465 536 547 q 278 383 402 383 q 93 468 161 383 q 25 696 25 552 q 92 925 25 845 q 278 1006 158 1006 q 467 922 397 1006 q 536 696 536 839 m 1031 991 l 481 0 l 279 0 l 829 991 l 1031 991 m 983 298 q 996 186 983 220 q 1035 151 1009 151 q 1075 191 1064 151 q 1086 298 1086 231 q 1075 406 1086 366 q 1035 446 1064 446 q 996 410 1008 446 q 983 298 983 375 m 1291 301 q 1223 71 1291 153 q 1032 -11 1156 -11 q 847 74 916 -11 q 779 301 779 158 q 846 531 779 450 q 1032 611 912 611 q 1221 528 1151 611 q 1291 301 1291 444 z "},"&":{"ha":1109,"x_min":49,"x_max":1117,"o":"m 774 0 l 707 69 q 607 16 646 31 q 519 -6 568 1 q 408 -14 471 -14 q 219 23 301 -14 q 93 125 136 60 q 49 275 49 191 q 233 547 49 453 q 168 648 191 595 q 144 768 144 701 q 228 941 144 877 q 458 1004 312 1004 q 681 941 602 1004 q 761 768 761 878 q 718 629 761 693 q 582 509 675 565 l 717 380 q 787 557 768 458 l 1063 557 q 999 369 1042 463 q 900 208 955 275 l 1117 0 l 774 0 m 322 294 q 353 224 322 252 q 433 197 383 197 q 501 208 472 197 q 546 231 530 218 l 378 401 q 322 294 322 360 m 522 768 q 503 816 522 802 q 454 831 484 831 q 405 814 426 831 q 383 760 383 797 q 443 654 383 709 q 502 706 481 676 q 522 768 522 736 z "},"'":{"ha":406,"x_min":82,"x_max":323,"o":"m 323 991 l 296 633 l 110 633 l 82 991 l 323 991 z "},"(":{"ha":498,"x_min":50,"x_max":461,"o":"m 50 395 q 98 749 50 591 q 240 1019 146 907 l 461 1019 q 330 740 376 901 q 283 396 283 579 q 328 60 283 219 q 460 -220 373 -99 l 240 -220 q 99 43 147 -113 q 50 395 50 199 m 334 1007 z "},")":{"ha":498,"x_min":37,"x_max":449,"o":"m 449 395 q 400 46 449 203 q 258 -220 352 -111 l 39 -220 q 170 57 124 -103 q 215 396 215 218 q 170 736 215 576 q 37 1019 125 897 l 258 1019 q 401 747 353 907 q 449 395 449 587 m 168 1007 z "},"*":{"ha":746,"x_min":31,"x_max":717,"o":"m 476 1055 l 450 817 l 692 885 l 717 685 l 504 671 l 644 482 l 468 389 l 371 581 l 288 390 l 103 482 l 243 671 l 31 688 l 61 885 l 297 817 l 271 1055 l 476 1055 z "},"+":{"ha":786,"x_min":49,"x_max":736,"o":"m 301 399 l 49 399 l 49 581 l 301 581 l 301 829 l 484 829 l 484 581 l 736 581 l 736 399 l 484 399 l 484 154 l 301 154 l 301 399 z "},",":{"ha":429,"x_min":39,"x_max":347,"o":"m 338 203 l 347 187 q 228 -193 281 -71 l 39 -193 q 78 17 58 -100 q 106 203 98 133 l 338 203 z "},"-":{"ha":441,"x_min":29,"x_max":412,"o":"m 29 267 l 29 478 l 412 478 l 412 267 l 29 267 z "},".":{"ha":401,"x_min":58,"x_max":342,"o":"m 58 113 q 95 209 58 175 q 203 243 132 243 q 306 209 270 243 q 342 113 342 175 q 305 17 342 52 q 203 -17 268 -17 q 97 17 136 -17 q 58 113 58 51 z "},"/":{"ha":614,"x_min":7,"x_max":611,"o":"m 611 1006 l 241 -14 l 7 -14 l 376 1006 l 611 1006 z "},":":{"ha":401,"x_min":58,"x_max":342,"o":"m 58 113 q 95 209 58 175 q 203 243 132 243 q 306 209 270 243 q 342 113 342 175 q 305 17 342 52 q 203 -17 268 -17 q 97 17 136 -17 q 58 113 58 51 m 58 648 q 96 744 58 710 q 203 778 133 778 q 306 744 270 778 q 342 648 342 710 q 305 553 342 587 q 203 518 269 518 q 96 553 134 518 q 58 648 58 587 z "},";":{"ha":412,"x_min":39,"x_max":347,"o":"m 338 203 l 347 187 q 228 -193 281 -71 l 39 -193 q 78 17 58 -100 q 106 203 98 133 l 338 203 m 62 648 q 99 744 62 710 q 205 778 135 778 q 310 744 273 778 q 346 648 346 709 q 309 553 346 587 q 205 518 273 518 q 99 552 136 518 q 62 648 62 587 z "},"<":{"ha":786,"x_min":49,"x_max":734,"o":"m 734 121 l 49 425 l 49 542 l 734 885 l 734 684 l 314 492 l 734 321 l 734 121 z "},"=":{"ha":786,"x_min":49,"x_max":737,"o":"m 49 553 l 49 734 l 737 734 l 737 553 l 49 553 m 49 243 l 49 427 l 737 427 l 737 243 l 49 243 z "},">":{"ha":786,"x_min":49,"x_max":734,"o":"m 49 321 l 469 492 l 49 684 l 49 885 l 734 542 l 734 425 l 49 121 l 49 321 z "},"?":{"ha":701,"x_min":0,"x_max":676,"o":"m 200 350 l 200 408 q 227 520 200 475 q 323 610 254 566 q 402 672 378 644 q 427 736 427 700 q 401 781 427 764 q 334 798 375 798 q 94 725 231 798 l 0 909 q 353 1006 169 1006 q 590 939 504 1006 q 676 758 676 873 q 638 616 676 676 q 515 503 600 556 q 426 435 444 456 q 408 385 408 414 l 408 350 l 200 350 m 171 113 q 207 209 171 175 q 314 243 243 243 q 418 209 382 243 q 454 113 454 174 q 417 17 454 51 q 314 -17 379 -17 q 209 17 247 -17 q 171 113 171 50 z "},"@":{"ha":1246,"x_min":56,"x_max":1190,"o":"m 1190 513 q 1157 334 1190 417 q 1066 205 1124 252 q 933 158 1008 158 q 836 179 880 158 q 768 239 793 201 l 758 239 q 582 158 686 158 q 391 231 458 158 q 325 433 325 303 q 367 603 325 529 q 488 716 409 676 q 672 755 568 755 q 793 744 727 755 q 914 714 859 733 l 900 428 l 899 364 q 932 306 899 306 q 989 365 967 306 q 1011 514 1011 424 q 920 764 1011 676 q 660 852 828 852 q 436 799 531 852 q 290 645 340 745 q 240 411 240 545 q 337 144 240 238 q 610 50 433 50 q 780 67 688 50 q 958 115 871 84 l 958 -40 q 619 -104 806 -104 q 206 33 356 -104 q 56 414 56 170 q 133 721 56 585 q 348 931 211 857 q 657 1004 484 1004 q 938 944 816 1004 q 1125 772 1059 884 q 1190 513 1190 661 m 515 435 q 540 336 515 367 q 606 306 565 306 q 682 348 658 306 q 714 497 707 390 l 721 603 q 675 607 694 607 q 558 562 602 607 q 515 435 515 516 z "},"A":{"ha":1008,"x_min":0,"x_max":1008,"o":"m 715 0 l 667 186 l 345 186 l 294 0 l 0 0 l 323 996 l 681 996 l 1008 0 l 715 0 m 611 406 l 568 568 q 532 709 553 623 q 504 832 511 795 q 480 718 498 798 q 400 406 462 639 l 611 406 z "},"B":{"ha":936,"x_min":107,"x_max":871,"o":"m 107 991 l 453 991 q 753 931 655 991 q 851 745 851 871 q 808 602 851 661 q 696 526 766 543 l 696 519 q 829 438 788 495 q 871 290 871 381 q 769 78 871 155 q 493 0 668 0 l 107 0 l 107 991 m 375 611 l 456 611 q 545 635 513 611 q 576 705 576 659 q 450 789 576 789 l 375 789 l 375 611 m 375 415 l 375 207 l 469 207 q 595 313 595 207 q 561 389 595 362 q 464 415 528 415 l 375 415 z "},"C":{"ha":901,"x_min":71,"x_max":859,"o":"m 549 786 q 399 708 453 786 q 346 492 346 629 q 564 205 346 205 q 691 224 629 205 q 815 268 753 242 l 815 41 q 534 -14 691 -14 q 190 117 310 -14 q 71 493 71 247 q 129 764 71 647 q 295 943 186 880 q 551 1006 404 1006 q 859 936 712 1006 l 777 725 q 667 768 722 751 q 549 786 612 786 z "},"D":{"ha":1019,"x_min":107,"x_max":949,"o":"m 949 517 q 812 134 949 269 q 428 0 675 0 l 107 0 l 107 991 l 450 991 q 819 869 689 991 q 949 517 949 747 m 671 507 q 617 709 671 644 q 453 775 563 775 l 375 775 l 375 220 l 435 220 q 614 291 557 220 q 671 507 671 361 z "},"E":{"ha":762,"x_min":107,"x_max":696,"o":"m 696 0 l 107 0 l 107 991 l 696 991 l 696 777 l 375 777 l 375 621 l 672 621 l 672 406 l 375 406 l 375 218 l 696 218 l 696 0 z "},"F":{"ha":749,"x_min":107,"x_max":693,"o":"m 371 0 l 107 0 l 107 991 l 693 991 l 693 777 l 371 777 l 371 587 l 668 587 l 668 372 l 371 372 l 371 0 z "},"G":{"ha":1028,"x_min":71,"x_max":933,"o":"m 505 581 l 933 581 l 933 46 q 550 -14 759 -14 q 196 119 321 -14 q 71 498 71 252 q 208 872 71 739 q 591 1006 345 1006 q 768 988 685 1006 q 913 943 851 970 l 828 733 q 593 786 721 786 q 411 710 475 786 q 347 492 347 633 q 405 280 347 353 q 572 207 463 207 q 682 218 632 207 l 682 374 l 505 374 l 505 581 z "},"H":{"ha":1064,"x_min":107,"x_max":957,"o":"m 957 0 l 688 0 l 688 404 l 376 404 l 376 0 l 107 0 l 107 991 l 376 991 l 376 624 l 688 624 l 688 991 l 957 991 l 957 0 z "},"J":{"ha":489,"x_min":-110,"x_max":382,"o":"m 29 -311 q -110 -297 -44 -311 l -110 -89 q -64 -98 -88 -93 q -11 -103 -39 -103 q 84 -63 56 -103 q 113 74 113 -23 l 113 991 l 382 991 l 382 97 q 294 -208 382 -104 q 29 -311 205 -311 z "},"K":{"ha":954,"x_min":107,"x_max":960,"o":"m 954 0 l 652 0 l 456 379 l 376 332 l 376 0 l 107 0 l 107 991 l 376 991 l 376 561 q 458 688 397 601 l 667 991 l 960 991 l 647 547 l 954 0 z "},"L":{"ha":808,"x_min":107,"x_max":757,"o":"m 107 0 l 107 991 l 375 991 l 375 216 l 757 216 l 757 0 l 107 0 z "},"M":{"ha":1343,"x_min":107,"x_max":1236,"o":"m 539 0 l 336 714 l 330 714 q 345 431 345 532 l 345 0 l 107 0 l 107 991 l 464 991 l 671 288 l 676 288 l 879 991 l 1236 991 l 1236 0 l 990 0 l 990 435 q 991 510 990 469 q 1000 713 992 551 l 994 713 l 794 0 l 539 0 z "},"N":{"ha":1158,"x_min":107,"x_max":1051,"o":"m 1051 0 l 700 0 l 338 699 l 332 699 q 345 447 345 534 l 345 0 l 107 0 l 107 991 l 457 991 l 818 302 l 822 302 q 812 543 812 452 l 812 991 l 1051 991 l 1051 0 z "},"O":{"ha":1107,"x_min":71,"x_max":1035,"o":"m 1035 497 q 912 117 1035 247 q 553 -14 789 -14 q 195 117 319 -14 q 71 498 71 248 q 194 877 71 746 q 554 1007 318 1007 q 913 878 791 1007 q 1035 497 1035 748 m 353 497 q 553 210 353 210 q 704 279 654 210 q 753 497 753 349 q 703 716 753 646 q 554 787 653 787 q 353 497 353 787 z "},"P":{"ha":878,"x_min":107,"x_max":827,"o":"m 827 676 q 729 419 827 510 q 450 329 631 329 l 375 329 l 375 0 l 107 0 l 107 991 l 450 991 q 732 909 638 991 q 827 676 827 827 m 375 547 l 424 547 q 520 581 484 547 q 555 675 555 615 q 444 775 555 775 l 375 775 l 375 547 z "},"Q":{"ha":1107,"x_min":71,"x_max":1063,"o":"m 1035 497 q 821 43 1035 160 l 1063 -236 l 729 -236 l 554 -16 l 553 -15 l 553 -14 l 553 -14 q 195 117 319 -14 q 71 498 71 248 q 194 877 71 746 q 554 1007 318 1007 q 913 878 791 1007 q 1035 497 1035 748 m 353 497 q 553 210 353 210 q 704 279 654 210 q 753 497 753 349 q 703 716 753 646 q 554 787 653 787 q 353 497 353 787 z "},"R":{"ha":940,"x_min":107,"x_max":957,"o":"m 375 361 l 375 0 l 107 0 l 107 991 l 432 991 q 836 699 836 991 q 668 432 836 526 l 957 0 l 653 0 l 443 361 l 375 361 m 375 562 l 425 562 q 566 686 566 562 q 428 789 566 789 l 375 789 l 375 562 z "},"S":{"ha":802,"x_min":61,"x_max":755,"o":"m 755 301 q 709 137 755 209 q 574 26 662 66 q 367 -14 486 -14 q 201 0 268 -14 q 61 49 134 14 l 61 288 q 220 226 138 248 q 372 204 303 204 q 460 225 432 204 q 488 278 488 245 q 476 314 488 298 q 440 345 465 329 q 309 408 416 360 q 163 494 212 452 q 91 589 115 535 q 68 715 68 642 q 168 929 68 852 q 441 1006 267 1006 q 755 935 595 1006 l 673 728 q 433 791 534 791 q 357 773 381 791 q 334 728 334 755 q 364 675 334 699 q 528 591 394 652 q 706 468 656 534 q 755 301 755 401 z "},"T":{"ha":821,"x_min":35,"x_max":786,"o":"m 545 0 l 277 0 l 277 772 l 35 772 l 35 991 l 786 991 l 786 772 l 545 772 l 545 0 z "},"U":{"ha":1051,"x_min":102,"x_max":950,"o":"m 950 991 l 950 395 q 840 93 950 200 q 522 -14 730 -14 q 211 90 319 -14 q 102 389 102 194 l 102 991 l 371 991 l 371 410 q 410 257 371 304 q 526 210 450 210 q 645 257 608 210 q 682 411 682 304 l 682 991 l 950 991 z "},"V":{"ha":964,"x_min":0,"x_max":964,"o":"m 664 991 l 964 991 l 639 0 l 323 0 l 0 991 l 301 991 l 436 489 q 482 256 478 321 q 501 374 487 303 q 526 486 515 446 l 664 991 z "},"W":{"ha":1443,"x_min":21,"x_max":1422,"o":"m 1178 0 l 861 0 l 766 432 q 745 540 760 459 q 724 675 730 621 q 706 565 718 631 q 682 445 694 500 q 583 0 670 390 l 267 0 l 21 991 l 279 991 l 387 494 q 437 232 424 330 q 469 420 446 301 q 511 616 492 538 l 599 991 l 847 991 l 932 616 q 976 408 954 526 q 1006 232 998 290 q 1054 493 1015 307 l 1164 991 l 1422 991 l 1178 0 z "},"X":{"ha":1004,"x_min":3,"x_max":1000,"o":"m 1000 0 l 690 0 l 497 310 l 306 0 l 3 0 l 332 507 l 22 991 l 319 991 l 498 685 l 671 991 l 977 991 l 663 486 l 1000 0 z "},"Y":{"ha":922,"x_min":0,"x_max":922,"o":"m 461 624 l 632 991 l 922 991 l 596 387 l 596 0 l 326 0 l 326 379 l 0 991 l 292 991 l 461 624 z "},"Z":{"ha":848,"x_min":41,"x_max":814,"o":"m 814 0 l 41 0 l 41 165 l 471 775 l 52 775 l 52 991 l 803 991 l 803 827 l 374 216 l 814 216 l 814 0 z "},"[":{"ha":450,"x_min":79,"x_max":418,"o":"m 418 -233 l 79 -233 l 79 1019 l 418 1019 l 418 847 l 294 847 l 294 -61 l 418 -61 l 418 -233 m 241 1007 z "},"\\":{"ha":614,"x_min":4,"x_max":608,"o":"m 239 1006 l 608 -14 l 374 -14 l 4 1006 l 239 1006 z "},"]":{"ha":450,"x_min":32,"x_max":371,"o":"m 32 -61 l 155 -61 l 155 847 l 32 847 l 32 1019 l 371 1019 l 371 -233 l 32 -233 l 32 -61 m 215 1007 z "},"^":{"ha":729,"x_min":-11,"x_max":747,"o":"m -11 340 l 288 996 l 403 996 l 747 340 l 547 340 l 351 732 l 267 534 l 183 340 l -11 340 z "},"_":{"ha":694,"x_min":-3,"x_max":697,"o":"m 697 -257 l -3 -257 l -3 -90 l 697 -90 l 697 -257 z "},"`":{"ha":831,"x_min":179,"x_max":648,"o":"m 472 842 q 334 936 425 871 q 179 1050 243 1000 l 179 1064 l 471 1064 q 608 906 506 1017 l 648 861 l 648 842 l 472 842 z "},"a":{"ha":865,"x_min":50,"x_max":777,"o":"m 593 0 l 542 102 l 536 102 q 427 11 483 35 q 283 -14 372 -14 q 113 52 175 -14 q 50 235 50 117 q 136 417 50 357 q 383 485 221 477 l 511 489 l 511 500 q 418 595 511 595 q 204 538 334 595 l 127 713 q 467 782 262 782 q 695 709 614 782 q 777 504 777 635 l 777 0 l 593 0 m 396 174 q 478 204 444 174 q 513 283 513 235 l 513 343 l 452 340 q 321 244 321 336 q 396 174 321 174 z "},"b":{"ha":893,"x_min":92,"x_max":833,"o":"m 561 782 q 760 677 686 782 q 833 386 833 572 q 759 93 833 199 q 553 -14 685 -14 q 477 -4 510 -14 q 417 21 444 5 q 357 75 391 37 l 340 75 l 298 0 l 92 0 l 92 1055 l 357 1055 l 357 817 q 347 669 357 774 l 357 669 q 446 755 395 729 q 561 782 496 782 m 464 574 q 382 535 408 574 q 357 414 357 496 l 357 376 q 382 241 357 282 q 467 200 408 200 q 538 248 513 200 q 564 389 564 296 q 464 574 564 574 z "},"c":{"ha":749,"x_min":58,"x_max":714,"o":"m 441 -14 q 156 88 253 -14 q 58 380 58 190 q 163 677 58 572 q 463 782 269 782 q 714 724 596 782 l 636 528 q 547 561 588 549 q 463 574 507 574 q 363 524 398 574 q 328 382 328 473 q 464 197 328 197 q 688 265 581 197 l 688 54 q 441 -14 585 -14 z "},"d":{"ha":893,"x_min":58,"x_max":802,"o":"m 330 -14 q 187 33 248 -14 q 92 171 125 80 q 58 383 58 262 q 134 676 58 570 q 340 782 209 782 q 453 756 405 782 q 542 669 502 730 l 547 669 q 534 850 534 760 l 534 1055 l 802 1055 l 802 0 l 602 0 l 545 97 l 534 97 q 330 -14 466 -14 m 439 196 q 529 236 503 196 q 557 359 555 276 l 557 380 q 528 525 557 482 q 436 568 498 568 q 355 519 384 568 q 326 379 326 470 q 355 243 326 290 q 439 196 385 196 z "},"e":{"ha":859,"x_min":58,"x_max":800,"o":"m 463 -14 q 164 89 271 -14 q 58 379 58 191 q 157 678 58 574 q 437 782 255 782 q 706 691 611 782 q 800 431 800 601 l 800 313 l 326 313 q 373 212 329 248 q 494 175 418 175 q 623 188 564 175 q 750 233 682 201 l 750 43 q 621 -1 688 11 q 463 -14 555 -14 m 447 602 q 369 572 400 602 q 332 479 337 543 l 559 479 q 528 568 558 535 q 447 602 498 602 z "},"f":{"ha":574,"x_min":31,"x_max":608,"o":"m 561 570 l 397 570 l 397 0 l 132 0 l 132 570 l 31 570 l 31 700 l 138 765 l 138 778 q 200 996 138 930 q 399 1063 262 1063 q 499 1055 452 1063 q 608 1026 546 1046 l 551 854 q 456 868 503 868 q 411 849 425 868 q 397 789 397 831 l 397 768 l 561 768 l 561 570 z "},"g":{"ha":842,"x_min":14,"x_max":817,"o":"m 817 768 l 817 640 l 711 602 q 733 510 733 562 q 646 317 733 386 q 386 249 559 249 q 318 254 343 249 q 309 221 309 237 q 340 191 309 201 q 424 180 372 180 l 551 180 q 810 -37 810 180 q 690 -256 810 -178 q 354 -334 570 -334 q 102 -279 191 -334 q 14 -122 14 -224 q 184 56 14 16 q 123 104 149 71 q 97 170 97 137 q 117 233 97 205 q 199 298 136 260 q 105 381 139 325 q 71 518 71 437 q 156 713 71 644 q 400 782 241 782 q 473 777 421 782 q 549 768 524 772 l 817 768 m 237 -96 q 273 -148 237 -128 q 367 -168 308 -168 q 521 -144 463 -168 q 579 -82 579 -120 q 544 -39 579 -52 q 443 -26 509 -26 l 339 -26 q 267 -46 296 -26 q 237 -96 237 -66 m 321 517 q 403 399 321 399 q 461 428 441 399 q 482 515 482 457 q 403 635 482 635 q 321 517 321 635 z "},"h":{"ha":930,"x_min":92,"x_max":842,"o":"m 575 0 l 575 419 q 484 574 575 574 q 388 519 418 574 q 357 338 357 465 l 357 0 l 92 0 l 92 1055 l 357 1055 l 357 905 q 346 673 357 804 l 358 673 q 448 758 396 733 q 570 782 500 782 q 770 708 699 782 q 842 500 842 633 l 842 0 l 575 0 z "},"i":{"ha":452,"x_min":86,"x_max":368,"o":"m 358 0 l 93 0 l 93 768 l 358 768 l 358 0 m 86 960 q 119 1048 86 1019 q 227 1078 153 1078 q 334 1048 300 1078 q 368 960 368 1018 q 227 843 368 843 q 86 960 86 843 z "},"j":{"ha":450,"x_min":-71,"x_max":367,"o":"m 72 -334 q -3 -329 39 -334 q -71 -317 -45 -323 l -71 -110 q 11 -122 -27 -122 q 92 -7 92 -122 l 92 768 l 357 768 l 357 -62 q 282 -261 357 -189 q 72 -334 208 -334 m 85 960 q 118 1048 85 1019 q 225 1078 151 1078 q 333 1048 299 1078 q 367 960 367 1018 q 225 843 367 843 q 85 960 85 843 z "},"k":{"ha":916,"x_min":92,"x_max":916,"o":"m 349 432 q 431 551 397 509 l 603 768 l 899 768 l 632 441 l 916 0 l 612 0 l 444 275 l 358 210 l 358 0 l 92 0 l 92 1055 l 358 1055 l 358 640 q 343 432 358 534 l 349 432 z "},"l":{"ha":449,"x_min":92,"x_max":357,"o":"m 357 0 l 92 0 l 92 1055 l 357 1055 l 357 0 z "},"m":{"ha":1389,"x_min":92,"x_max":1300,"o":"m 1035 0 l 1035 418 q 1014 535 1035 496 q 946 574 992 574 q 857 522 885 574 q 828 358 828 469 l 828 0 l 562 0 l 562 418 q 542 535 562 496 q 476 574 522 574 q 385 518 414 574 q 357 336 357 463 l 357 0 l 92 0 l 92 768 l 292 768 l 325 673 l 340 673 q 429 754 371 726 q 561 782 487 782 q 794 681 727 782 l 815 681 q 906 755 848 728 q 1034 782 964 782 q 1235 712 1170 782 q 1300 500 1300 642 l 1300 0 l 1035 0 z "},"n":{"ha":930,"x_min":92,"x_max":842,"o":"m 576 0 l 576 419 q 554 535 576 496 q 484 574 532 574 q 387 520 416 574 q 357 336 357 467 l 357 0 l 92 0 l 92 768 l 292 768 l 325 673 l 340 673 q 434 755 374 728 q 572 782 494 782 q 771 708 700 782 q 842 500 842 634 l 842 0 l 576 0 z "},"o":{"ha":885,"x_min":58,"x_max":825,"o":"m 825 386 q 724 92 825 197 q 440 -14 623 -14 q 162 94 265 -14 q 58 386 58 202 q 160 678 58 574 q 444 782 261 782 q 644 734 557 782 q 778 596 731 686 q 825 386 825 506 m 328 386 q 354 235 328 287 q 443 183 380 183 q 530 235 505 183 q 555 386 555 287 q 530 534 555 484 q 441 585 504 585 q 354 535 380 585 q 328 386 328 485 z "},"p":{"ha":893,"x_min":92,"x_max":833,"o":"m 553 -14 q 448 6 494 -14 q 357 75 402 25 l 345 75 q 357 -25 357 -5 l 357 -334 l 92 -334 l 92 768 l 307 768 l 345 671 l 357 671 q 561 782 431 782 q 761 676 688 782 q 833 386 833 570 q 758 93 833 200 q 553 -14 682 -14 m 464 574 q 382 532 406 574 q 357 408 359 490 l 357 387 q 383 244 357 288 q 467 200 410 200 q 541 244 517 200 q 564 389 564 288 q 541 531 564 488 q 464 574 517 574 z "},"q":{"ha":893,"x_min":58,"x_max":802,"o":"m 334 -14 q 132 92 205 -14 q 58 383 58 198 q 133 676 58 570 q 338 782 208 782 q 547 673 477 782 l 553 673 l 572 768 l 802 768 l 802 -334 l 536 -334 l 536 -16 q 545 97 536 7 l 536 97 q 334 -14 471 -14 m 441 192 q 529 229 502 192 q 557 355 557 267 l 557 387 q 529 533 557 489 q 437 576 501 576 q 328 379 328 576 q 355 235 328 279 q 441 192 383 192 z "},"r":{"ha":652,"x_min":92,"x_max":636,"o":"m 555 782 q 621 777 590 782 l 636 774 l 612 524 q 522 532 580 532 q 396 492 435 532 q 357 378 357 452 l 357 0 l 92 0 l 92 768 l 289 768 l 330 646 l 343 646 q 436 744 376 707 q 555 782 495 782 z "},"s":{"ha":741,"x_min":81,"x_max":685,"o":"m 685 236 q 601 50 685 113 q 359 -14 517 -14 q 211 -4 274 -14 q 82 29 148 5 l 82 241 q 217 197 144 214 q 349 179 291 179 q 435 218 435 179 q 411 255 435 239 q 271 317 387 271 q 123 415 165 360 q 81 555 81 471 q 163 722 81 663 q 397 782 246 782 q 540 765 473 782 q 679 717 607 749 l 607 546 q 495 586 554 570 q 399 603 436 603 q 334 571 334 603 q 356 537 334 551 q 488 481 379 524 q 608 416 568 448 q 666 341 648 384 q 685 236 685 298 z "},"t":{"ha":639,"x_min":36,"x_max":596,"o":"m 468 196 q 596 222 522 196 l 596 29 q 494 -4 543 6 q 380 -14 446 -14 q 188 52 247 -14 q 129 253 129 117 l 129 570 l 36 570 l 36 677 l 154 761 l 222 922 l 396 922 l 396 768 l 585 768 l 585 570 l 396 570 l 396 271 q 468 196 396 196 z "},"u":{"ha":930,"x_min":90,"x_max":839,"o":"m 639 0 l 606 96 l 590 96 q 497 15 557 43 q 358 -14 438 -14 q 161 60 231 -14 q 90 268 90 134 l 90 768 l 355 768 l 355 349 q 377 235 355 273 q 447 196 398 196 q 545 250 515 196 q 574 432 574 304 l 574 768 l 839 768 l 839 0 l 639 0 z "},"v":{"ha":848,"x_min":0,"x_max":848,"o":"m 293 0 l 0 768 l 277 768 l 407 314 q 410 302 408 311 q 414 283 412 294 q 417 259 416 272 q 419 236 419 247 l 424 236 q 436 313 424 271 l 572 768 l 848 768 l 555 0 l 293 0 z "},"w":{"ha":1264,"x_min":17,"x_max":1247,"o":"m 753 0 l 666 366 l 646 477 l 632 566 l 628 566 q 583 326 595 376 l 505 0 l 227 0 l 17 768 l 278 768 l 340 473 q 375 221 370 321 l 379 221 q 416 458 381 283 l 488 768 l 781 768 l 846 454 q 885 221 877 304 l 889 221 q 903 350 893 273 q 924 473 912 427 l 991 768 l 1247 768 l 1036 0 l 753 0 z "},"x":{"ha":875,"x_min":7,"x_max":868,"o":"m 254 392 l 20 768 l 321 768 l 437 553 l 557 768 l 859 768 l 618 392 l 868 0 l 567 0 l 437 233 l 309 0 l 7 0 l 254 392 z "},"y":{"ha":847,"x_min":-1,"x_max":847,"o":"m -1 768 l 278 768 l 408 328 q 421 244 418 293 l 427 244 q 443 326 432 291 l 576 768 l 847 768 l 543 -49 q 400 -269 485 -205 q 178 -334 315 -334 q 69 -322 125 -334 l 69 -114 q 151 -122 105 -122 q 213 -109 186 -122 q 259 -70 239 -95 q 301 11 279 -45 l -1 768 z "},"z":{"ha":704,"x_min":33,"x_max":669,"o":"m 669 0 l 33 0 l 33 151 l 351 566 l 52 566 l 52 768 l 654 768 l 654 604 l 350 203 l 669 203 l 669 0 z "},"{":{"ha":602,"x_min":41,"x_max":557,"o":"m 41 488 q 164 518 119 488 q 208 603 208 548 l 208 775 q 241 916 208 869 q 350 984 275 963 q 557 1006 425 1006 l 557 817 q 475 807 496 814 q 441 785 454 800 q 428 745 428 770 l 428 561 q 390 443 428 484 q 265 390 351 402 l 265 382 q 390 328 352 368 q 428 215 428 288 l 428 28 q 442 -14 428 1 q 480 -36 456 -28 q 557 -45 504 -43 l 557 -233 q 349 -212 423 -233 q 241 -143 274 -190 q 208 0 208 -96 l 208 168 q 163 253 208 222 q 41 283 117 283 l 41 488 z "},"|":{"ha":707,"x_min":262,"x_max":444,"o":"m 262 1055 l 444 1055 l 444 -302 l 262 -302 l 262 1055 z "},"}":{"ha":602,"x_min":45,"x_max":559,"o":"m 559 283 q 439 253 484 283 q 393 168 393 222 l 393 0 q 360 -142 393 -95 q 252 -212 327 -190 q 45 -233 178 -233 l 45 -45 q 146 -25 118 -42 q 174 28 174 -7 l 174 215 q 212 328 174 288 q 336 382 250 368 l 336 390 q 212 443 250 402 q 174 561 174 484 l 174 745 q 160 786 174 771 q 126 807 147 800 q 45 817 106 814 l 45 1006 q 252 984 178 1006 q 360 916 327 963 q 393 775 393 869 l 393 603 q 437 518 393 548 q 559 488 481 488 l 559 283 z "},"~":{"ha":786,"x_min":49,"x_max":736,"o":"m 207 439 q 49 357 132 439 l 49 547 q 228 621 119 621 q 316 611 275 621 q 418 578 357 602 q 579 541 507 541 q 655 562 613 541 q 736 623 698 584 l 736 432 q 557 358 665 358 q 466 368 509 358 q 367 401 424 378 q 207 439 278 439 z "}," ":{"ha":361,"x_min":0,"x_max":0,"o":""},"¡":{"ha":403,"x_min":56,"x_max":349,"o":"m 90 415 l 314 415 l 349 -227 l 56 -227 l 90 415 m 346 653 q 310 557 346 591 q 203 522 273 522 q 98 556 134 522 q 62 653 62 591 q 99 748 62 714 q 203 782 136 782 q 309 748 271 782 q 346 653 346 713 z "},"¢":{"ha":814,"x_min":87,"x_max":743,"o":"m 383 1006 l 524 1006 l 524 901 q 743 844 640 895 l 665 648 q 576 682 617 669 q 492 694 536 694 q 392 644 427 694 q 357 503 357 594 q 493 318 357 318 q 717 386 610 318 l 717 175 q 524 109 631 119 l 524 -14 l 383 -14 l 383 113 q 163 232 239 134 q 87 501 87 330 q 164 765 87 664 q 383 893 241 865 l 383 1006 z "},"£":{"ha":814,"x_min":69,"x_max":790,"o":"m 490 1007 q 765 951 633 1007 l 690 755 q 519 793 590 793 q 461 770 480 793 q 443 700 443 748 l 443 628 l 676 628 l 676 440 l 443 440 l 443 375 q 335 221 443 273 l 790 221 l 790 0 l 71 0 l 71 212 q 145 264 125 244 q 173 310 164 284 q 182 374 182 336 l 182 440 l 69 440 l 69 628 l 182 628 l 182 708 q 261 930 182 854 q 490 1007 340 1007 z "},"¤":{"ha":786,"x_min":65,"x_max":714,"o":"m 122 490 q 150 610 122 551 l 65 690 l 187 814 l 271 730 q 387 758 328 758 q 507 728 449 758 l 589 814 l 714 696 l 628 611 q 656 490 656 559 q 628 371 656 427 l 710 290 l 589 170 l 507 250 q 387 224 447 224 q 268 249 319 224 l 187 171 l 66 292 l 150 372 q 122 490 122 428 m 296 490 q 323 426 296 452 q 387 399 351 399 q 455 425 427 399 q 484 490 484 451 q 455 556 484 530 q 387 583 427 583 q 322 556 349 583 q 296 490 296 528 z "},"¥":{"ha":814,"x_min":5,"x_max":808,"o":"m 407 650 l 538 991 l 808 991 l 562 509 l 694 509 l 694 366 l 530 366 l 530 286 l 694 286 l 694 144 l 530 144 l 530 0 l 283 0 l 283 144 l 117 144 l 117 286 l 283 286 l 283 366 l 117 366 l 117 509 l 245 509 l 5 991 l 277 991 l 407 650 z "},"¦":{"ha":707,"x_min":262,"x_max":444,"o":"m 262 1055 l 444 1055 l 444 486 l 262 486 l 262 1055 m 262 267 l 444 267 l 444 -302 l 262 -302 l 262 267 z "},"§":{"ha":694,"x_min":72,"x_max":629,"o":"m 72 545 q 101 629 72 588 q 183 703 130 671 q 87 869 87 772 q 163 1016 87 962 q 363 1069 238 1069 q 614 1011 492 1069 l 547 861 q 448 904 498 888 q 361 920 398 920 q 288 869 288 920 q 318 816 288 840 q 406 768 349 791 q 577 665 524 720 q 629 545 629 610 q 608 451 629 492 q 529 370 586 410 q 614 204 614 306 q 535 43 614 103 q 318 -17 456 -17 q 79 41 180 -17 l 79 207 q 203 155 133 177 q 319 134 273 134 q 414 199 414 134 q 393 248 414 227 q 298 301 372 269 q 159 377 203 344 q 94 450 115 410 q 72 545 72 490 m 269 566 q 299 504 269 531 q 404 437 329 477 q 432 510 432 469 q 404 578 432 549 q 309 635 375 607 q 269 566 269 613 z "},"¨":{"ha":836,"x_min":151,"x_max":710,"o":"m 151 958 q 182 1037 151 1009 q 267 1065 214 1065 q 352 1037 320 1065 q 383 958 383 1008 q 352 881 383 910 q 267 852 320 852 q 182 880 214 852 q 151 958 151 908 m 476 958 q 507 1037 476 1009 q 593 1065 538 1065 q 679 1036 647 1065 q 710 958 710 1007 q 679 881 710 910 q 593 852 647 852 q 507 881 538 852 q 476 958 476 909 z "},"©":{"ha":1145,"x_min":62,"x_max":1082,"o":"m 602 659 q 516 617 547 659 q 485 496 485 576 q 514 370 485 409 q 606 332 544 332 q 781 378 699 332 l 781 221 q 596 178 695 178 q 373 262 452 178 q 294 498 294 346 q 371 729 294 646 q 589 812 448 812 q 807 760 701 812 l 745 621 q 602 659 673 659 m 62 496 q 130 750 62 631 q 317 937 198 869 q 572 1006 435 1006 q 823 940 706 1006 q 1011 755 941 874 q 1082 496 1082 637 q 1014 240 1082 357 q 828 55 945 123 q 572 -14 711 -14 q 313 57 432 -14 q 129 244 195 127 q 62 496 62 361 m 174 496 q 228 295 174 389 q 374 150 281 202 q 572 97 466 97 q 772 150 680 97 q 918 296 864 203 q 971 496 971 389 q 919 694 971 602 q 773 841 866 787 q 572 895 681 895 q 373 841 465 895 q 227 695 280 788 q 174 496 174 603 z "},"ª":{"ha":551,"x_min":33,"x_max":497,"o":"m 387 503 l 357 589 q 286 516 324 537 q 192 494 248 494 q 76 537 118 494 q 33 656 33 581 q 85 772 33 734 q 267 815 138 809 l 326 818 l 326 822 q 309 862 326 850 q 257 873 292 873 q 184 863 218 873 q 114 836 150 853 l 62 949 q 185 993 136 983 q 296 1003 234 1003 q 444 952 390 1003 q 497 807 497 901 l 497 503 l 387 503 m 204 664 q 216 630 204 642 q 252 618 229 618 q 306 644 286 618 q 326 710 326 670 l 326 725 l 269 721 q 204 664 204 717 z "},"«":{"ha":946,"x_min":50,"x_max":895,"o":"m 50 399 l 314 726 l 504 625 l 319 390 l 504 154 l 314 54 l 50 380 l 50 399 m 440 399 l 703 726 l 895 625 l 708 390 l 895 154 l 703 54 l 440 380 l 440 399 z "},"¬":{"ha":786,"x_min":49,"x_max":736,"o":"m 736 161 l 553 161 l 553 399 l 49 399 l 49 581 l 736 581 l 736 161 z "},"­":{"ha":441,"x_min":29,"x_max":412,"o":"m 29 267 l 29 478 l 412 478 l 412 267 l 29 267 z "},"®":{"ha":1145,"x_min":62,"x_max":1082,"o":"m 817 623 q 794 523 817 564 q 721 458 772 483 l 852 212 l 656 212 l 557 429 l 533 429 l 533 212 l 343 212 l 343 806 l 541 806 q 817 623 817 806 m 533 549 l 541 549 q 603 563 580 549 q 625 615 625 578 q 607 660 625 647 q 542 673 588 673 l 533 673 l 533 549 m 62 496 q 130 750 62 631 q 317 937 198 869 q 572 1006 435 1006 q 823 940 706 1006 q 1011 755 941 874 q 1082 496 1082 637 q 1014 240 1082 357 q 828 55 945 123 q 572 -14 711 -14 q 313 57 432 -14 q 129 244 195 127 q 62 496 62 361 m 174 496 q 228 295 174 389 q 374 150 281 202 q 572 97 466 97 q 772 150 680 97 q 918 296 864 203 q 971 496 971 389 q 919 694 971 602 q 773 841 866 787 q 572 895 681 895 q 373 841 465 895 q 227 695 280 788 q 174 496 174 603 z "},"¯":{"ha":694,"x_min":-4,"x_max":699,"o":"m 699 1055 l -4 1055 l -4 1222 l 699 1222 l 699 1055 z "},"°":{"ha":586,"x_min":43,"x_max":543,"o":"m 43 755 q 76 879 43 821 q 168 971 109 937 q 293 1006 226 1006 q 418 971 360 1006 q 510 880 477 937 q 543 755 543 822 q 510 633 543 690 q 419 542 477 576 q 293 509 361 509 q 168 542 226 509 q 76 632 109 575 q 43 755 43 689 m 204 755 q 230 695 204 722 q 293 669 256 669 q 356 696 330 669 q 382 755 382 722 q 356 818 382 791 q 293 846 331 846 q 230 818 255 846 q 204 755 204 791 z "},"±":{"ha":786,"x_min":49,"x_max":736,"o":"m 301 464 l 49 464 l 49 646 l 301 646 l 301 895 l 484 895 l 484 646 l 736 646 l 736 464 l 484 464 l 484 220 l 301 220 l 301 464 m 49 0 l 49 182 l 736 182 l 736 0 l 49 0 z "},"²":{"ha":554,"x_min":41,"x_max":509,"o":"m 509 397 l 52 397 l 52 538 l 197 682 q 276 770 254 739 q 298 823 298 800 q 254 863 298 863 q 138 803 199 863 l 41 916 q 155 986 96 965 q 293 1007 214 1007 q 442 964 389 1007 q 494 846 494 922 q 486 787 494 814 q 458 729 477 759 q 408 668 439 700 q 273 550 376 635 l 509 550 l 509 397 z "},"³":{"ha":554,"x_min":43,"x_max":511,"o":"m 492 859 q 467 769 492 806 q 382 710 441 732 l 382 704 q 479 652 448 688 q 511 558 511 617 q 445 431 511 477 q 257 386 378 386 q 47 433 132 386 l 47 591 q 249 536 127 536 q 328 582 328 536 q 306 620 328 610 q 236 631 283 631 l 165 631 l 165 762 l 220 762 q 291 775 268 762 q 314 815 314 787 q 300 847 314 832 q 252 861 286 861 q 188 850 218 861 q 122 811 158 838 l 43 926 q 275 1004 144 1004 q 433 965 374 1004 q 492 859 492 926 z "},"´":{"ha":831,"x_min":179,"x_max":648,"o":"m 179 842 l 179 861 q 312 1006 283 973 q 358 1064 340 1038 l 648 1064 l 648 1050 q 499 939 594 1006 q 355 842 404 872 l 179 842 z "},"µ":{"ha":933,"x_min":92,"x_max":842,"o":"m 357 351 q 379 235 357 273 q 456 196 402 196 q 547 252 519 196 q 575 432 575 309 l 575 768 l 842 768 l 842 0 l 643 0 l 607 103 l 596 103 q 535 15 573 43 q 452 -14 496 -14 q 391 0 414 -14 q 349 43 368 14 q 357 -117 357 -18 l 357 -334 l 92 -334 l 92 768 l 357 768 l 357 351 z "},"¶":{"ha":893,"x_min":69,"x_max":804,"o":"m 804 -176 l 675 -176 l 675 900 l 568 900 l 568 -176 l 439 -176 l 439 379 q 354 367 402 367 q 138 452 208 367 q 69 707 69 536 q 142 968 69 880 q 375 1055 215 1055 l 804 1055 l 804 -176 z "},"·":{"ha":401,"x_min":58,"x_max":342,"o":"m 58 490 q 95 587 58 553 q 203 621 132 621 q 306 587 270 621 q 342 490 342 553 q 305 394 342 429 q 203 359 268 359 q 97 394 135 359 q 58 490 58 429 z "},"¸":{"ha":260,"x_min":-61,"x_max":269,"o":"m 269 -171 q 218 -289 269 -245 q 83 -334 168 -334 q -61 -314 -9 -334 l -61 -175 q 39 -193 -5 -193 q 74 -161 74 -193 q 46 -122 74 -139 q -26 -94 18 -104 l 22 0 l 160 0 l 154 -20 q 244 -82 219 -46 q 269 -171 269 -119 z "},"¹":{"ha":554,"x_min":39,"x_max":418,"o":"m 418 397 l 227 397 l 227 639 q 229 719 227 663 q 233 786 231 775 q 212 757 227 773 q 138 690 197 741 l 39 806 l 269 991 l 418 991 l 418 397 z "},"º":{"ha":545,"x_min":33,"x_max":513,"o":"m 513 749 q 448 563 513 631 q 271 494 383 494 q 98 564 163 494 q 33 749 33 633 q 97 936 33 869 q 273 1003 161 1003 q 446 933 380 1003 q 513 749 513 863 m 204 749 q 220 661 204 690 q 272 632 237 632 q 339 749 339 632 q 272 867 339 867 q 204 749 204 867 z "},"»":{"ha":946,"x_min":52,"x_max":896,"o":"m 896 380 l 633 54 l 440 154 l 627 390 l 440 625 l 633 726 l 896 399 l 896 380 m 505 380 l 243 54 l 52 154 l 236 390 l 52 625 l 243 726 l 505 399 l 505 380 z "},"¼":{"ha":1301,"x_min":-8,"x_max":1219,"o":"m 1219 95 l 1135 95 l 1135 1 l 948 1 l 948 95 l 697 95 l 697 222 l 935 599 l 1135 599 l 1135 231 l 1219 231 l 1219 95 m 948 231 l 948 344 q 953 435 948 391 q 911 345 926 368 l 842 231 l 948 231 m 958 991 l 446 0 l 242 0 l 753 991 l 958 991 m 371 397 l 180 397 l 180 639 q 182 719 180 663 q 186 786 184 775 q 165 757 180 773 q 91 690 150 741 l -8 806 l 222 991 l 371 991 l 371 397 z "},"½":{"ha":1303,"x_min":-8,"x_max":1240,"o":"m 1240 1 l 783 1 l 783 141 l 929 286 q 1008 373 986 342 q 1030 427 1030 404 q 986 466 1030 466 q 869 406 931 466 l 773 519 q 887 589 827 568 q 1025 610 946 610 q 1174 568 1121 610 q 1226 449 1226 525 q 1217 390 1226 418 q 1190 333 1208 362 q 1139 271 1171 303 q 1005 153 1107 239 l 1240 153 l 1240 1 m 974 991 l 463 0 l 258 0 l 769 991 l 974 991 m 371 397 l 180 397 l 180 639 q 182 719 180 663 q 186 786 184 775 q 165 757 180 773 q 91 690 150 741 l -8 806 l 222 991 l 371 991 l 371 397 z "},"¾":{"ha":1303,"x_min":56,"x_max":1268,"o":"m 1268 95 l 1183 95 l 1183 1 l 997 1 l 997 95 l 746 95 l 746 222 l 983 599 l 1183 599 l 1183 231 l 1268 231 l 1268 95 m 997 231 l 997 344 q 1002 435 997 391 q 960 345 975 368 l 890 231 l 997 231 m 505 859 q 480 769 505 806 q 395 710 455 732 l 395 704 q 493 652 461 688 q 525 558 525 617 q 458 431 525 477 q 271 386 392 386 q 61 433 145 386 l 61 591 q 262 536 140 536 q 341 582 341 536 q 319 620 341 610 q 250 631 297 631 l 179 631 l 179 762 l 233 762 q 304 775 281 762 q 328 815 328 787 q 313 847 328 832 q 265 861 299 861 q 201 850 231 861 q 136 811 172 838 l 56 926 q 289 1004 157 1004 q 447 965 388 1004 q 505 859 505 926 m 1031 991 l 519 0 l 315 0 l 826 991 l 1031 991 z "},"¿":{"ha":701,"x_min":25,"x_max":701,"o":"m 501 415 l 501 357 q 474 244 501 290 q 378 155 447 199 q 317 111 339 131 q 285 73 294 90 q 275 29 275 56 q 301 -16 275 1 q 368 -32 326 -32 q 607 40 469 -32 l 701 -144 q 349 -240 536 -240 q 111 -174 197 -240 q 25 7 25 -107 q 62 148 25 88 q 186 262 100 208 q 273 328 254 306 q 293 380 293 351 l 293 415 l 501 415 m 530 653 q 494 556 530 590 q 387 522 458 522 q 283 556 319 522 q 248 653 248 590 q 284 748 248 714 q 387 782 321 782 q 493 748 456 782 q 530 653 530 715 z "},"À":{"ha":1008,"x_min":0,"x_max":1008,"o":"m 715 0 l 667 186 l 345 186 l 294 0 l 0 0 l 323 996 l 681 996 l 1008 0 l 715 0 m 611 406 l 568 568 q 532 709 553 623 q 504 832 511 795 q 480 718 498 798 q 400 406 462 639 l 611 406 m 477 1071 q 339 1165 431 1101 q 184 1279 248 1229 l 184 1293 l 476 1293 q 614 1135 511 1246 l 654 1090 l 654 1071 l 477 1071 z "},"Á":{"ha":1008,"x_min":0,"x_max":1008,"o":"m 715 0 l 667 186 l 345 186 l 294 0 l 0 0 l 323 996 l 681 996 l 1008 0 l 715 0 m 611 406 l 568 568 q 532 709 553 623 q 504 832 511 795 q 480 718 498 798 q 400 406 462 639 l 611 406 m 361 1071 l 361 1090 q 493 1235 465 1202 q 540 1293 522 1267 l 830 1293 l 830 1279 q 681 1168 776 1236 q 537 1071 586 1101 l 361 1071 z "},"Â":{"ha":1008,"x_min":0,"x_max":1008,"o":"m 715 0 l 667 186 l 345 186 l 294 0 l 0 0 l 323 996 l 681 996 l 1008 0 l 715 0 m 611 406 l 568 568 q 532 709 553 623 q 504 832 511 795 q 480 718 498 798 q 400 406 462 639 l 611 406 m 643 1071 q 507 1173 586 1103 q 375 1071 422 1100 l 200 1071 l 200 1090 q 298 1194 247 1135 q 375 1293 349 1254 l 642 1293 q 815 1090 705 1200 l 815 1071 l 643 1071 z "},"Ã":{"ha":1008,"x_min":0,"x_max":1008,"o":"m 715 0 l 667 186 l 345 186 l 294 0 l 0 0 l 323 996 l 681 996 l 1008 0 l 715 0 m 611 406 l 568 568 q 532 709 553 623 q 504 832 511 795 q 480 718 498 798 q 400 406 462 639 l 611 406 m 628 1069 q 567 1080 597 1069 q 506 1102 536 1090 q 448 1124 476 1114 q 395 1135 420 1135 q 346 1068 358 1135 l 224 1068 q 273 1243 231 1187 q 395 1300 314 1300 q 450 1290 420 1300 q 509 1267 479 1280 q 568 1245 538 1255 q 623 1235 597 1235 q 654 1252 642 1235 q 671 1301 665 1269 l 795 1301 q 745 1129 787 1188 q 628 1069 702 1069 z "},"Ä":{"ha":1008,"x_min":0,"x_max":1008,"o":"m 715 0 l 667 186 l 345 186 l 294 0 l 0 0 l 323 996 l 681 996 l 1008 0 l 715 0 m 611 406 l 568 568 q 532 709 553 623 q 504 832 511 795 q 480 718 498 798 q 400 406 462 639 l 611 406 m 239 1187 q 270 1266 239 1238 q 354 1295 301 1295 q 439 1266 408 1295 q 471 1187 471 1237 q 439 1111 471 1139 q 354 1082 408 1082 q 270 1109 301 1082 q 239 1187 239 1137 m 564 1187 q 595 1266 564 1238 q 680 1295 626 1295 q 766 1265 734 1295 q 798 1187 798 1236 q 766 1111 798 1139 q 680 1082 734 1082 q 594 1110 625 1082 q 564 1187 564 1138 z "},"Å":{"ha":1008,"x_min":0,"x_max":1008,"o":"m 715 0 l 667 186 l 345 186 l 294 0 l 0 0 l 323 996 l 681 996 l 1008 0 l 715 0 m 611 406 l 568 568 q 532 709 553 623 q 504 832 511 795 q 480 718 498 798 q 400 406 462 639 l 611 406 m 686 1096 q 634 971 686 1019 q 501 924 583 924 q 371 970 419 924 q 322 1095 322 1017 q 371 1220 322 1173 q 501 1267 419 1267 q 633 1219 581 1267 q 686 1096 686 1172 m 558 1095 q 542 1136 558 1120 q 501 1152 525 1152 q 461 1136 477 1152 q 444 1095 444 1120 q 458 1054 444 1069 q 501 1038 473 1038 q 542 1054 525 1038 q 558 1095 558 1069 z "},"Æ":{"ha":1314,"x_min":-7,"x_max":1247,"o":"m 1247 0 l 657 0 l 657 186 l 361 186 l 293 0 l -7 0 l 419 991 l 1247 991 l 1247 777 l 926 777 l 926 621 l 1223 621 l 1223 406 l 926 406 l 926 218 l 1247 218 l 1247 0 m 443 408 l 657 408 l 657 765 l 582 765 l 443 408 z "},"Ç":{"ha":901,"x_min":71,"x_max":859,"o":"m 549 786 q 399 708 453 786 q 346 492 346 629 q 564 205 346 205 q 691 224 629 205 q 815 268 753 242 l 815 41 q 534 -14 691 -14 q 190 117 310 -14 q 71 493 71 247 q 129 764 71 647 q 295 943 186 880 q 551 1006 404 1006 q 859 936 712 1006 l 777 725 q 667 768 722 751 q 549 786 612 786 m 654 -171 q 603 -289 654 -245 q 468 -334 552 -334 q 323 -314 376 -334 l 323 -175 q 423 -193 380 -193 q 458 -161 458 -193 q 431 -122 458 -139 q 358 -94 403 -104 l 407 0 l 545 0 l 538 -20 q 629 -82 604 -46 q 654 -171 654 -119 z "},"È":{"ha":762,"x_min":104,"x_max":696,"o":"m 696 0 l 107 0 l 107 991 l 696 991 l 696 777 l 375 777 l 375 621 l 672 621 l 672 406 l 375 406 l 375 218 l 696 218 l 696 0 m 397 1071 q 259 1165 351 1101 q 104 1279 168 1229 l 104 1293 l 396 1293 q 534 1135 431 1246 l 574 1090 l 574 1071 l 397 1071 z "},"É":{"ha":762,"x_min":107,"x_max":715,"o":"m 696 0 l 107 0 l 107 991 l 696 991 l 696 777 l 375 777 l 375 621 l 672 621 l 672 406 l 375 406 l 375 218 l 696 218 l 696 0 m 245 1071 l 245 1090 q 378 1235 350 1202 q 425 1293 406 1267 l 715 1293 l 715 1279 q 566 1168 661 1236 q 422 1071 471 1101 l 245 1071 z "},"Ê":{"ha":762,"x_min":102,"x_max":718,"o":"m 696 0 l 107 0 l 107 991 l 696 991 l 696 777 l 375 777 l 375 621 l 672 621 l 672 406 l 375 406 l 375 218 l 696 218 l 696 0 m 545 1071 q 409 1173 488 1103 q 277 1071 324 1100 l 102 1071 l 102 1090 q 200 1194 149 1135 q 277 1293 252 1254 l 544 1293 q 718 1090 608 1200 l 718 1071 l 545 1071 z "},"Ë":{"ha":762,"x_min":107,"x_max":696,"o":"m 696 0 l 107 0 l 107 991 l 696 991 l 696 777 l 375 777 l 375 621 l 672 621 l 672 406 l 375 406 l 375 218 l 696 218 l 696 0 m 127 1187 q 158 1266 127 1238 q 242 1295 189 1295 q 327 1266 296 1295 q 359 1187 359 1237 q 327 1111 359 1139 q 242 1082 296 1082 q 158 1109 189 1082 q 127 1187 127 1137 m 452 1187 q 483 1266 452 1238 q 568 1295 514 1295 q 654 1265 623 1295 q 686 1187 686 1236 q 654 1111 686 1139 q 568 1082 623 1082 q 483 1110 513 1082 q 452 1187 452 1138 z "},"Ð":{"ha":1019,"x_min":21,"x_max":949,"o":"m 949 517 q 812 134 949 269 q 428 0 675 0 l 107 0 l 107 382 l 21 382 l 21 599 l 107 599 l 107 991 l 450 991 q 819 869 689 991 q 949 517 949 747 m 671 507 q 617 709 671 644 q 453 775 563 775 l 375 775 l 375 599 l 518 599 l 518 382 l 375 382 l 375 220 l 435 220 q 614 291 557 220 q 671 507 671 361 z "},"Ñ":{"ha":1158,"x_min":107,"x_max":1051,"o":"m 1051 0 l 700 0 l 338 699 l 332 699 q 345 447 345 534 l 345 0 l 107 0 l 107 991 l 457 991 l 818 302 l 822 302 q 812 543 812 452 l 812 991 l 1051 991 l 1051 0 m 699 1069 q 637 1080 668 1069 q 576 1102 606 1090 q 518 1124 547 1114 q 465 1135 490 1135 q 416 1068 429 1135 l 294 1068 q 343 1243 302 1187 q 465 1300 385 1300 q 520 1290 491 1300 q 579 1267 549 1280 q 638 1245 609 1255 q 693 1235 667 1235 q 724 1252 713 1235 q 742 1301 736 1269 l 865 1301 q 815 1129 858 1188 q 699 1069 772 1069 z "},"Ò":{"ha":1107,"x_min":71,"x_max":1035,"o":"m 1035 497 q 912 117 1035 247 q 553 -14 789 -14 q 195 117 319 -14 q 71 498 71 248 q 194 877 71 746 q 554 1007 318 1007 q 913 878 791 1007 q 1035 497 1035 748 m 353 497 q 553 210 353 210 q 704 279 654 210 q 753 497 753 349 q 703 716 753 646 q 554 787 653 787 q 353 497 353 787 m 562 1071 q 424 1165 515 1101 q 269 1279 333 1229 l 269 1293 l 561 1293 q 699 1135 596 1246 l 739 1090 l 739 1071 l 562 1071 z "},"Ó":{"ha":1107,"x_min":71,"x_max":1035,"o":"m 1035 497 q 912 117 1035 247 q 553 -14 789 -14 q 195 117 319 -14 q 71 498 71 248 q 194 877 71 746 q 554 1007 318 1007 q 913 878 791 1007 q 1035 497 1035 748 m 353 497 q 553 210 353 210 q 704 279 654 210 q 753 497 753 349 q 703 716 753 646 q 554 787 653 787 q 353 497 353 787 m 395 1071 l 395 1090 q 528 1235 500 1202 q 574 1293 556 1267 l 865 1293 l 865 1279 q 715 1168 810 1236 q 572 1071 621 1101 l 395 1071 z "},"Ô":{"ha":1107,"x_min":71,"x_max":1035,"o":"m 1035 497 q 912 117 1035 247 q 553 -14 789 -14 q 195 117 319 -14 q 71 498 71 248 q 194 877 71 746 q 554 1007 318 1007 q 913 878 791 1007 q 1035 497 1035 748 m 353 497 q 553 210 353 210 q 704 279 654 210 q 753 497 753 349 q 703 716 753 646 q 554 787 653 787 q 353 497 353 787 m 689 1071 q 553 1173 632 1103 q 421 1071 468 1100 l 246 1071 l 246 1090 q 344 1194 293 1135 q 421 1293 395 1254 l 688 1293 q 861 1090 751 1200 l 861 1071 l 689 1071 z "},"Õ":{"ha":1107,"x_min":71,"x_max":1035,"o":"m 1035 497 q 912 117 1035 247 q 553 -14 789 -14 q 195 117 319 -14 q 71 498 71 248 q 194 877 71 746 q 554 1007 318 1007 q 913 878 791 1007 q 1035 497 1035 748 m 353 497 q 553 210 353 210 q 704 279 654 210 q 753 497 753 349 q 703 716 753 646 q 554 787 653 787 q 353 497 353 787 m 676 1069 q 615 1080 646 1069 q 554 1102 584 1090 q 496 1124 524 1114 q 443 1135 468 1135 q 394 1068 406 1135 l 272 1068 q 321 1243 279 1187 q 443 1300 362 1300 q 498 1290 469 1300 q 557 1267 527 1280 q 616 1245 587 1255 q 671 1235 645 1235 q 702 1252 690 1235 q 720 1301 713 1269 l 843 1301 q 793 1129 836 1188 q 676 1069 750 1069 z "},"Ö":{"ha":1107,"x_min":71,"x_max":1035,"o":"m 1035 497 q 912 117 1035 247 q 553 -14 789 -14 q 195 117 319 -14 q 71 498 71 248 q 194 877 71 746 q 554 1007 318 1007 q 913 878 791 1007 q 1035 497 1035 748 m 353 497 q 553 210 353 210 q 704 279 654 210 q 753 497 753 349 q 703 716 753 646 q 554 787 653 787 q 353 497 353 787 m 273 1187 q 304 1266 273 1238 q 389 1295 336 1295 q 474 1266 442 1295 q 505 1187 505 1237 q 474 1111 505 1139 q 389 1082 442 1082 q 304 1109 336 1082 q 273 1187 273 1137 m 598 1187 q 629 1266 598 1238 q 715 1295 661 1295 q 801 1265 769 1295 q 832 1187 832 1236 q 801 1111 832 1139 q 715 1082 769 1082 q 629 1110 660 1082 q 598 1187 598 1138 z "},"×":{"ha":786,"x_min":82,"x_max":703,"o":"m 262 490 l 82 672 l 205 800 l 389 619 l 575 800 l 703 676 l 517 490 l 700 306 l 575 180 l 389 364 l 205 182 l 83 309 l 262 490 z "},"Ø":{"ha":1107,"x_min":71,"x_max":1035,"o":"m 1035 497 q 912 117 1035 247 q 553 -14 789 -14 q 345 16 433 -14 l 288 -74 l 157 11 l 214 96 q 71 498 71 227 q 194 877 71 746 q 554 1007 318 1007 q 778 970 684 1007 l 829 1050 l 958 972 l 903 888 q 1035 497 1035 760 m 753 497 q 741 640 753 582 l 473 220 q 553 210 510 210 q 704 279 654 210 q 753 497 753 349 m 353 497 q 372 335 353 392 l 646 768 q 554 787 600 787 q 353 497 353 787 z "},"Ù":{"ha":1051,"x_min":102,"x_max":950,"o":"m 950 991 l 950 395 q 840 93 950 200 q 522 -14 730 -14 q 211 90 319 -14 q 102 389 102 194 l 102 991 l 371 991 l 371 410 q 410 257 371 304 q 526 210 450 210 q 645 257 608 210 q 682 411 682 304 l 682 991 l 950 991 m 483 1071 q 345 1165 436 1101 q 190 1279 254 1229 l 190 1293 l 481 1293 q 619 1135 517 1246 l 659 1090 l 659 1071 l 483 1071 z "},"Ú":{"ha":1051,"x_min":102,"x_max":950,"o":"m 950 991 l 950 395 q 840 93 950 200 q 522 -14 730 -14 q 211 90 319 -14 q 102 389 102 194 l 102 991 l 371 991 l 371 410 q 410 257 371 304 q 526 210 450 210 q 645 257 608 210 q 682 411 682 304 l 682 991 l 950 991 m 380 1071 l 380 1090 q 513 1235 485 1202 q 559 1293 541 1267 l 850 1293 l 850 1279 q 701 1168 795 1236 q 557 1071 606 1101 l 380 1071 z "},"Û":{"ha":1051,"x_min":102,"x_max":950,"o":"m 950 991 l 950 395 q 840 93 950 200 q 522 -14 730 -14 q 211 90 319 -14 q 102 389 102 194 l 102 991 l 371 991 l 371 410 q 410 257 371 304 q 526 210 450 210 q 645 257 608 210 q 682 411 682 304 l 682 991 l 950 991 m 661 1071 q 525 1173 604 1103 q 393 1071 440 1100 l 218 1071 l 218 1090 q 316 1194 265 1135 q 393 1293 368 1254 l 660 1293 q 833 1090 724 1200 l 833 1071 l 661 1071 z "},"Ü":{"ha":1051,"x_min":102,"x_max":950,"o":"m 950 991 l 950 395 q 840 93 950 200 q 522 -14 730 -14 q 211 90 319 -14 q 102 389 102 194 l 102 991 l 371 991 l 371 410 q 410 257 371 304 q 526 210 450 210 q 645 257 608 210 q 682 411 682 304 l 682 991 l 950 991 m 245 1187 q 277 1266 245 1238 q 361 1295 308 1295 q 446 1266 414 1295 q 477 1187 477 1237 q 446 1111 477 1139 q 361 1082 414 1082 q 277 1109 308 1082 q 245 1187 245 1137 m 570 1187 q 602 1266 570 1238 q 687 1295 633 1295 q 773 1265 741 1295 q 804 1187 804 1236 q 773 1111 804 1139 q 687 1082 741 1082 q 601 1110 632 1082 q 570 1187 570 1138 z "},"Ý":{"ha":922,"x_min":0,"x_max":922,"o":"m 461 624 l 632 991 l 922 991 l 596 387 l 596 0 l 326 0 l 326 379 l 0 991 l 292 991 l 461 624 m 319 1071 l 319 1090 q 452 1235 424 1202 q 498 1293 480 1267 l 789 1293 l 789 1279 q 640 1168 734 1236 q 496 1071 545 1101 l 319 1071 z "},"Þ":{"ha":871,"x_min":107,"x_max":827,"o":"m 827 532 q 729 275 827 366 q 450 184 631 184 l 375 184 l 375 0 l 107 0 l 107 991 l 375 991 l 375 847 l 450 847 q 732 765 638 847 q 827 532 827 683 m 375 403 l 424 403 q 520 437 484 403 q 555 530 555 471 q 444 631 555 631 l 375 631 l 375 403 z "},"ß":{"ha":1042,"x_min":92,"x_max":1002,"o":"m 908 807 q 895 737 908 768 q 861 680 881 705 q 817 635 841 654 q 773 600 793 615 q 740 572 753 584 q 726 550 726 559 q 743 520 726 534 q 806 481 760 506 q 961 363 921 416 q 1002 227 1002 311 q 924 47 1002 109 q 694 -14 846 -14 q 544 -5 602 -14 q 443 26 486 3 l 443 224 q 532 186 476 203 q 632 170 588 170 q 699 185 673 170 q 725 228 725 201 q 715 260 725 247 q 681 289 705 273 q 599 335 656 304 q 480 419 513 380 q 447 513 447 458 q 542 661 447 595 q 614 723 593 696 q 636 779 636 749 q 603 837 636 814 q 507 860 569 860 q 357 718 357 860 l 357 0 l 92 0 l 92 746 q 205 977 92 892 q 507 1063 318 1063 q 801 995 694 1063 q 908 807 908 928 z "},"à":{"ha":865,"x_min":50,"x_max":777,"o":"m 593 0 l 542 102 l 536 102 q 427 11 483 35 q 283 -14 372 -14 q 113 52 175 -14 q 50 235 50 117 q 136 417 50 357 q 383 485 221 477 l 511 489 l 511 500 q 418 595 511 595 q 204 538 334 595 l 127 713 q 467 782 262 782 q 695 709 614 782 q 777 504 777 635 l 777 0 l 593 0 m 396 174 q 478 204 444 174 q 513 283 513 235 l 513 343 l 452 340 q 321 244 321 336 q 396 174 321 174 m 431 842 q 293 936 385 871 q 138 1050 202 1000 l 138 1064 l 430 1064 q 568 906 465 1017 l 608 861 l 608 842 l 431 842 z "},"á":{"ha":865,"x_min":50,"x_max":777,"o":"m 593 0 l 542 102 l 536 102 q 427 11 483 35 q 283 -14 372 -14 q 113 52 175 -14 q 50 235 50 117 q 136 417 50 357 q 383 485 221 477 l 511 489 l 511 500 q 418 595 511 595 q 204 538 334 595 l 127 713 q 467 782 262 782 q 695 709 614 782 q 777 504 777 635 l 777 0 l 593 0 m 396 174 q 478 204 444 174 q 513 283 513 235 l 513 343 l 452 340 q 321 244 321 336 q 396 174 321 174 m 294 842 l 294 861 q 427 1006 399 973 q 473 1064 455 1038 l 764 1064 l 764 1050 q 614 939 709 1006 q 471 842 519 872 l 294 842 z "},"â":{"ha":865,"x_min":50,"x_max":777,"o":"m 593 0 l 542 102 l 536 102 q 427 11 483 35 q 283 -14 372 -14 q 113 52 175 -14 q 50 235 50 117 q 136 417 50 357 q 383 485 221 477 l 511 489 l 511 500 q 418 595 511 595 q 204 538 334 595 l 127 713 q 467 782 262 782 q 695 709 614 782 q 777 504 777 635 l 777 0 l 593 0 m 396 174 q 478 204 444 174 q 513 283 513 235 l 513 343 l 452 340 q 321 244 321 336 q 396 174 321 174 m 576 840 q 440 941 519 872 q 309 840 355 869 l 134 840 l 134 859 q 232 963 180 903 q 309 1062 283 1023 l 575 1062 q 749 859 639 969 l 749 840 l 576 840 z "},"ã":{"ha":865,"x_min":50,"x_max":777,"o":"m 593 0 l 542 102 l 536 102 q 427 11 483 35 q 283 -14 372 -14 q 113 52 175 -14 q 50 235 50 117 q 136 417 50 357 q 383 485 221 477 l 511 489 l 511 500 q 418 595 511 595 q 204 538 334 595 l 127 713 q 467 782 262 782 q 695 709 614 782 q 777 504 777 635 l 777 0 l 593 0 m 396 174 q 478 204 444 174 q 513 283 513 235 l 513 343 l 452 340 q 321 244 321 336 q 396 174 321 174 m 570 840 q 508 850 539 840 q 448 873 477 861 q 390 895 418 885 q 336 905 361 905 q 288 839 300 905 l 165 839 q 214 1014 173 958 q 336 1071 256 1071 q 391 1061 362 1071 q 450 1038 420 1050 q 509 1016 480 1026 q 564 1006 538 1006 q 595 1023 584 1006 q 613 1072 607 1040 l 736 1072 q 686 900 729 959 q 570 840 644 840 z "},"ä":{"ha":865,"x_min":50,"x_max":777,"o":"m 593 0 l 542 102 l 536 102 q 427 11 483 35 q 283 -14 372 -14 q 113 52 175 -14 q 50 235 50 117 q 136 417 50 357 q 383 485 221 477 l 511 489 l 511 500 q 418 595 511 595 q 204 538 334 595 l 127 713 q 467 782 262 782 q 695 709 614 782 q 777 504 777 635 l 777 0 l 593 0 m 396 174 q 478 204 444 174 q 513 283 513 235 l 513 343 l 452 340 q 321 244 321 336 q 396 174 321 174 m 182 958 q 213 1037 182 1009 q 297 1065 244 1065 q 382 1037 351 1065 q 414 958 414 1008 q 382 881 414 910 q 297 852 351 852 q 213 880 244 852 q 182 958 182 908 m 507 958 q 538 1037 507 1009 q 623 1065 569 1065 q 709 1036 677 1065 q 741 958 741 1007 q 709 881 741 910 q 623 852 677 852 q 537 881 568 852 q 507 958 507 909 z "},"å":{"ha":865,"x_min":50,"x_max":777,"o":"m 593 0 l 542 102 l 536 102 q 427 11 483 35 q 283 -14 372 -14 q 113 52 175 -14 q 50 235 50 117 q 136 417 50 357 q 383 485 221 477 l 511 489 l 511 500 q 418 595 511 595 q 204 538 334 595 l 127 713 q 467 782 262 782 q 695 709 614 782 q 777 504 777 635 l 777 0 l 593 0 m 396 174 q 478 204 444 174 q 513 283 513 235 l 513 343 l 452 340 q 321 244 321 336 q 396 174 321 174 m 627 1011 q 576 887 627 935 q 443 839 524 839 q 312 885 361 839 q 264 1010 264 932 q 312 1135 264 1088 q 443 1182 361 1182 q 575 1135 523 1182 q 627 1011 627 1087 m 500 1010 q 483 1051 500 1036 q 443 1067 467 1067 q 402 1051 419 1067 q 386 1010 386 1036 q 400 969 386 985 q 443 953 414 953 q 483 969 467 953 q 500 1010 500 985 z "},"æ":{"ha":1299,"x_min":50,"x_max":1240,"o":"m 909 -14 q 618 115 720 -14 q 522 34 564 59 q 428 -3 480 8 q 294 -14 376 -14 q 117 55 184 -14 q 50 239 50 124 q 387 485 50 473 l 511 489 l 511 501 q 419 595 511 595 q 207 541 326 595 l 132 714 q 440 782 261 782 q 668 718 576 782 q 772 767 715 751 q 907 782 828 782 q 1151 689 1062 782 q 1240 429 1240 597 l 1240 313 l 768 313 q 819 213 771 252 q 945 175 866 175 q 1192 233 1076 175 l 1192 43 q 1062 -2 1128 10 q 909 -14 996 -14 m 513 343 l 456 340 q 352 314 384 338 q 321 241 321 291 q 397 174 321 174 q 478 204 444 174 q 513 283 513 235 l 513 343 m 892 602 q 772 479 782 602 l 1003 479 q 970 568 1002 535 q 892 602 939 602 z "},"ç":{"ha":749,"x_min":58,"x_max":714,"o":"m 441 -14 q 156 88 253 -14 q 58 380 58 190 q 163 677 58 572 q 463 782 269 782 q 714 724 596 782 l 636 528 q 547 561 588 549 q 463 574 507 574 q 363 524 398 574 q 328 382 328 473 q 464 197 328 197 q 688 265 581 197 l 688 54 q 441 -14 585 -14 m 575 -171 q 524 -289 575 -245 q 389 -334 473 -334 q 245 -314 297 -334 l 245 -175 q 345 -193 301 -193 q 380 -161 380 -193 q 352 -122 380 -139 q 279 -94 324 -104 l 328 0 l 466 0 l 460 -20 q 550 -82 525 -46 q 575 -171 575 -119 z "},"è":{"ha":859,"x_min":58,"x_max":800,"o":"m 463 -14 q 164 89 271 -14 q 58 379 58 191 q 157 678 58 574 q 437 782 255 782 q 706 691 611 782 q 800 431 800 601 l 800 313 l 326 313 q 373 212 329 248 q 494 175 418 175 q 623 188 564 175 q 750 233 682 201 l 750 43 q 621 -1 688 11 q 463 -14 555 -14 m 447 602 q 369 572 400 602 q 332 479 337 543 l 559 479 q 528 568 558 535 q 447 602 498 602 m 421 842 q 283 936 374 871 q 128 1050 192 1000 l 128 1064 l 420 1064 q 557 906 455 1017 l 597 861 l 597 842 l 421 842 z "},"é":{"ha":859,"x_min":58,"x_max":800,"o":"m 463 -14 q 164 89 271 -14 q 58 379 58 191 q 157 678 58 574 q 437 782 255 782 q 706 691 611 782 q 800 431 800 601 l 800 313 l 326 313 q 373 212 329 248 q 494 175 418 175 q 623 188 564 175 q 750 233 682 201 l 750 43 q 621 -1 688 11 q 463 -14 555 -14 m 447 602 q 369 572 400 602 q 332 479 337 543 l 559 479 q 528 568 558 535 q 447 602 498 602 m 319 842 l 319 861 q 452 1006 424 973 q 498 1064 480 1038 l 789 1064 l 789 1050 q 640 939 734 1006 q 496 842 545 872 l 319 842 z "},"ê":{"ha":859,"x_min":58,"x_max":800,"o":"m 463 -14 q 164 89 271 -14 q 58 379 58 191 q 157 678 58 574 q 437 782 255 782 q 706 691 611 782 q 800 431 800 601 l 800 313 l 326 313 q 373 212 329 248 q 494 175 418 175 q 623 188 564 175 q 750 233 682 201 l 750 43 q 621 -1 688 11 q 463 -14 555 -14 m 447 602 q 369 572 400 602 q 332 479 337 543 l 559 479 q 528 568 558 535 q 447 602 498 602 m 582 842 q 446 943 525 874 q 314 842 361 871 l 139 842 l 139 861 q 237 965 186 905 q 314 1064 288 1025 l 581 1064 q 754 861 644 971 l 754 842 l 582 842 z "},"ë":{"ha":859,"x_min":58,"x_max":800,"o":"m 463 -14 q 164 89 271 -14 q 58 379 58 191 q 157 678 58 574 q 437 782 255 782 q 706 691 611 782 q 800 431 800 601 l 800 313 l 326 313 q 373 212 329 248 q 494 175 418 175 q 623 188 564 175 q 750 233 682 201 l 750 43 q 621 -1 688 11 q 463 -14 555 -14 m 447 602 q 369 572 400 602 q 332 479 337 543 l 559 479 q 528 568 558 535 q 447 602 498 602 m 171 958 q 202 1037 171 1009 q 286 1065 233 1065 q 371 1037 340 1065 q 403 958 403 1008 q 371 881 403 910 q 286 852 340 852 q 202 880 233 852 q 171 958 171 908 m 496 958 q 527 1037 496 1009 q 612 1065 558 1065 q 698 1036 667 1065 q 730 958 730 1007 q 698 881 730 910 q 612 852 667 852 q 527 881 557 852 q 496 958 496 909 z "},"ì":{"ha":452,"x_min":-88,"x_max":381,"o":"m 358 0 l 93 0 l 93 768 l 358 768 l 358 0 m 205 842 q 67 936 158 871 q -88 1050 -24 1000 l -88 1064 l 203 1064 q 341 906 239 1017 l 381 861 l 381 842 l 205 842 z "},"í":{"ha":452,"x_min":73,"x_max":542,"o":"m 358 0 l 93 0 l 93 768 l 358 768 l 358 0 m 73 842 l 73 861 q 205 1006 177 973 q 252 1064 233 1038 l 542 1064 l 542 1050 q 393 939 488 1006 q 249 842 298 872 l 73 842 z "},"î":{"ha":452,"x_min":-81,"x_max":534,"o":"m 358 0 l 93 0 l 93 768 l 358 768 l 358 0 m 361 842 q 225 943 304 874 q 94 842 140 871 l -81 842 l -81 861 q 17 965 -35 905 q 94 1064 68 1025 l 360 1064 q 534 861 424 971 l 534 842 l 361 842 z "},"ï":{"ha":452,"x_min":-41,"x_max":517,"o":"m 358 0 l 93 0 l 93 768 l 358 768 l 358 0 m -41 958 q -10 1037 -41 1009 q 74 1065 21 1065 q 159 1037 127 1065 q 191 958 191 1008 q 159 881 191 910 q 74 852 127 852 q -10 880 21 852 q -41 958 -41 908 m 283 958 q 315 1037 283 1009 q 400 1065 346 1065 q 486 1036 454 1065 q 517 958 517 1007 q 486 881 517 910 q 400 852 454 852 q 314 881 345 852 q 283 958 283 909 z "},"ð":{"ha":890,"x_min":60,"x_max":825,"o":"m 825 393 q 722 97 825 207 q 440 -14 618 -14 q 162 81 264 -14 q 60 338 60 175 q 148 594 60 500 q 385 688 237 688 q 550 631 515 688 l 555 633 q 458 774 510 722 l 335 693 l 256 818 l 353 880 l 252 943 l 325 1067 q 505 975 443 1017 l 647 1068 l 725 945 l 627 879 q 780 657 734 772 q 825 393 825 541 m 554 370 q 524 462 554 427 q 443 497 493 497 q 356 459 380 497 q 332 339 332 421 q 443 175 332 175 q 529 223 505 175 q 554 370 554 271 z "},"ñ":{"ha":930,"x_min":92,"x_max":842,"o":"m 576 0 l 576 419 q 554 535 576 496 q 484 574 532 574 q 387 520 416 574 q 357 336 357 467 l 357 0 l 92 0 l 92 768 l 292 768 l 325 673 l 340 673 q 434 755 374 728 q 572 782 494 782 q 771 708 700 782 q 842 500 842 634 l 842 0 l 576 0 m 590 840 q 529 850 559 840 q 468 873 498 861 q 410 895 438 885 q 357 905 382 905 q 308 839 320 905 l 186 839 q 235 1014 193 958 q 357 1071 276 1071 q 412 1061 382 1071 q 471 1038 441 1050 q 530 1016 500 1026 q 585 1006 559 1006 q 616 1023 604 1006 q 633 1072 627 1040 l 757 1072 q 707 900 749 959 q 590 840 664 840 z "},"ò":{"ha":885,"x_min":58,"x_max":825,"o":"m 825 386 q 724 92 825 197 q 440 -14 623 -14 q 162 94 265 -14 q 58 386 58 202 q 160 678 58 574 q 444 782 261 782 q 644 734 557 782 q 778 596 731 686 q 825 386 825 506 m 328 386 q 354 235 328 287 q 443 183 380 183 q 530 235 505 183 q 555 386 555 287 q 530 534 555 484 q 441 585 504 585 q 354 535 380 585 q 328 386 328 485 m 412 842 q 274 936 365 871 q 119 1050 182 1000 l 119 1064 l 410 1064 q 548 906 446 1017 l 588 861 l 588 842 l 412 842 z "},"ó":{"ha":885,"x_min":58,"x_max":825,"o":"m 825 386 q 724 92 825 197 q 440 -14 623 -14 q 162 94 265 -14 q 58 386 58 202 q 160 678 58 574 q 444 782 261 782 q 644 734 557 782 q 778 596 731 686 q 825 386 825 506 m 328 386 q 354 235 328 287 q 443 183 380 183 q 530 235 505 183 q 555 386 555 287 q 530 534 555 484 q 441 585 504 585 q 354 535 380 585 q 328 386 328 485 m 282 842 l 282 861 q 415 1006 387 973 q 461 1064 443 1038 l 751 1064 l 751 1050 q 602 939 697 1006 q 458 842 507 872 l 282 842 z "},"ô":{"ha":885,"x_min":58,"x_max":825,"o":"m 825 386 q 724 92 825 197 q 440 -14 623 -14 q 162 94 265 -14 q 58 386 58 202 q 160 678 58 574 q 444 782 261 782 q 644 734 557 782 q 778 596 731 686 q 825 386 825 506 m 328 386 q 354 235 328 287 q 443 183 380 183 q 530 235 505 183 q 555 386 555 287 q 530 534 555 484 q 441 585 504 585 q 354 535 380 585 q 328 386 328 485 m 578 842 q 441 943 521 874 q 310 842 357 871 l 135 842 l 135 861 q 233 965 182 905 q 310 1064 284 1025 l 576 1064 q 750 861 640 971 l 750 842 l 578 842 z "},"õ":{"ha":885,"x_min":58,"x_max":825,"o":"m 825 386 q 724 92 825 197 q 440 -14 623 -14 q 162 94 265 -14 q 58 386 58 202 q 160 678 58 574 q 444 782 261 782 q 644 734 557 782 q 778 596 731 686 q 825 386 825 506 m 328 386 q 354 235 328 287 q 443 183 380 183 q 530 235 505 183 q 555 386 555 287 q 530 534 555 484 q 441 585 504 585 q 354 535 380 585 q 328 386 328 485 m 561 840 q 499 850 530 840 q 439 873 469 861 q 381 895 409 885 q 328 905 353 905 q 279 839 291 905 l 157 839 q 205 1014 164 958 q 328 1071 247 1071 q 382 1061 353 1071 q 441 1038 412 1050 q 500 1016 471 1026 q 555 1006 530 1006 q 587 1023 575 1006 q 604 1072 598 1040 l 728 1072 q 677 900 720 959 q 561 840 635 840 z "},"ö":{"ha":885,"x_min":58,"x_max":825,"o":"m 825 386 q 724 92 825 197 q 440 -14 623 -14 q 162 94 265 -14 q 58 386 58 202 q 160 678 58 574 q 444 782 261 782 q 644 734 557 782 q 778 596 731 686 q 825 386 825 506 m 328 386 q 354 235 328 287 q 443 183 380 183 q 530 235 505 183 q 555 386 555 287 q 530 534 555 484 q 441 585 504 585 q 354 535 380 585 q 328 386 328 485 m 162 958 q 193 1037 162 1009 q 277 1065 224 1065 q 362 1037 331 1065 q 394 958 394 1008 q 362 881 394 910 q 277 852 331 852 q 193 880 224 852 q 162 958 162 908 m 487 958 q 518 1037 487 1009 q 604 1065 549 1065 q 689 1036 658 1065 q 721 958 721 1007 q 689 881 721 910 q 604 852 658 852 q 518 881 549 852 q 487 958 487 909 z "},"÷":{"ha":786,"x_min":49,"x_max":736,"o":"m 49 399 l 49 581 l 736 581 l 736 399 l 49 399 m 286 225 q 313 311 286 281 q 392 340 340 340 q 471 311 443 340 q 498 225 498 281 q 469 140 498 171 q 392 110 439 110 q 315 140 344 110 q 286 225 286 170 m 286 754 q 313 840 286 810 q 392 869 340 869 q 471 840 443 869 q 498 754 498 810 q 469 669 498 700 q 392 639 439 639 q 315 669 344 639 q 286 754 286 699 z "},"ø":{"ha":924,"x_min":58,"x_max":864,"o":"m 186 77 q 58 386 58 184 q 165 678 58 574 q 464 782 271 782 q 623 755 549 782 l 671 831 l 785 760 l 739 689 q 864 386 864 582 q 758 91 864 196 q 460 -14 652 -14 q 304 9 375 -14 l 248 -79 l 132 -7 l 186 77 m 313 386 q 321 286 313 319 l 517 590 q 461 599 492 599 q 348 549 384 599 q 313 386 313 498 m 610 386 q 603 475 610 444 l 411 175 q 463 170 429 170 q 575 219 540 170 q 610 386 610 269 z "},"ù":{"ha":930,"x_min":90,"x_max":839,"o":"m 639 0 l 606 96 l 590 96 q 497 15 557 43 q 358 -14 438 -14 q 161 60 231 -14 q 90 268 90 134 l 90 768 l 355 768 l 355 349 q 377 235 355 273 q 447 196 398 196 q 545 250 515 196 q 574 432 574 304 l 574 768 l 839 768 l 839 0 l 639 0 m 412 842 q 274 936 365 871 q 119 1050 182 1000 l 119 1064 l 410 1064 q 548 906 446 1017 l 588 861 l 588 842 l 412 842 z "},"ú":{"ha":930,"x_min":90,"x_max":839,"o":"m 639 0 l 606 96 l 590 96 q 497 15 557 43 q 358 -14 438 -14 q 161 60 231 -14 q 90 268 90 134 l 90 768 l 355 768 l 355 349 q 377 235 355 273 q 447 196 398 196 q 545 250 515 196 q 574 432 574 304 l 574 768 l 839 768 l 839 0 l 639 0 m 319 842 l 319 861 q 452 1006 424 973 q 498 1064 480 1038 l 789 1064 l 789 1050 q 640 939 734 1006 q 496 842 545 872 l 319 842 z "},"û":{"ha":930,"x_min":90,"x_max":839,"o":"m 639 0 l 606 96 l 590 96 q 497 15 557 43 q 358 -14 438 -14 q 161 60 231 -14 q 90 268 90 134 l 90 768 l 355 768 l 355 349 q 377 235 355 273 q 447 196 398 196 q 545 250 515 196 q 574 432 574 304 l 574 768 l 839 768 l 839 0 l 639 0 m 599 842 q 463 943 542 874 q 331 842 378 871 l 156 842 l 156 861 q 254 965 203 905 q 331 1064 305 1025 l 597 1064 q 771 861 661 971 l 771 842 l 599 842 z "},"ü":{"ha":930,"x_min":90,"x_max":839,"o":"m 639 0 l 606 96 l 590 96 q 497 15 557 43 q 358 -14 438 -14 q 161 60 231 -14 q 90 268 90 134 l 90 768 l 355 768 l 355 349 q 377 235 355 273 q 447 196 398 196 q 545 250 515 196 q 574 432 574 304 l 574 768 l 839 768 l 839 0 l 639 0 m 184 958 q 216 1037 184 1009 q 300 1065 247 1065 q 385 1037 353 1065 q 416 958 416 1008 q 385 881 416 910 q 300 852 353 852 q 216 880 247 852 q 184 958 184 908 m 509 958 q 541 1037 509 1009 q 626 1065 572 1065 q 712 1036 680 1065 q 743 958 743 1007 q 712 881 743 910 q 626 852 680 852 q 540 881 571 852 q 509 958 509 909 z "},"ý":{"ha":847,"x_min":-1,"x_max":847,"o":"m -1 768 l 278 768 l 408 328 q 421 244 418 293 l 427 244 q 443 326 432 291 l 576 768 l 847 768 l 543 -49 q 400 -269 485 -205 q 178 -334 315 -334 q 69 -322 125 -334 l 69 -114 q 151 -122 105 -122 q 213 -109 186 -122 q 259 -70 239 -95 q 301 11 279 -45 l -1 768 m 272 842 l 272 861 q 405 1006 376 973 q 451 1064 433 1038 l 741 1064 l 741 1050 q 592 939 687 1006 q 448 842 497 872 l 272 842 z "},"þ":{"ha":893,"x_min":92,"x_max":833,"o":"m 357 669 q 439 752 386 722 q 561 782 493 782 q 760 677 686 782 q 833 386 833 573 q 758 94 833 202 q 551 -14 682 -14 q 357 74 434 -14 l 347 74 l 352 33 l 357 -29 l 357 -334 l 92 -334 l 92 1055 l 357 1055 l 357 822 q 345 669 357 750 l 357 669 m 463 574 q 382 532 405 574 q 357 407 359 490 l 357 387 q 383 244 357 288 q 467 200 410 200 q 542 248 521 200 q 564 389 564 296 q 541 527 564 479 q 463 574 519 574 z "},"ÿ":{"ha":847,"x_min":-1,"x_max":847,"o":"m -1 768 l 278 768 l 408 328 q 421 244 418 293 l 427 244 q 443 326 432 291 l 576 768 l 847 768 l 543 -49 q 400 -269 485 -205 q 178 -334 315 -334 q 69 -322 125 -334 l 69 -114 q 151 -122 105 -122 q 213 -109 186 -122 q 259 -70 239 -95 q 301 11 279 -45 l -1 768 m 146 958 q 178 1037 146 1009 q 262 1065 209 1065 q 347 1037 315 1065 q 378 958 378 1008 q 347 881 378 910 q 262 852 315 852 q 178 880 209 852 q 146 958 146 908 m 471 958 q 503 1037 471 1009 q 588 1065 534 1065 q 674 1036 642 1065 q 705 958 705 1007 q 674 881 705 910 q 588 852 642 852 q 502 881 533 852 q 471 958 471 909 z "},"Ā":{"ha":1008,"x_min":0,"x_max":1008,"o":"m 715 0 l 667 186 l 345 186 l 294 0 l 0 0 l 323 996 l 681 996 l 1008 0 l 715 0 m 611 406 l 568 568 q 532 709 553 623 q 504 832 511 795 q 480 718 498 798 q 400 406 462 639 l 611 406 m 253 1231 l 746 1231 l 746 1071 l 253 1071 l 253 1231 z "},"ā":{"ha":865,"x_min":50,"x_max":777,"o":"m 593 0 l 542 102 l 536 102 q 427 11 483 35 q 283 -14 372 -14 q 113 52 175 -14 q 50 235 50 117 q 136 417 50 357 q 383 485 221 477 l 511 489 l 511 500 q 418 595 511 595 q 204 538 334 595 l 127 713 q 467 782 262 782 q 695 709 614 782 q 777 504 777 635 l 777 0 l 593 0 m 396 174 q 478 204 444 174 q 513 283 513 235 l 513 343 l 452 340 q 321 244 321 336 q 396 174 321 174 m 195 1002 l 688 1002 l 688 842 l 195 842 l 195 1002 z "},"Ă":{"ha":1008,"x_min":0,"x_max":1008,"o":"m 715 0 l 667 186 l 345 186 l 294 0 l 0 0 l 323 996 l 681 996 l 1008 0 l 715 0 m 611 406 l 568 568 q 532 709 553 623 q 504 832 511 795 q 480 718 498 798 q 400 406 462 639 l 611 406 m 779 1322 q 699 1139 772 1206 q 503 1071 626 1071 q 306 1135 376 1071 q 231 1322 237 1200 l 374 1322 q 413 1252 387 1270 q 503 1234 438 1234 q 588 1255 557 1234 q 631 1322 618 1276 l 779 1322 z "},"ă":{"ha":865,"x_min":50,"x_max":777,"o":"m 593 0 l 542 102 l 536 102 q 427 11 483 35 q 283 -14 372 -14 q 113 52 175 -14 q 50 235 50 117 q 136 417 50 357 q 383 485 221 477 l 511 489 l 511 500 q 418 595 511 595 q 204 538 334 595 l 127 713 q 467 782 262 782 q 695 709 614 782 q 777 504 777 635 l 777 0 l 593 0 m 396 174 q 478 204 444 174 q 513 283 513 235 l 513 343 l 452 340 q 321 244 321 336 q 396 174 321 174 m 722 1093 q 642 909 715 977 q 446 842 569 842 q 249 906 319 842 q 174 1093 180 970 l 317 1093 q 356 1022 330 1040 q 446 1004 381 1004 q 531 1026 500 1004 q 574 1093 561 1047 l 722 1093 z "},"Ą":{"ha":1008,"x_min":0,"x_max":1008,"o":"m 715 0 l 667 186 l 345 186 l 294 0 l 0 0 l 323 996 l 681 996 l 1008 0 l 715 0 m 611 406 l 568 568 q 532 709 553 623 q 504 832 511 795 q 480 718 498 798 q 400 406 462 639 l 611 406 m 771 -135 q 824 -180 771 -180 q 904 -165 871 -180 l 904 -315 q 786 -334 848 -334 q 651 -290 703 -334 q 599 -176 599 -246 q 626 -87 599 -130 q 717 0 653 -45 l 861 0 q 789 -79 808 -50 q 771 -135 771 -109 z "},"ą":{"ha":865,"x_min":50,"x_max":781,"o":"m 593 0 l 542 102 l 536 102 q 427 11 483 35 q 283 -14 372 -14 q 113 52 175 -14 q 50 235 50 117 q 136 417 50 357 q 383 485 221 477 l 511 489 l 511 500 q 418 595 511 595 q 204 538 334 595 l 127 713 q 467 782 262 782 q 695 709 614 782 q 777 504 777 635 l 777 0 l 593 0 m 396 174 q 478 204 444 174 q 513 283 513 235 l 513 343 l 452 340 q 321 244 321 336 q 396 174 321 174 m 648 -135 q 701 -180 648 -180 q 781 -165 748 -180 l 781 -315 q 663 -334 724 -334 q 528 -290 580 -334 q 475 -176 475 -246 q 503 -87 475 -130 q 593 0 530 -45 l 738 0 q 666 -79 684 -50 q 648 -135 648 -109 z "},"Ć":{"ha":901,"x_min":71,"x_max":859,"o":"m 549 786 q 399 708 453 786 q 346 492 346 629 q 564 205 346 205 q 691 224 629 205 q 815 268 753 242 l 815 41 q 534 -14 691 -14 q 190 117 310 -14 q 71 493 71 247 q 129 764 71 647 q 295 943 186 880 q 551 1006 404 1006 q 859 936 712 1006 l 777 725 q 667 768 722 751 q 549 786 612 786 m 374 1071 l 374 1090 q 506 1235 478 1202 q 553 1293 534 1267 l 843 1293 l 843 1279 q 694 1168 789 1236 q 550 1071 599 1101 l 374 1071 z "},"ć":{"ha":749,"x_min":58,"x_max":755,"o":"m 441 -14 q 156 88 253 -14 q 58 380 58 190 q 163 677 58 572 q 463 782 269 782 q 714 724 596 782 l 636 528 q 547 561 588 549 q 463 574 507 574 q 363 524 398 574 q 328 382 328 473 q 464 197 328 197 q 688 265 581 197 l 688 54 q 441 -14 585 -14 m 286 842 l 286 861 q 419 1006 391 973 q 465 1064 447 1038 l 755 1064 l 755 1050 q 606 939 701 1006 q 463 842 511 872 l 286 842 z "},"Ĉ":{"ha":901,"x_min":71,"x_max":859,"o":"m 549 786 q 399 708 453 786 q 346 492 346 629 q 564 205 346 205 q 691 224 629 205 q 815 268 753 242 l 815 41 q 534 -14 691 -14 q 190 117 310 -14 q 71 493 71 247 q 129 764 71 647 q 295 943 186 880 q 551 1006 404 1006 q 859 936 712 1006 l 777 725 q 667 768 722 751 q 549 786 612 786 m 669 1071 q 533 1173 612 1103 q 401 1071 448 1100 l 227 1071 l 227 1090 q 325 1194 273 1135 q 401 1293 376 1254 l 668 1293 q 842 1090 732 1200 l 842 1071 l 669 1071 z "},"ĉ":{"ha":749,"x_min":58,"x_max":728,"o":"m 441 -14 q 156 88 253 -14 q 58 380 58 190 q 163 677 58 572 q 463 782 269 782 q 714 724 596 782 l 636 528 q 547 561 588 549 q 463 574 507 574 q 363 524 398 574 q 328 382 328 473 q 464 197 328 197 q 688 265 581 197 l 688 54 q 441 -14 585 -14 m 555 842 q 419 943 498 874 q 288 842 334 871 l 113 842 l 113 861 q 211 965 159 905 q 288 1064 262 1025 l 554 1064 q 728 861 618 971 l 728 842 l 555 842 z "},"Ċ":{"ha":901,"x_min":71,"x_max":859,"o":"m 549 786 q 399 708 453 786 q 346 492 346 629 q 564 205 346 205 q 691 224 629 205 q 815 268 753 242 l 815 41 q 534 -14 691 -14 q 190 117 310 -14 q 71 493 71 247 q 129 764 71 647 q 295 943 186 880 q 551 1006 404 1006 q 859 936 712 1006 l 777 725 q 667 768 722 751 q 549 786 612 786 m 380 1189 q 414 1278 380 1249 q 521 1307 447 1307 q 629 1277 595 1307 q 663 1189 663 1247 q 521 1072 663 1072 q 380 1189 380 1072 z "},"ċ":{"ha":749,"x_min":58,"x_max":714,"o":"m 441 -14 q 156 88 253 -14 q 58 380 58 190 q 163 677 58 572 q 463 782 269 782 q 714 724 596 782 l 636 528 q 547 561 588 549 q 463 574 507 574 q 363 524 398 574 q 328 382 328 473 q 464 197 328 197 q 688 265 581 197 l 688 54 q 441 -14 585 -14 m 294 960 q 328 1048 294 1019 q 435 1078 361 1078 q 543 1048 509 1078 q 576 960 576 1018 q 435 843 576 843 q 294 960 294 843 z "},"Č":{"ha":901,"x_min":71,"x_max":859,"o":"m 549 786 q 399 708 453 786 q 346 492 346 629 q 564 205 346 205 q 691 224 629 205 q 815 268 753 242 l 815 41 q 534 -14 691 -14 q 190 117 310 -14 q 71 493 71 247 q 129 764 71 647 q 295 943 186 880 q 551 1006 404 1006 q 859 936 712 1006 l 777 725 q 667 768 722 751 q 549 786 612 786 m 836 1293 l 836 1274 q 742 1172 791 1229 q 663 1071 692 1115 l 396 1071 q 321 1167 370 1112 q 221 1274 273 1223 l 221 1293 l 396 1293 q 528 1192 443 1264 q 664 1293 607 1261 l 836 1293 z "},"č":{"ha":749,"x_min":58,"x_max":734,"o":"m 441 -14 q 156 88 253 -14 q 58 380 58 190 q 163 677 58 572 q 463 782 269 782 q 714 724 596 782 l 636 528 q 547 561 588 549 q 463 574 507 574 q 363 524 398 574 q 328 382 328 473 q 464 197 328 197 q 688 265 581 197 l 688 54 q 441 -14 585 -14 m 734 1064 l 734 1044 q 640 943 690 1000 q 561 842 591 886 l 294 842 q 219 938 268 882 q 119 1044 171 994 l 119 1064 l 294 1064 q 426 962 341 1035 q 562 1064 505 1031 l 734 1064 z "},"Ď":{"ha":1019,"x_min":107,"x_max":949,"o":"m 949 517 q 812 134 949 269 q 428 0 675 0 l 107 0 l 107 991 l 450 991 q 819 869 689 991 q 949 517 949 747 m 671 507 q 617 709 671 644 q 453 775 563 775 l 375 775 l 375 220 l 435 220 q 614 291 557 220 q 671 507 671 361 m 802 1293 l 802 1274 q 707 1172 757 1229 q 628 1071 658 1115 l 361 1071 q 287 1167 335 1112 q 186 1274 238 1223 l 186 1293 l 361 1293 q 493 1192 408 1264 q 629 1293 572 1261 l 802 1293 z "},"ď":{"ha":893,"x_min":58,"x_max":1138,"o":"m 330 -14 q 187 33 248 -14 q 92 171 125 80 q 58 383 58 262 q 134 676 58 570 q 340 782 209 782 q 453 756 405 782 q 542 669 502 730 l 547 669 q 534 850 534 760 l 534 1055 l 802 1055 l 802 0 l 602 0 l 545 97 l 534 97 q 330 -14 466 -14 m 439 196 q 529 236 503 196 q 557 359 555 276 l 557 380 q 528 525 557 482 q 436 568 498 568 q 355 519 384 568 q 326 379 326 470 q 355 243 326 290 q 439 196 385 196 m 859 852 q 897 1055 888 978 l 1138 1055 l 1138 1040 q 1017 833 1040 871 l 859 833 l 859 852 z "},"Đ":{"ha":1019,"x_min":21,"x_max":949,"o":"m 949 517 q 812 134 949 269 q 428 0 675 0 l 107 0 l 107 382 l 21 382 l 21 599 l 107 599 l 107 991 l 450 991 q 819 869 689 991 q 949 517 949 747 m 671 507 q 617 709 671 644 q 453 775 563 775 l 375 775 l 375 599 l 518 599 l 518 382 l 375 382 l 375 220 l 435 220 q 614 291 557 220 q 671 507 671 361 z "},"đ":{"ha":921,"x_min":58,"x_max":907,"o":"m 319 -14 q 129 84 199 -14 q 58 349 58 182 q 134 618 58 522 q 345 714 209 714 q 550 603 478 714 l 555 603 q 541 685 547 635 q 534 785 534 735 l 534 791 l 378 791 l 378 956 l 534 956 l 534 1055 l 802 1055 l 802 956 l 907 956 l 907 791 l 802 791 l 802 0 l 585 0 l 525 97 l 515 97 q 319 -14 444 -14 m 453 196 q 532 229 510 196 q 557 330 555 262 l 557 347 q 527 460 557 421 q 449 500 498 500 q 351 346 351 500 q 379 236 351 276 q 453 196 407 196 z "},"Ē":{"ha":762,"x_min":107,"x_max":696,"o":"m 696 0 l 107 0 l 107 991 l 696 991 l 696 777 l 375 777 l 375 621 l 672 621 l 672 406 l 375 406 l 375 218 l 696 218 l 696 0 m 154 1231 l 647 1231 l 647 1071 l 154 1071 l 154 1231 z "},"ē":{"ha":859,"x_min":58,"x_max":800,"o":"m 463 -14 q 164 89 271 -14 q 58 379 58 191 q 157 678 58 574 q 437 782 255 782 q 706 691 611 782 q 800 431 800 601 l 800 313 l 326 313 q 373 212 329 248 q 494 175 418 175 q 623 188 564 175 q 750 233 682 201 l 750 43 q 621 -1 688 11 q 463 -14 555 -14 m 447 602 q 369 572 400 602 q 332 479 337 543 l 559 479 q 528 568 558 535 q 447 602 498 602 m 178 1002 l 671 1002 l 671 842 l 178 842 l 178 1002 z "},"Ĕ":{"ha":762,"x_min":107,"x_max":696,"o":"m 696 0 l 107 0 l 107 991 l 696 991 l 696 777 l 375 777 l 375 621 l 672 621 l 672 406 l 375 406 l 375 218 l 696 218 l 696 0 m 663 1322 q 583 1139 656 1206 q 387 1071 510 1071 q 190 1135 260 1071 q 115 1322 121 1200 l 258 1322 q 297 1252 271 1270 q 387 1234 322 1234 q 472 1255 441 1234 q 515 1322 502 1276 l 663 1322 z "},"ĕ":{"ha":859,"x_min":58,"x_max":800,"o":"m 463 -14 q 164 89 271 -14 q 58 379 58 191 q 157 678 58 574 q 437 782 255 782 q 706 691 611 782 q 800 431 800 601 l 800 313 l 326 313 q 373 212 329 248 q 494 175 418 175 q 623 188 564 175 q 750 233 682 201 l 750 43 q 621 -1 688 11 q 463 -14 555 -14 m 447 602 q 369 572 400 602 q 332 479 337 543 l 559 479 q 528 568 558 535 q 447 602 498 602 m 711 1093 q 631 909 705 977 q 435 842 558 842 q 238 906 308 842 q 163 1093 169 970 l 306 1093 q 345 1022 319 1040 q 435 1004 370 1004 q 520 1026 490 1004 q 563 1093 550 1047 l 711 1093 z "},"Ė":{"ha":762,"x_min":107,"x_max":696,"o":"m 696 0 l 107 0 l 107 991 l 696 991 l 696 777 l 375 777 l 375 621 l 672 621 l 672 406 l 375 406 l 375 218 l 696 218 l 696 0 m 262 1169 q 296 1258 262 1229 q 403 1287 329 1287 q 511 1257 477 1287 q 545 1169 545 1227 q 403 1053 545 1053 q 262 1169 262 1053 z "},"ė":{"ha":859,"x_min":58,"x_max":800,"o":"m 463 -14 q 164 89 271 -14 q 58 379 58 191 q 157 678 58 574 q 437 782 255 782 q 706 691 611 782 q 800 431 800 601 l 800 313 l 326 313 q 373 212 329 248 q 494 175 418 175 q 623 188 564 175 q 750 233 682 201 l 750 43 q 621 -1 688 11 q 463 -14 555 -14 m 447 602 q 369 572 400 602 q 332 479 337 543 l 559 479 q 528 568 558 535 q 447 602 498 602 m 309 960 q 342 1048 309 1019 q 449 1078 375 1078 q 557 1048 523 1078 q 591 960 591 1018 q 449 843 591 843 q 309 960 309 843 z "},"Ę":{"ha":762,"x_min":107,"x_max":696,"o":"m 696 0 l 107 0 l 107 991 l 696 991 l 696 777 l 375 777 l 375 621 l 672 621 l 672 406 l 375 406 l 375 218 l 696 218 l 696 0 m 514 -135 q 567 -180 514 -180 q 647 -165 614 -180 l 647 -315 q 529 -334 591 -334 q 394 -290 446 -334 q 342 -176 342 -246 q 369 -87 342 -130 q 460 0 396 -45 l 604 0 q 532 -79 551 -50 q 514 -135 514 -109 z "},"ę":{"ha":859,"x_min":58,"x_max":800,"o":"m 463 -14 q 164 89 271 -14 q 58 379 58 191 q 157 678 58 574 q 437 782 255 782 q 706 691 611 782 q 800 431 800 601 l 800 313 l 326 313 q 373 212 329 248 q 494 175 418 175 q 623 188 564 175 q 750 233 682 201 l 750 43 q 621 -1 688 11 q 463 -14 555 -14 m 447 602 q 369 572 400 602 q 332 479 337 543 l 559 479 q 528 568 558 535 q 447 602 498 602 m 532 -135 q 585 -180 532 -180 q 665 -165 633 -180 l 665 -315 q 547 -334 609 -334 q 412 -290 465 -334 q 360 -176 360 -246 q 387 -87 360 -130 q 478 0 414 -45 l 623 0 q 551 -79 569 -50 q 532 -135 532 -109 z "},"Ě":{"ha":762,"x_min":92,"x_max":707,"o":"m 696 0 l 107 0 l 107 991 l 696 991 l 696 777 l 375 777 l 375 621 l 672 621 l 672 406 l 375 406 l 375 218 l 696 218 l 696 0 m 707 1293 l 707 1274 q 613 1172 663 1229 q 534 1071 564 1115 l 267 1071 q 192 1167 241 1112 q 92 1274 144 1223 l 92 1293 l 267 1293 q 399 1192 314 1264 q 535 1293 478 1261 l 707 1293 z "},"ě":{"ha":859,"x_min":58,"x_max":800,"o":"m 463 -14 q 164 89 271 -14 q 58 379 58 191 q 157 678 58 574 q 437 782 255 782 q 706 691 611 782 q 800 431 800 601 l 800 313 l 326 313 q 373 212 329 248 q 494 175 418 175 q 623 188 564 175 q 750 233 682 201 l 750 43 q 621 -1 688 11 q 463 -14 555 -14 m 447 602 q 369 572 400 602 q 332 479 337 543 l 559 479 q 528 568 558 535 q 447 602 498 602 m 746 1064 l 746 1044 q 652 943 701 1000 q 572 842 602 886 l 306 842 q 231 938 279 882 q 131 1044 182 994 l 131 1064 l 306 1064 q 437 962 353 1035 q 574 1064 517 1031 l 746 1064 z "},"Ĝ":{"ha":1028,"x_min":71,"x_max":933,"o":"m 505 581 l 933 581 l 933 46 q 550 -14 759 -14 q 196 119 321 -14 q 71 498 71 252 q 208 872 71 739 q 591 1006 345 1006 q 768 988 685 1006 q 913 943 851 970 l 828 733 q 593 786 721 786 q 411 710 475 786 q 347 492 347 633 q 405 280 347 353 q 572 207 463 207 q 682 218 632 207 l 682 374 l 505 374 l 505 581 m 660 1071 q 524 1173 603 1103 q 392 1071 439 1100 l 217 1071 l 217 1090 q 315 1194 264 1135 q 392 1293 366 1254 l 659 1293 q 832 1090 722 1200 l 832 1071 l 660 1071 z "},"ĝ":{"ha":842,"x_min":14,"x_max":817,"o":"m 817 768 l 817 640 l 711 602 q 733 510 733 562 q 646 317 733 386 q 386 249 559 249 q 318 254 343 249 q 309 221 309 237 q 340 191 309 201 q 424 180 372 180 l 551 180 q 810 -37 810 180 q 690 -256 810 -178 q 354 -334 570 -334 q 102 -279 191 -334 q 14 -122 14 -224 q 184 56 14 16 q 123 104 149 71 q 97 170 97 137 q 117 233 97 205 q 199 298 136 260 q 105 381 139 325 q 71 518 71 437 q 156 713 71 644 q 400 782 241 782 q 473 777 421 782 q 549 768 524 772 l 817 768 m 237 -96 q 273 -148 237 -128 q 367 -168 308 -168 q 521 -144 463 -168 q 579 -82 579 -120 q 544 -39 579 -52 q 443 -26 509 -26 l 339 -26 q 267 -46 296 -26 q 237 -96 237 -66 m 321 517 q 403 399 321 399 q 461 428 441 399 q 482 515 482 457 q 403 635 482 635 q 321 517 321 635 m 554 842 q 418 943 497 874 q 286 842 333 871 l 111 842 l 111 861 q 209 965 158 905 q 286 1064 260 1025 l 553 1064 q 726 861 616 971 l 726 842 l 554 842 z "},"Ğ":{"ha":1028,"x_min":71,"x_max":933,"o":"m 505 581 l 933 581 l 933 46 q 550 -14 759 -14 q 196 119 321 -14 q 71 498 71 252 q 208 872 71 739 q 591 1006 345 1006 q 768 988 685 1006 q 913 943 851 970 l 828 733 q 593 786 721 786 q 411 710 475 786 q 347 492 347 633 q 405 280 347 353 q 572 207 463 207 q 682 218 632 207 l 682 374 l 505 374 l 505 581 m 798 1322 q 718 1139 791 1206 q 521 1071 644 1071 q 325 1135 394 1071 q 249 1322 255 1200 l 392 1322 q 431 1252 406 1270 q 521 1234 456 1234 q 606 1255 576 1234 q 649 1322 636 1276 l 798 1322 z "},"ğ":{"ha":842,"x_min":14,"x_max":817,"o":"m 817 768 l 817 640 l 711 602 q 733 510 733 562 q 646 317 733 386 q 386 249 559 249 q 318 254 343 249 q 309 221 309 237 q 340 191 309 201 q 424 180 372 180 l 551 180 q 810 -37 810 180 q 690 -256 810 -178 q 354 -334 570 -334 q 102 -279 191 -334 q 14 -122 14 -224 q 184 56 14 16 q 123 104 149 71 q 97 170 97 137 q 117 233 97 205 q 199 298 136 260 q 105 381 139 325 q 71 518 71 437 q 156 713 71 644 q 400 782 241 782 q 473 777 421 782 q 549 768 524 772 l 817 768 m 237 -96 q 273 -148 237 -128 q 367 -168 308 -168 q 521 -144 463 -168 q 579 -82 579 -120 q 544 -39 579 -52 q 443 -26 509 -26 l 339 -26 q 267 -46 296 -26 q 237 -96 237 -66 m 321 517 q 403 399 321 399 q 461 428 441 399 q 482 515 482 457 q 403 635 482 635 q 321 517 321 635 m 699 1093 q 618 909 692 977 q 422 842 545 842 q 225 906 295 842 q 150 1093 156 970 l 293 1093 q 332 1022 307 1040 q 422 1004 357 1004 q 507 1026 477 1004 q 550 1093 537 1047 l 699 1093 z "},"Ġ":{"ha":1028,"x_min":71,"x_max":933,"o":"m 505 581 l 933 581 l 933 46 q 550 -14 759 -14 q 196 119 321 -14 q 71 498 71 252 q 208 872 71 739 q 591 1006 345 1006 q 768 988 685 1006 q 913 943 851 970 l 828 733 q 593 786 721 786 q 411 710 475 786 q 347 492 347 633 q 405 280 347 353 q 572 207 463 207 q 682 218 632 207 l 682 374 l 505 374 l 505 581 m 387 1189 q 420 1278 387 1249 q 528 1307 454 1307 q 635 1277 602 1307 q 669 1189 669 1247 q 528 1072 669 1072 q 387 1189 387 1072 z "},"ġ":{"ha":842,"x_min":14,"x_max":817,"o":"m 817 768 l 817 640 l 711 602 q 733 510 733 562 q 646 317 733 386 q 386 249 559 249 q 318 254 343 249 q 309 221 309 237 q 340 191 309 201 q 424 180 372 180 l 551 180 q 810 -37 810 180 q 690 -256 810 -178 q 354 -334 570 -334 q 102 -279 191 -334 q 14 -122 14 -224 q 184 56 14 16 q 123 104 149 71 q 97 170 97 137 q 117 233 97 205 q 199 298 136 260 q 105 381 139 325 q 71 518 71 437 q 156 713 71 644 q 400 782 241 782 q 473 777 421 782 q 549 768 524 772 l 817 768 m 237 -96 q 273 -148 237 -128 q 367 -168 308 -168 q 521 -144 463 -168 q 579 -82 579 -120 q 544 -39 579 -52 q 443 -26 509 -26 l 339 -26 q 267 -46 296 -26 q 237 -96 237 -66 m 321 517 q 403 399 321 399 q 461 428 441 399 q 482 515 482 457 q 403 635 482 635 q 321 517 321 635 m 272 960 q 305 1048 272 1019 q 412 1078 338 1078 q 520 1048 486 1078 q 554 960 554 1018 q 412 843 554 843 q 272 960 272 843 z "},"Ģ":{"ha":1028,"x_min":71,"x_max":933,"o":"m 505 581 l 933 581 l 933 46 q 550 -14 759 -14 q 196 119 321 -14 q 71 498 71 252 q 208 872 71 739 q 591 1006 345 1006 q 768 988 685 1006 q 913 943 851 970 l 828 733 q 593 786 721 786 q 411 710 475 786 q 347 492 347 633 q 405 280 347 353 q 572 207 463 207 q 682 218 632 207 l 682 374 l 505 374 l 505 581 m 404 -288 q 425 -189 415 -250 q 436 -85 435 -127 l 677 -85 l 677 -100 q 563 -307 629 -212 l 404 -307 l 404 -288 z "},"ģ":{"ha":842,"x_min":14,"x_max":817,"o":"m 817 768 l 817 640 l 711 602 q 733 510 733 562 q 646 317 733 386 q 386 249 559 249 q 318 254 343 249 q 309 221 309 237 q 340 191 309 201 q 424 180 372 180 l 551 180 q 810 -37 810 180 q 690 -256 810 -178 q 354 -334 570 -334 q 102 -279 191 -334 q 14 -122 14 -224 q 184 56 14 16 q 123 104 149 71 q 97 170 97 137 q 117 233 97 205 q 199 298 136 260 q 105 381 139 325 q 71 518 71 437 q 156 713 71 644 q 400 782 241 782 q 473 777 421 782 q 549 768 524 772 l 817 768 m 237 -96 q 273 -148 237 -128 q 367 -168 308 -168 q 521 -144 463 -168 q 579 -82 579 -120 q 544 -39 579 -52 q 443 -26 509 -26 l 339 -26 q 267 -46 296 -26 q 237 -96 237 -66 m 321 517 q 403 399 321 399 q 461 428 441 399 q 482 515 482 457 q 403 635 482 635 q 321 517 321 635 m 557 1044 q 526 842 533 920 l 284 842 l 284 857 l 399 1064 l 557 1064 l 557 1044 z "},"Ĥ":{"ha":1064,"x_min":107,"x_max":957,"o":"m 957 0 l 688 0 l 688 404 l 376 404 l 376 0 l 107 0 l 107 991 l 376 991 l 376 624 l 688 624 l 688 991 l 957 991 l 957 0 m 664 1071 q 528 1173 607 1103 q 396 1071 443 1100 l 221 1071 l 221 1090 q 319 1194 268 1135 q 396 1293 370 1254 l 663 1293 q 836 1090 726 1200 l 836 1071 l 664 1071 z "},"ĥ":{"ha":930,"x_min":92,"x_max":842,"o":"m 575 0 l 575 419 q 484 574 575 574 q 388 519 418 574 q 357 338 357 465 l 357 0 l 92 0 l 92 1055 l 357 1055 l 357 905 q 346 673 357 804 l 358 673 q 448 758 396 733 q 570 782 500 782 q 770 708 699 782 q 842 500 842 633 l 842 0 l 575 0 m 599 1108 q 463 1210 542 1141 q 331 1108 378 1137 l 156 1108 l 156 1128 q 254 1232 203 1172 q 331 1331 305 1291 l 597 1331 q 771 1128 661 1238 l 771 1108 l 599 1108 z "},"Ħ":{"ha":1086,"x_min":0,"x_max":1086,"o":"m 118 882 l 118 991 l 386 991 l 386 882 l 699 882 l 699 991 l 968 991 l 968 882 l 1086 882 l 1086 724 l 968 724 l 968 0 l 699 0 l 699 404 l 386 404 l 386 0 l 118 0 l 118 724 l 0 724 l 0 882 l 118 882 m 699 624 l 699 724 l 386 724 l 386 624 l 699 624 z "},"ħ":{"ha":945,"x_min":0,"x_max":856,"o":"m 106 791 l 0 791 l 0 956 l 106 956 l 106 1055 l 371 1055 l 371 956 l 529 956 l 529 791 l 370 791 l 370 764 q 366 686 370 739 q 359 606 363 634 l 375 606 q 464 689 412 664 q 585 714 515 714 q 784 640 713 714 q 856 433 856 566 l 856 0 l 589 0 l 589 351 q 497 505 589 505 q 401 450 432 505 q 371 268 371 395 l 371 0 l 106 0 l 106 791 z "},"ĩ":{"ha":452,"x_min":-58,"x_max":513,"o":"m 358 0 l 93 0 l 93 768 l 358 768 l 358 0 m 347 840 q 285 850 316 840 q 224 873 254 861 q 166 895 195 885 q 113 905 138 905 q 64 839 77 905 l -58 839 q -9 1014 -50 958 q 113 1071 33 1071 q 168 1061 139 1071 q 227 1038 197 1050 q 286 1016 257 1026 q 341 1006 315 1006 q 372 1023 361 1006 q 390 1072 384 1040 l 513 1072 q 463 900 506 959 q 347 840 420 840 z "},"ī":{"ha":452,"x_min":-18,"x_max":475,"o":"m 358 0 l 93 0 l 93 768 l 358 768 l 358 0 m -18 1002 l 475 1002 l 475 842 l -18 842 l -18 1002 z "},"ĭ":{"ha":452,"x_min":-48,"x_max":500,"o":"m 358 0 l 93 0 l 93 768 l 358 768 l 358 0 m 500 1093 q 420 909 494 977 q 224 842 347 842 q 27 906 97 842 q -48 1093 -42 970 l 95 1093 q 134 1022 109 1040 q 224 1004 159 1004 q 309 1026 279 1004 q 352 1093 339 1047 l 500 1093 z "},"į":{"ha":452,"x_min":64,"x_max":369,"o":"m 358 0 l 93 0 l 93 768 l 358 768 l 358 0 m 86 960 q 119 1048 86 1019 q 227 1078 153 1078 q 334 1048 300 1078 q 368 960 368 1018 q 227 843 368 843 q 86 960 86 843 m 236 -135 q 289 -180 236 -180 q 369 -165 336 -180 l 369 -315 q 251 -334 313 -334 q 116 -290 168 -334 q 64 -176 64 -246 q 91 -87 64 -130 q 182 0 118 -45 l 326 0 q 254 -79 273 -50 q 236 -135 236 -109 z "},"ı":{"ha":452,"x_min":93,"x_max":358,"o":"m 358 0 l 93 0 l 93 768 l 358 768 l 358 0 z "},"ĳ":{"ha":878,"x_min":86,"x_max":795,"o":"m 358 0 l 93 0 l 93 768 l 358 768 l 358 0 m 86 960 q 119 1048 86 1019 q 227 1078 153 1078 q 334 1048 300 1078 q 368 960 368 1018 q 227 843 368 843 q 86 960 86 843 m 500 -334 q 425 -329 467 -334 q 357 -317 382 -323 l 357 -110 q 439 -122 401 -122 q 519 -7 519 -122 l 519 768 l 785 768 l 785 -62 q 710 -261 785 -189 q 500 -334 636 -334 m 513 960 q 546 1048 513 1019 q 653 1078 579 1078 q 761 1048 727 1078 q 795 960 795 1018 q 653 843 795 843 q 513 960 513 843 z "},"Ĵ":{"ha":489,"x_min":-110,"x_max":560,"o":"m 29 -311 q -110 -297 -44 -311 l -110 -89 q -64 -98 -88 -93 q -11 -103 -39 -103 q 84 -63 56 -103 q 113 74 113 -23 l 113 991 l 382 991 l 382 97 q 294 -208 382 -104 q 29 -311 205 -311 m 388 1071 q 252 1173 331 1103 q 120 1071 167 1100 l -55 1071 l -55 1090 q 43 1194 -8 1135 q 120 1293 94 1254 l 387 1293 q 560 1090 450 1200 l 560 1071 l 388 1071 z "},"ĵ":{"ha":450,"x_min":-85,"x_max":530,"o":"m 72 -334 q -3 -329 39 -334 q -71 -317 -45 -323 l -71 -110 q 11 -122 -27 -122 q 92 -7 92 -122 l 92 768 l 357 768 l 357 -62 q 282 -261 357 -189 q 72 -334 208 -334 m 357 842 q 221 943 300 874 q 90 842 136 871 l -85 842 l -85 861 q 13 965 -39 905 q 90 1064 64 1025 l 356 1064 q 530 861 420 971 l 530 842 l 357 842 z "},"Ķ":{"ha":954,"x_min":107,"x_max":960,"o":"m 954 0 l 652 0 l 456 379 l 376 332 l 376 0 l 107 0 l 107 991 l 376 991 l 376 561 q 458 688 397 601 l 667 991 l 960 991 l 647 547 l 954 0 m 332 -288 q 352 -189 342 -250 q 363 -85 362 -127 l 604 -85 l 604 -100 q 490 -307 556 -212 l 332 -307 l 332 -288 z "},"ķ":{"ha":916,"x_min":92,"x_max":916,"o":"m 349 432 q 431 551 397 509 l 603 768 l 899 768 l 632 441 l 916 0 l 612 0 l 444 275 l 358 210 l 358 0 l 92 0 l 92 1055 l 358 1055 l 358 640 q 343 432 358 534 l 349 432 m 329 -288 q 350 -189 340 -250 q 361 -85 359 -127 l 602 -85 l 602 -100 q 488 -307 553 -212 l 329 -307 l 329 -288 z "},"ĸ":{"ha":916,"x_min":92,"x_max":916,"o":"m 628 432 l 916 0 l 616 0 l 446 271 l 358 204 l 358 0 l 92 0 l 92 768 l 358 768 l 358 602 q 351 436 358 522 l 357 436 q 390 486 370 454 q 439 554 410 517 l 606 768 l 903 768 l 628 432 z "},"Ĺ":{"ha":808,"x_min":107,"x_max":757,"o":"m 107 0 l 107 991 l 375 991 l 375 216 l 757 216 l 757 0 l 107 0 m 182 1071 l 182 1090 q 314 1235 286 1202 q 361 1293 342 1267 l 651 1293 l 651 1279 q 502 1168 597 1236 q 358 1071 407 1101 l 182 1071 z "},"ĺ":{"ha":449,"x_min":75,"x_max":545,"o":"m 357 0 l 92 0 l 92 1055 l 357 1055 l 357 0 m 75 1109 l 75 1129 q 208 1274 180 1241 q 254 1332 236 1306 l 545 1332 l 545 1318 q 395 1207 490 1274 q 252 1109 300 1140 l 75 1109 z "},"Ļ":{"ha":808,"x_min":107,"x_max":757,"o":"m 107 0 l 107 991 l 375 991 l 375 216 l 757 216 l 757 0 l 107 0 m 277 -288 q 298 -189 288 -250 q 309 -85 308 -127 l 550 -85 l 550 -100 q 436 -307 502 -212 l 277 -307 l 277 -288 z "},"ļ":{"ha":449,"x_min":77,"x_max":357,"o":"m 357 0 l 92 0 l 92 1055 l 357 1055 l 357 0 m 77 -288 q 97 -189 87 -250 q 109 -85 107 -127 l 349 -85 l 349 -100 q 235 -307 301 -212 l 77 -307 l 77 -288 z "},"Ľ":{"ha":808,"x_min":107,"x_max":774,"o":"m 107 0 l 107 991 l 375 991 l 375 216 l 757 216 l 757 0 l 107 0 m 494 789 q 533 992 524 915 l 774 992 l 774 977 q 652 770 676 808 l 494 770 l 494 789 z "},"ľ":{"ha":449,"x_min":92,"x_max":693,"o":"m 357 0 l 92 0 l 92 1055 l 357 1055 l 357 0 m 414 852 q 452 1055 443 978 l 693 1055 l 693 1040 q 572 833 595 871 l 414 833 l 414 852 z "},"Ŀ":{"ha":808,"x_min":107,"x_max":781,"o":"m 107 0 l 107 991 l 375 991 l 375 216 l 757 216 l 757 0 l 107 0 m 498 517 q 532 606 498 577 q 639 635 565 635 q 747 606 713 635 q 781 517 781 576 q 639 401 781 401 q 498 517 498 401 z "},"ŀ":{"ha":715,"x_min":92,"x_max":722,"o":"m 357 0 l 92 0 l 92 1055 l 357 1055 l 357 0 m 440 477 q 473 566 440 536 q 581 595 507 595 q 688 565 654 595 q 722 477 722 535 q 581 360 722 360 q 440 477 440 360 z "},"Ł":{"ha":846,"x_min":-21,"x_max":794,"o":"m 144 0 l 144 326 l 75 288 l -21 456 l 144 554 l 144 991 l 412 991 l 412 720 l 555 808 l 656 643 l 412 492 l 412 216 l 794 216 l 794 0 l 144 0 z "},"ł":{"ha":579,"x_min":-21,"x_max":600,"o":"m 424 659 l 501 705 l 600 538 l 424 433 l 424 0 l 158 0 l 158 273 l 74 228 l -21 396 l 158 498 l 158 1055 l 424 1055 l 424 659 z "},"Ń":{"ha":1158,"x_min":107,"x_max":1051,"o":"m 1051 0 l 700 0 l 338 699 l 332 699 q 345 447 345 534 l 345 0 l 107 0 l 107 991 l 457 991 l 818 302 l 822 302 q 812 543 812 452 l 812 991 l 1051 991 l 1051 0 m 435 1071 l 435 1090 q 567 1235 539 1202 q 614 1293 595 1267 l 904 1293 l 904 1279 q 755 1168 850 1236 q 611 1071 660 1101 l 435 1071 z "},"ń":{"ha":930,"x_min":92,"x_max":842,"o":"m 576 0 l 576 419 q 554 535 576 496 q 484 574 532 574 q 387 520 416 574 q 357 336 357 467 l 357 0 l 92 0 l 92 768 l 292 768 l 325 673 l 340 673 q 434 755 374 728 q 572 782 494 782 q 771 708 700 782 q 842 500 842 634 l 842 0 l 576 0 m 325 842 l 325 861 q 457 1006 429 973 q 504 1064 486 1038 l 794 1064 l 794 1050 q 645 939 740 1006 q 501 842 550 872 l 325 842 z "},"Ņ":{"ha":1158,"x_min":107,"x_max":1051,"o":"m 1051 0 l 700 0 l 338 699 l 332 699 q 345 447 345 534 l 345 0 l 107 0 l 107 991 l 457 991 l 818 302 l 822 302 q 812 543 812 452 l 812 991 l 1051 991 l 1051 0 m 404 -288 q 425 -189 415 -250 q 436 -85 435 -127 l 677 -85 l 677 -100 q 563 -307 629 -212 l 404 -307 l 404 -288 z "},"ņ":{"ha":930,"x_min":92,"x_max":842,"o":"m 576 0 l 576 419 q 554 535 576 496 q 484 574 532 574 q 387 520 416 574 q 357 336 357 467 l 357 0 l 92 0 l 92 768 l 292 768 l 325 673 l 340 673 q 434 755 374 728 q 572 782 494 782 q 771 708 700 782 q 842 500 842 634 l 842 0 l 576 0 m 311 -288 q 332 -189 322 -250 q 343 -85 342 -127 l 584 -85 l 584 -100 q 470 -307 536 -212 l 311 -307 l 311 -288 z "},"Ň":{"ha":1158,"x_min":107,"x_max":1051,"o":"m 1051 0 l 700 0 l 338 699 l 332 699 q 345 447 345 534 l 345 0 l 107 0 l 107 991 l 457 991 l 818 302 l 822 302 q 812 543 812 452 l 812 991 l 1051 991 l 1051 0 m 888 1293 l 888 1274 q 793 1172 843 1229 q 714 1071 744 1115 l 448 1071 q 373 1167 421 1112 q 273 1274 324 1223 l 273 1293 l 448 1293 q 579 1192 494 1264 q 715 1293 659 1261 l 888 1293 z "},"ň":{"ha":930,"x_min":92,"x_max":842,"o":"m 576 0 l 576 419 q 554 535 576 496 q 484 574 532 574 q 387 520 416 574 q 357 336 357 467 l 357 0 l 92 0 l 92 768 l 292 768 l 325 673 l 340 673 q 434 755 374 728 q 572 782 494 782 q 771 708 700 782 q 842 500 842 634 l 842 0 l 576 0 m 777 1064 l 777 1044 q 682 943 732 1000 q 603 842 633 886 l 336 842 q 261 938 310 882 q 161 1044 213 994 l 161 1064 l 336 1064 q 468 962 383 1035 q 604 1064 547 1031 l 777 1064 z "},"ŉ":{"ha":1157,"x_min":1,"x_max":1068,"o":"m 803 0 l 803 419 q 781 535 803 496 q 710 574 759 574 q 613 520 643 574 q 583 336 583 467 l 583 0 l 318 0 l 318 768 l 518 768 l 551 673 l 567 673 q 661 755 601 728 q 799 782 721 782 q 997 708 926 782 q 1068 500 1068 634 l 1068 0 l 803 0 m 299 990 l 309 975 q 189 595 247 727 l 1 595 q 67 990 47 810 l 299 990 z "},"Ŋ":{"ha":1158,"x_min":107,"x_max":1051,"o":"m 697 -332 q 546 -318 610 -332 l 546 -110 q 600 -119 572 -114 q 663 -123 628 -123 q 782 -93 743 -123 q 827 0 821 -62 l 338 699 l 332 699 q 345 416 345 570 l 345 0 l 107 0 l 107 991 l 429 991 l 818 443 l 823 443 q 812 729 812 600 l 812 991 l 1051 991 l 1051 -5 q 956 -245 1051 -158 q 697 -332 861 -332 z "},"ŋ":{"ha":930,"x_min":92,"x_max":842,"o":"m 562 -334 q 490 -329 532 -334 q 419 -317 449 -323 l 419 -110 q 498 -122 465 -122 q 575 -7 575 -122 l 575 444 q 551 541 575 508 q 484 574 528 574 q 387 520 416 574 q 357 336 357 467 l 357 0 l 92 0 l 92 768 l 292 768 l 325 673 l 342 673 q 436 754 376 727 q 574 782 497 782 q 771 707 700 782 q 842 500 842 633 l 842 -62 q 768 -262 842 -190 q 562 -334 695 -334 z "},"Ō":{"ha":1107,"x_min":71,"x_max":1035,"o":"m 1035 497 q 912 117 1035 247 q 553 -14 789 -14 q 195 117 319 -14 q 71 498 71 248 q 194 877 71 746 q 554 1007 318 1007 q 913 878 791 1007 q 1035 497 1035 748 m 353 497 q 553 210 353 210 q 704 279 654 210 q 753 497 753 349 q 703 716 753 646 q 554 787 653 787 q 353 497 353 787 m 307 1231 l 800 1231 l 800 1071 l 307 1071 l 307 1231 z "},"ō":{"ha":885,"x_min":58,"x_max":825,"o":"m 825 386 q 724 92 825 197 q 440 -14 623 -14 q 162 94 265 -14 q 58 386 58 202 q 160 678 58 574 q 444 782 261 782 q 644 734 557 782 q 778 596 731 686 q 825 386 825 506 m 328 386 q 354 235 328 287 q 443 183 380 183 q 530 235 505 183 q 555 386 555 287 q 530 534 555 484 q 441 585 504 585 q 354 535 380 585 q 328 386 328 485 m 195 1002 l 688 1002 l 688 842 l 195 842 l 195 1002 z "},"Ŏ":{"ha":1107,"x_min":71,"x_max":1035,"o":"m 1035 497 q 912 117 1035 247 q 553 -14 789 -14 q 195 117 319 -14 q 71 498 71 248 q 194 877 71 746 q 554 1007 318 1007 q 913 878 791 1007 q 1035 497 1035 748 m 353 497 q 553 210 353 210 q 704 279 654 210 q 753 497 753 349 q 703 716 753 646 q 554 787 653 787 q 353 497 353 787 m 831 1322 q 751 1139 824 1206 q 554 1071 677 1071 q 358 1135 427 1071 q 282 1322 288 1200 l 425 1322 q 464 1252 439 1270 q 554 1234 490 1234 q 639 1255 609 1234 q 682 1322 669 1276 l 831 1322 z "},"ŏ":{"ha":885,"x_min":58,"x_max":825,"o":"m 825 386 q 724 92 825 197 q 440 -14 623 -14 q 162 94 265 -14 q 58 386 58 202 q 160 678 58 574 q 444 782 261 782 q 644 734 557 782 q 778 596 731 686 q 825 386 825 506 m 328 386 q 354 235 328 287 q 443 183 380 183 q 530 235 505 183 q 555 386 555 287 q 530 534 555 484 q 441 585 504 585 q 354 535 380 585 q 328 386 328 485 m 715 1093 q 635 909 709 977 q 439 842 562 842 q 242 906 312 842 q 167 1093 173 970 l 310 1093 q 349 1022 323 1040 q 439 1004 374 1004 q 524 1026 494 1004 q 567 1093 554 1047 l 715 1093 z "},"Ő":{"ha":1107,"x_min":71,"x_max":1035,"o":"m 1035 497 q 912 117 1035 247 q 553 -14 789 -14 q 195 117 319 -14 q 71 498 71 248 q 194 877 71 746 q 554 1007 318 1007 q 913 878 791 1007 q 1035 497 1035 748 m 353 497 q 553 210 353 210 q 704 279 654 210 q 753 497 753 349 q 703 716 753 646 q 554 787 653 787 q 353 497 353 787 m 290 1071 l 290 1090 l 323 1136 q 431 1293 402 1243 l 682 1293 l 682 1279 q 595 1195 665 1253 q 428 1071 525 1138 l 290 1071 m 604 1071 l 604 1090 l 637 1136 q 745 1293 716 1241 l 997 1293 l 997 1279 q 902 1188 979 1250 q 741 1071 824 1126 l 604 1071 z "},"ő":{"ha":885,"x_min":58,"x_max":869,"o":"m 825 386 q 724 92 825 197 q 440 -14 623 -14 q 162 94 265 -14 q 58 386 58 202 q 160 678 58 574 q 444 782 261 782 q 644 734 557 782 q 778 596 731 686 q 825 386 825 506 m 328 386 q 354 235 328 287 q 443 183 380 183 q 530 235 505 183 q 555 386 555 287 q 530 534 555 484 q 441 585 504 585 q 354 535 380 585 q 328 386 328 485 m 163 842 l 163 861 l 196 907 q 303 1064 275 1014 l 554 1064 l 554 1050 q 468 966 538 1023 q 300 842 397 909 l 163 842 m 477 842 l 477 861 l 510 907 q 617 1064 589 1012 l 869 1064 l 869 1050 q 774 959 852 1021 q 614 842 696 897 l 477 842 z "},"Œ":{"ha":1329,"x_min":71,"x_max":1263,"o":"m 1263 0 l 690 0 q 615 -9 667 -5 q 525 -14 564 -14 q 190 122 309 -14 q 71 498 71 258 q 189 874 71 742 q 526 1007 308 1007 q 624 1002 572 1007 q 696 991 675 998 l 1263 991 l 1263 777 l 942 777 l 942 621 l 1238 621 l 1238 406 l 942 406 l 942 218 l 1263 218 l 1263 0 m 528 787 q 398 713 443 787 q 353 497 353 639 q 396 284 353 358 q 526 210 440 210 q 673 239 622 210 l 673 754 q 610 779 650 770 q 528 787 570 787 z "},"œ":{"ha":1361,"x_min":58,"x_max":1303,"o":"m 972 -14 q 713 79 811 -14 q 440 -14 610 -14 q 162 94 265 -14 q 58 386 58 202 q 160 678 58 574 q 444 782 261 782 q 699 696 597 782 q 970 782 804 782 q 1213 690 1124 782 q 1303 429 1303 597 l 1303 313 l 831 313 q 881 213 833 252 q 1007 175 928 175 q 1254 233 1139 175 l 1254 43 q 1127 -1 1192 11 q 972 -14 1063 -14 m 329 386 q 355 235 329 287 q 443 183 380 183 q 530 235 505 183 q 555 386 555 287 q 530 534 555 484 q 441 585 504 585 q 355 534 381 585 q 329 386 329 484 m 954 602 q 835 479 844 602 l 1065 479 q 1033 568 1064 535 q 954 602 1002 602 z "},"Ŕ":{"ha":940,"x_min":107,"x_max":957,"o":"m 375 361 l 375 0 l 107 0 l 107 991 l 432 991 q 836 699 836 991 q 668 432 836 526 l 957 0 l 653 0 l 443 361 l 375 361 m 375 562 l 425 562 q 566 686 566 562 q 428 789 566 789 l 375 789 l 375 562 m 296 1071 l 296 1090 q 428 1235 400 1202 q 475 1293 456 1267 l 765 1293 l 765 1279 q 616 1168 711 1236 q 472 1071 521 1101 l 296 1071 z "},"ŕ":{"ha":652,"x_min":92,"x_max":680,"o":"m 555 782 q 621 777 590 782 l 636 774 l 612 524 q 522 532 580 532 q 396 492 435 532 q 357 378 357 452 l 357 0 l 92 0 l 92 768 l 289 768 l 330 646 l 343 646 q 436 744 376 707 q 555 782 495 782 m 211 842 l 211 861 q 343 1006 315 973 q 390 1064 372 1038 l 680 1064 l 680 1050 q 531 939 626 1006 q 387 842 436 872 l 211 842 z "},"Ŗ":{"ha":940,"x_min":107,"x_max":957,"o":"m 375 361 l 375 0 l 107 0 l 107 991 l 432 991 q 836 699 836 991 q 668 432 836 526 l 957 0 l 653 0 l 443 361 l 375 361 m 375 562 l 425 562 q 566 686 566 562 q 428 789 566 789 l 375 789 l 375 562 m 363 -288 q 384 -189 374 -250 q 395 -85 394 -127 l 636 -85 l 636 -100 q 522 -307 588 -212 l 363 -307 l 363 -288 z "},"ŗ":{"ha":652,"x_min":74,"x_max":636,"o":"m 555 782 q 621 777 590 782 l 636 774 l 612 524 q 522 532 580 532 q 396 492 435 532 q 357 378 357 452 l 357 0 l 92 0 l 92 768 l 289 768 l 330 646 l 343 646 q 436 744 376 707 q 555 782 495 782 m 74 -288 q 95 -189 85 -250 q 106 -85 104 -127 l 347 -85 l 347 -100 q 233 -307 298 -212 l 74 -307 l 74 -288 z "},"Ř":{"ha":940,"x_min":107,"x_max":957,"o":"m 375 361 l 375 0 l 107 0 l 107 991 l 432 991 q 836 699 836 991 q 668 432 836 526 l 957 0 l 653 0 l 443 361 l 375 361 m 375 562 l 425 562 q 566 686 566 562 q 428 789 566 789 l 375 789 l 375 562 m 768 1293 l 768 1274 q 673 1172 723 1229 q 594 1071 624 1115 l 328 1071 q 253 1167 301 1112 q 153 1274 204 1223 l 153 1293 l 328 1293 q 459 1192 374 1264 q 595 1293 538 1261 l 768 1293 z "},"ř":{"ha":652,"x_min":62,"x_max":677,"o":"m 555 782 q 621 777 590 782 l 636 774 l 612 524 q 522 532 580 532 q 396 492 435 532 q 357 378 357 452 l 357 0 l 92 0 l 92 768 l 289 768 l 330 646 l 343 646 q 436 744 376 707 q 555 782 495 782 m 677 1064 l 677 1044 q 583 943 632 1000 q 503 842 533 886 l 237 842 q 162 938 210 882 q 62 1044 113 994 l 62 1064 l 237 1064 q 368 962 283 1035 q 505 1064 448 1031 l 677 1064 z "},"Ś":{"ha":802,"x_min":61,"x_max":755,"o":"m 755 301 q 709 137 755 209 q 574 26 662 66 q 367 -14 486 -14 q 201 0 268 -14 q 61 49 134 14 l 61 288 q 220 226 138 248 q 372 204 303 204 q 460 225 432 204 q 488 278 488 245 q 476 314 488 298 q 440 345 465 329 q 309 408 416 360 q 163 494 212 452 q 91 589 115 535 q 68 715 68 642 q 168 929 68 852 q 441 1006 267 1006 q 755 935 595 1006 l 673 728 q 433 791 534 791 q 357 773 381 791 q 334 728 334 755 q 364 675 334 699 q 528 591 394 652 q 706 468 656 534 q 755 301 755 401 m 282 1071 l 282 1090 q 415 1235 387 1202 q 461 1293 443 1267 l 751 1293 l 751 1279 q 602 1168 697 1236 q 458 1071 507 1101 l 282 1071 z "},"ś":{"ha":741,"x_min":81,"x_max":707,"o":"m 685 236 q 601 50 685 113 q 359 -14 517 -14 q 211 -4 274 -14 q 82 29 148 5 l 82 241 q 217 197 144 214 q 349 179 291 179 q 435 218 435 179 q 411 255 435 239 q 271 317 387 271 q 123 415 165 360 q 81 555 81 471 q 163 722 81 663 q 397 782 246 782 q 540 765 473 782 q 679 717 607 749 l 607 546 q 495 586 554 570 q 399 603 436 603 q 334 571 334 603 q 356 537 334 551 q 488 481 379 524 q 608 416 568 448 q 666 341 648 384 q 685 236 685 298 m 237 842 l 237 861 q 370 1006 342 973 q 416 1064 398 1038 l 707 1064 l 707 1050 q 557 939 652 1006 q 414 842 463 872 l 237 842 z "},"Ŝ":{"ha":802,"x_min":61,"x_max":755,"o":"m 755 301 q 709 137 755 209 q 574 26 662 66 q 367 -14 486 -14 q 201 0 268 -14 q 61 49 134 14 l 61 288 q 220 226 138 248 q 372 204 303 204 q 460 225 432 204 q 488 278 488 245 q 476 314 488 298 q 440 345 465 329 q 309 408 416 360 q 163 494 212 452 q 91 589 115 535 q 68 715 68 642 q 168 929 68 852 q 441 1006 267 1006 q 755 935 595 1006 l 673 728 q 433 791 534 791 q 357 773 381 791 q 334 728 334 755 q 364 675 334 699 q 528 591 394 652 q 706 468 656 534 q 755 301 755 401 m 558 1071 q 422 1173 501 1103 q 290 1071 337 1100 l 115 1071 l 115 1090 q 213 1194 162 1135 q 290 1293 264 1254 l 557 1293 q 730 1090 621 1200 l 730 1071 l 558 1071 z "},"ŝ":{"ha":741,"x_min":59,"x_max":685,"o":"m 685 236 q 601 50 685 113 q 359 -14 517 -14 q 211 -4 274 -14 q 82 29 148 5 l 82 241 q 217 197 144 214 q 349 179 291 179 q 435 218 435 179 q 411 255 435 239 q 271 317 387 271 q 123 415 165 360 q 81 555 81 471 q 163 722 81 663 q 397 782 246 782 q 540 765 473 782 q 679 717 607 749 l 607 546 q 495 586 554 570 q 399 603 436 603 q 334 571 334 603 q 356 537 334 551 q 488 481 379 524 q 608 416 568 448 q 666 341 648 384 q 685 236 685 298 m 502 842 q 366 943 445 874 q 234 842 281 871 l 59 842 l 59 861 q 157 965 106 905 q 234 1064 208 1025 l 500 1064 q 674 861 564 971 l 674 842 l 502 842 z "},"Ş":{"ha":802,"x_min":61,"x_max":755,"o":"m 755 301 q 709 137 755 209 q 574 26 662 66 q 367 -14 486 -14 q 201 0 268 -14 q 61 49 134 14 l 61 288 q 220 226 138 248 q 372 204 303 204 q 460 225 432 204 q 488 278 488 245 q 476 314 488 298 q 440 345 465 329 q 309 408 416 360 q 163 494 212 452 q 91 589 115 535 q 68 715 68 642 q 168 929 68 852 q 441 1006 267 1006 q 755 935 595 1006 l 673 728 q 433 791 534 791 q 357 773 381 791 q 334 728 334 755 q 364 675 334 699 q 528 591 394 652 q 706 468 656 534 q 755 301 755 401 m 534 -171 q 484 -289 534 -245 q 349 -334 433 -334 q 204 -314 256 -334 l 204 -175 q 304 -193 260 -193 q 339 -161 339 -193 q 311 -122 339 -139 q 239 -94 283 -104 l 288 0 l 425 0 l 419 -20 q 509 -82 484 -46 q 534 -171 534 -119 z "},"ş":{"ha":741,"x_min":81,"x_max":685,"o":"m 685 236 q 601 50 685 113 q 359 -14 517 -14 q 211 -4 274 -14 q 82 29 148 5 l 82 241 q 217 197 144 214 q 349 179 291 179 q 435 218 435 179 q 411 255 435 239 q 271 317 387 271 q 123 415 165 360 q 81 555 81 471 q 163 722 81 663 q 397 782 246 782 q 540 765 473 782 q 679 717 607 749 l 607 546 q 495 586 554 570 q 399 603 436 603 q 334 571 334 603 q 356 537 334 551 q 488 481 379 524 q 608 416 568 448 q 666 341 648 384 q 685 236 685 298 m 511 -171 q 460 -289 511 -245 q 325 -334 409 -334 q 180 -314 233 -334 l 180 -175 q 280 -193 237 -193 q 315 -161 315 -193 q 288 -122 315 -139 q 215 -94 260 -104 l 264 0 l 401 0 l 395 -20 q 486 -82 460 -46 q 511 -171 511 -119 z "},"Š":{"ha":802,"x_min":61,"x_max":755,"o":"m 755 301 q 709 137 755 209 q 574 26 662 66 q 367 -14 486 -14 q 201 0 268 -14 q 61 49 134 14 l 61 288 q 220 226 138 248 q 372 204 303 204 q 460 225 432 204 q 488 278 488 245 q 476 314 488 298 q 440 345 465 329 q 309 408 416 360 q 163 494 212 452 q 91 589 115 535 q 68 715 68 642 q 168 929 68 852 q 441 1006 267 1006 q 755 935 595 1006 l 673 728 q 433 791 534 791 q 357 773 381 791 q 334 728 334 755 q 364 675 334 699 q 528 591 394 652 q 706 468 656 534 q 755 301 755 401 m 736 1293 l 736 1274 q 642 1172 691 1229 q 562 1071 592 1115 l 296 1071 q 221 1167 269 1112 q 121 1274 172 1223 l 121 1293 l 296 1293 q 427 1192 342 1264 q 564 1293 507 1261 l 736 1293 z "},"š":{"ha":741,"x_min":66,"x_max":685,"o":"m 685 236 q 601 50 685 113 q 359 -14 517 -14 q 211 -4 274 -14 q 82 29 148 5 l 82 241 q 217 197 144 214 q 349 179 291 179 q 435 218 435 179 q 411 255 435 239 q 271 317 387 271 q 123 415 165 360 q 81 555 81 471 q 163 722 81 663 q 397 782 246 782 q 540 765 473 782 q 679 717 607 749 l 607 546 q 495 586 554 570 q 399 603 436 603 q 334 571 334 603 q 356 537 334 551 q 488 481 379 524 q 608 416 568 448 q 666 341 648 384 q 685 236 685 298 m 681 1064 l 681 1044 q 587 943 636 1000 q 507 842 537 886 l 241 842 q 166 938 214 882 q 66 1044 117 994 l 66 1064 l 241 1064 q 372 962 288 1035 q 509 1064 452 1031 l 681 1064 z "},"Ț":{"ha":821,"x_min":35,"x_max":786,"o":"m 545 0 l 277 0 l 277 772 l 35 772 l 35 991 l 786 991 l 786 772 l 545 772 l 545 0 m 261 -288 q 282 -189 272 -250 q 293 -85 292 -127 l 534 -85 l 534 -100 q 420 -307 486 -212 l 261 -307 l 261 -288 z "},"ț":{"ha":639,"x_min":36,"x_max":596,"o":"m 468 196 q 596 222 522 196 l 596 29 q 494 -4 543 6 q 380 -14 446 -14 q 188 52 247 -14 q 129 253 129 117 l 129 570 l 36 570 l 36 677 l 154 761 l 222 922 l 396 922 l 396 768 l 585 768 l 585 570 l 396 570 l 396 271 q 468 196 396 196 m 218 -288 q 238 -189 229 -250 q 250 -85 248 -127 l 490 -85 l 490 -100 q 376 -307 442 -212 l 218 -307 l 218 -288 z "},"Ť":{"ha":821,"x_min":35,"x_max":786,"o":"m 545 0 l 277 0 l 277 772 l 35 772 l 35 991 l 786 991 l 786 772 l 545 772 l 545 0 m 719 1293 l 719 1274 q 625 1172 674 1229 q 545 1071 575 1115 l 279 1071 q 204 1167 252 1112 q 104 1274 155 1223 l 104 1293 l 279 1293 q 410 1192 326 1264 q 547 1293 490 1261 l 719 1293 z "},"ť":{"ha":667,"x_min":41,"x_max":742,"o":"m 473 196 q 602 222 527 196 l 602 29 q 499 -4 548 6 q 386 -14 451 -14 q 193 52 252 -14 q 134 253 134 117 l 134 570 l 41 570 l 41 677 l 159 761 l 228 922 l 401 922 l 401 768 l 590 768 l 590 570 l 401 570 l 401 271 q 473 196 401 196 m 463 866 q 501 1069 492 991 l 742 1069 l 742 1054 q 621 847 644 885 l 463 847 l 463 866 z "},"Ŧ":{"ha":821,"x_min":35,"x_max":786,"o":"m 277 591 l 277 772 l 35 772 l 35 991 l 786 991 l 786 772 l 545 772 l 545 591 l 688 591 l 688 371 l 545 371 l 545 0 l 277 0 l 277 371 l 136 371 l 136 591 l 277 591 z "},"ŧ":{"ha":667,"x_min":36,"x_max":616,"o":"m 468 196 q 520 200 495 196 q 616 227 545 204 l 616 29 q 380 -14 517 -14 q 188 52 247 -14 q 129 253 129 117 l 129 301 l 50 301 l 50 467 l 129 467 l 129 570 l 36 570 l 36 677 l 154 761 l 222 922 l 396 922 l 396 768 l 606 768 l 606 570 l 396 570 l 396 467 l 575 467 l 575 301 l 396 301 l 396 271 q 415 212 396 228 q 468 196 433 196 z "},"Ũ":{"ha":1051,"x_min":102,"x_max":950,"o":"m 950 991 l 950 395 q 840 93 950 200 q 522 -14 730 -14 q 211 90 319 -14 q 102 389 102 194 l 102 991 l 371 991 l 371 410 q 410 257 371 304 q 526 210 450 210 q 645 257 608 210 q 682 411 682 304 l 682 991 l 950 991 m 648 1069 q 587 1080 618 1069 q 526 1102 556 1090 q 468 1124 496 1114 q 415 1135 440 1135 q 366 1068 378 1135 l 244 1068 q 293 1243 252 1187 q 415 1300 334 1300 q 470 1290 441 1300 q 529 1267 499 1280 q 588 1245 559 1255 q 643 1235 617 1235 q 674 1252 663 1235 q 692 1301 686 1269 l 815 1301 q 765 1129 808 1188 q 648 1069 722 1069 z "},"ũ":{"ha":930,"x_min":90,"x_max":839,"o":"m 639 0 l 606 96 l 590 96 q 497 15 557 43 q 358 -14 438 -14 q 161 60 231 -14 q 90 268 90 134 l 90 768 l 355 768 l 355 349 q 377 235 355 273 q 447 196 398 196 q 545 250 515 196 q 574 432 574 304 l 574 768 l 839 768 l 839 0 l 639 0 m 583 840 q 522 850 553 840 q 461 873 491 861 q 403 895 431 885 q 350 905 375 905 q 301 839 313 905 l 179 839 q 228 1014 186 958 q 350 1071 269 1071 q 405 1061 376 1071 q 464 1038 434 1050 q 523 1016 494 1026 q 578 1006 552 1006 q 609 1023 597 1006 q 627 1072 621 1040 l 750 1072 q 700 900 743 959 q 583 840 657 840 z "},"Ū":{"ha":1051,"x_min":102,"x_max":950,"o":"m 950 991 l 950 395 q 840 93 950 200 q 522 -14 730 -14 q 211 90 319 -14 q 102 389 102 194 l 102 991 l 371 991 l 371 410 q 410 257 371 304 q 526 210 450 210 q 645 257 608 210 q 682 411 682 304 l 682 991 l 950 991 m 279 1231 l 772 1231 l 772 1071 l 279 1071 l 279 1231 z "},"ū":{"ha":930,"x_min":90,"x_max":839,"o":"m 639 0 l 606 96 l 590 96 q 497 15 557 43 q 358 -14 438 -14 q 161 60 231 -14 q 90 268 90 134 l 90 768 l 355 768 l 355 349 q 377 235 355 273 q 447 196 398 196 q 545 250 515 196 q 574 432 574 304 l 574 768 l 839 768 l 839 0 l 639 0 m 216 1002 l 709 1002 l 709 842 l 216 842 l 216 1002 z "},"Ŭ":{"ha":1051,"x_min":102,"x_max":950,"o":"m 950 991 l 950 395 q 840 93 950 200 q 522 -14 730 -14 q 211 90 319 -14 q 102 389 102 194 l 102 991 l 371 991 l 371 410 q 410 257 371 304 q 526 210 450 210 q 645 257 608 210 q 682 411 682 304 l 682 991 l 950 991 m 802 1322 q 722 1139 795 1206 q 525 1071 648 1071 q 329 1135 398 1071 q 253 1322 259 1200 l 396 1322 q 435 1252 410 1270 q 525 1234 460 1234 q 610 1255 580 1234 q 653 1322 640 1276 l 802 1322 z "},"ŭ":{"ha":930,"x_min":90,"x_max":839,"o":"m 639 0 l 606 96 l 590 96 q 497 15 557 43 q 358 -14 438 -14 q 161 60 231 -14 q 90 268 90 134 l 90 768 l 355 768 l 355 349 q 377 235 355 273 q 447 196 398 196 q 545 250 515 196 q 574 432 574 304 l 574 768 l 839 768 l 839 0 l 639 0 m 739 1093 q 659 909 732 977 q 463 842 586 842 q 266 906 336 842 q 191 1093 197 970 l 334 1093 q 373 1022 347 1040 q 463 1004 398 1004 q 548 1026 517 1004 q 591 1093 578 1047 l 739 1093 z "},"Ů":{"ha":1051,"x_min":102,"x_max":950,"o":"m 950 991 l 950 395 q 840 93 950 200 q 522 -14 730 -14 q 211 90 319 -14 q 102 389 102 194 l 102 991 l 371 991 l 371 410 q 410 257 371 304 q 526 210 450 210 q 645 257 608 210 q 682 411 682 304 l 682 991 l 950 991 m 709 1240 q 658 1116 709 1164 q 525 1068 606 1068 q 394 1115 443 1068 q 346 1239 346 1161 q 394 1364 346 1318 q 525 1411 443 1411 q 657 1364 605 1411 q 709 1240 709 1316 m 582 1239 q 565 1280 582 1265 q 525 1296 549 1296 q 485 1280 501 1296 q 468 1239 468 1265 q 482 1198 468 1214 q 525 1182 496 1182 q 565 1198 549 1182 q 582 1239 582 1214 z "},"ů":{"ha":930,"x_min":90,"x_max":839,"o":"m 639 0 l 606 96 l 590 96 q 497 15 557 43 q 358 -14 438 -14 q 161 60 231 -14 q 90 268 90 134 l 90 768 l 355 768 l 355 349 q 377 235 355 273 q 447 196 398 196 q 545 250 515 196 q 574 432 574 304 l 574 768 l 839 768 l 839 0 l 639 0 m 644 1011 q 593 887 644 935 q 460 839 541 839 q 329 885 378 839 q 281 1010 281 932 q 329 1135 281 1088 q 460 1182 378 1182 q 592 1135 540 1182 q 644 1011 644 1087 m 517 1010 q 500 1051 517 1036 q 460 1067 484 1067 q 419 1051 436 1067 q 403 1010 403 1036 q 417 969 403 985 q 460 953 431 953 q 500 969 484 953 q 517 1010 517 985 z "},"Ű":{"ha":1051,"x_min":102,"x_max":953,"o":"m 950 991 l 950 395 q 840 93 950 200 q 522 -14 730 -14 q 211 90 319 -14 q 102 389 102 194 l 102 991 l 371 991 l 371 410 q 410 257 371 304 q 526 210 450 210 q 645 257 608 210 q 682 411 682 304 l 682 991 l 950 991 m 246 1071 l 246 1090 l 279 1136 q 387 1293 358 1243 l 637 1293 l 637 1279 q 551 1195 621 1253 q 384 1071 481 1138 l 246 1071 m 560 1071 l 560 1090 l 593 1136 q 701 1293 672 1241 l 953 1293 l 953 1279 q 858 1188 935 1250 q 697 1071 780 1126 l 560 1071 z "},"ű":{"ha":930,"x_min":90,"x_max":878,"o":"m 639 0 l 606 96 l 590 96 q 497 15 557 43 q 358 -14 438 -14 q 161 60 231 -14 q 90 268 90 134 l 90 768 l 355 768 l 355 349 q 377 235 355 273 q 447 196 398 196 q 545 250 515 196 q 574 432 574 304 l 574 768 l 839 768 l 839 0 l 639 0 m 171 842 l 171 861 l 204 907 q 311 1064 283 1014 l 562 1064 l 562 1050 q 476 966 546 1023 q 309 842 406 909 l 171 842 m 485 842 l 485 861 l 518 907 q 625 1064 597 1012 l 878 1064 l 878 1050 q 782 959 860 1021 q 622 842 705 897 l 485 842 z "},"Ų":{"ha":1051,"x_min":102,"x_max":950,"o":"m 950 991 l 950 395 q 840 93 950 200 q 522 -14 730 -14 q 211 90 319 -14 q 102 389 102 194 l 102 991 l 371 991 l 371 410 q 410 257 371 304 q 526 210 450 210 q 645 257 608 210 q 682 411 682 304 l 682 991 l 950 991 m 563 -135 q 616 -180 563 -180 q 696 -165 663 -180 l 696 -315 q 578 -334 640 -334 q 443 -290 495 -334 q 391 -176 391 -246 q 418 -87 391 -130 q 509 0 445 -45 l 653 0 q 581 -79 600 -50 q 563 -135 563 -109 z "},"ų":{"ha":930,"x_min":90,"x_max":839,"o":"m 639 0 l 606 96 l 590 96 q 497 15 557 43 q 358 -14 438 -14 q 161 60 231 -14 q 90 268 90 134 l 90 768 l 355 768 l 355 349 q 377 235 355 273 q 447 196 398 196 q 545 250 515 196 q 574 432 574 304 l 574 768 l 839 768 l 839 0 l 639 0 m 696 -135 q 749 -180 696 -180 q 829 -165 796 -180 l 829 -315 q 711 -334 772 -334 q 576 -290 628 -334 q 524 -176 524 -246 q 551 -87 524 -130 q 642 0 578 -45 l 786 0 q 714 -79 732 -50 q 696 -135 696 -109 z "},"Ŵ":{"ha":1443,"x_min":21,"x_max":1422,"o":"m 1178 0 l 861 0 l 766 432 q 745 540 760 459 q 724 675 730 621 q 706 565 718 631 q 682 445 694 500 q 583 0 670 390 l 267 0 l 21 991 l 279 991 l 387 494 q 437 232 424 330 q 469 420 446 301 q 511 616 492 538 l 599 991 l 847 991 l 932 616 q 976 408 954 526 q 1006 232 998 290 q 1054 493 1015 307 l 1164 991 l 1422 991 l 1178 0 m 851 1071 q 715 1173 794 1103 q 583 1071 630 1100 l 408 1071 l 408 1090 q 506 1194 455 1135 q 583 1293 557 1254 l 850 1293 q 1023 1090 913 1200 l 1023 1071 l 851 1071 z "},"ŵ":{"ha":1264,"x_min":17,"x_max":1247,"o":"m 753 0 l 666 366 l 646 477 l 632 566 l 628 566 q 583 326 595 376 l 505 0 l 227 0 l 17 768 l 278 768 l 340 473 q 375 221 370 321 l 379 221 q 416 458 381 283 l 488 768 l 781 768 l 846 454 q 885 221 877 304 l 889 221 q 903 350 893 273 q 924 473 912 427 l 991 768 l 1247 768 l 1036 0 l 753 0 m 762 842 q 626 943 705 874 q 494 842 541 871 l 319 842 l 319 861 q 417 965 366 905 q 494 1064 469 1025 l 761 1064 q 935 861 825 971 l 935 842 l 762 842 z "},"Ŷ":{"ha":922,"x_min":0,"x_max":922,"o":"m 461 624 l 632 991 l 922 991 l 596 387 l 596 0 l 326 0 l 326 379 l 0 991 l 292 991 l 461 624 m 599 1071 q 463 1173 542 1103 q 331 1071 378 1100 l 156 1071 l 156 1090 q 254 1194 203 1135 q 331 1293 305 1254 l 597 1293 q 771 1090 661 1200 l 771 1071 l 599 1071 z "},"ŷ":{"ha":847,"x_min":-1,"x_max":847,"o":"m -1 768 l 278 768 l 408 328 q 421 244 418 293 l 427 244 q 443 326 432 291 l 576 768 l 847 768 l 543 -49 q 400 -269 485 -205 q 178 -334 315 -334 q 69 -322 125 -334 l 69 -114 q 151 -122 105 -122 q 213 -109 186 -122 q 259 -70 239 -95 q 301 11 279 -45 l -1 768 m 557 842 q 420 943 500 874 q 289 842 336 871 l 114 842 l 114 861 q 212 965 161 905 q 289 1064 263 1025 l 555 1064 q 729 861 619 971 l 729 842 l 557 842 z "},"Ÿ":{"ha":922,"x_min":0,"x_max":922,"o":"m 461 624 l 632 991 l 922 991 l 596 387 l 596 0 l 326 0 l 326 379 l 0 991 l 292 991 l 461 624 m 182 1187 q 213 1266 182 1238 q 297 1295 244 1295 q 382 1266 351 1295 q 414 1187 414 1237 q 382 1111 414 1139 q 297 1082 351 1082 q 213 1109 244 1082 q 182 1187 182 1137 m 507 1187 q 538 1266 507 1238 q 623 1295 569 1295 q 709 1265 677 1295 q 741 1187 741 1236 q 709 1111 741 1139 q 623 1082 677 1082 q 537 1110 568 1082 q 507 1187 507 1138 z "},"Ź":{"ha":848,"x_min":41,"x_max":814,"o":"m 814 0 l 41 0 l 41 165 l 471 775 l 52 775 l 52 991 l 803 991 l 803 827 l 374 216 l 814 216 l 814 0 m 256 1071 l 256 1090 q 388 1235 360 1202 q 435 1293 416 1267 l 725 1293 l 725 1279 q 576 1168 671 1236 q 432 1071 481 1101 l 256 1071 z "},"ź":{"ha":704,"x_min":33,"x_max":700,"o":"m 669 0 l 33 0 l 33 151 l 351 566 l 52 566 l 52 768 l 654 768 l 654 604 l 350 203 l 669 203 l 669 0 m 231 842 l 231 861 q 363 1006 335 973 q 410 1064 391 1038 l 700 1064 l 700 1050 q 551 939 646 1006 q 407 842 456 872 l 231 842 z "},"Ż":{"ha":848,"x_min":41,"x_max":814,"o":"m 814 0 l 41 0 l 41 165 l 471 775 l 52 775 l 52 991 l 803 991 l 803 827 l 374 216 l 814 216 l 814 0 m 262 1189 q 296 1278 262 1249 q 403 1307 329 1307 q 511 1277 477 1307 q 545 1189 545 1247 q 403 1072 545 1072 q 262 1189 262 1072 z "},"ż":{"ha":704,"x_min":33,"x_max":669,"o":"m 669 0 l 33 0 l 33 151 l 351 566 l 52 566 l 52 768 l 654 768 l 654 604 l 350 203 l 669 203 l 669 0 m 200 960 q 233 1048 200 1019 q 340 1078 267 1078 q 448 1048 414 1078 q 482 960 482 1018 q 340 843 482 843 q 200 960 200 843 z "},"Ž":{"ha":848,"x_min":41,"x_max":814,"o":"m 814 0 l 41 0 l 41 165 l 471 775 l 52 775 l 52 991 l 803 991 l 803 827 l 374 216 l 814 216 l 814 0 m 740 1293 l 740 1274 q 646 1172 695 1229 q 566 1071 596 1115 l 300 1071 q 225 1167 273 1112 q 125 1274 176 1223 l 125 1293 l 300 1293 q 431 1192 347 1264 q 568 1293 511 1261 l 740 1293 z "},"ž":{"ha":704,"x_min":33,"x_max":669,"o":"m 669 0 l 33 0 l 33 151 l 351 566 l 52 566 l 52 768 l 654 768 l 654 604 l 350 203 l 669 203 l 669 0 m 667 1064 l 667 1044 q 573 943 623 1000 q 494 842 524 886 l 227 842 q 152 938 201 882 q 52 1044 104 994 l 52 1064 l 227 1064 q 359 962 274 1035 q 495 1064 438 1031 l 667 1064 z "},"ſ":{"ha":559,"x_min":92,"x_max":587,"o":"m 357 0 l 92 0 l 92 777 q 120 944 92 881 q 206 1035 149 1006 q 374 1063 263 1063 q 587 1026 500 1063 l 536 850 q 486 865 511 857 q 431 872 462 872 q 373 850 390 872 q 357 771 357 828 l 357 0 z "},"ƒ":{"ha":771,"x_min":94,"x_max":713,"o":"m 672 570 l 498 570 l 498 -57 q 431 -262 498 -191 q 240 -334 363 -334 q 168 -329 212 -334 q 94 -314 124 -323 l 94 -110 q 170 -122 136 -122 q 233 -25 233 -122 l 233 570 l 132 570 l 132 700 l 239 765 l 239 790 q 298 999 239 935 q 492 1063 357 1063 q 713 1026 604 1063 l 661 851 q 567 868 607 868 q 515 846 531 868 q 498 771 498 823 l 498 768 l 672 768 l 672 570 z "},"Ǻ":{"ha":1006,"x_min":0,"x_max":1008,"o":"m 686 1006 q 673 940 686 968 l 681 940 l 1008 0 l 715 0 l 663 186 l 345 186 l 294 0 l 0 0 l 323 940 l 332 940 q 322 1004 322 968 q 371 1130 322 1083 q 501 1177 420 1177 q 634 1128 582 1177 q 686 1006 686 1080 m 607 408 l 564 550 q 530 670 549 598 q 504 778 511 741 q 486 696 497 740 q 404 408 475 652 l 607 408 m 387 1231 q 447 1276 412 1246 q 505 1331 482 1305 l 798 1331 l 798 1317 q 697 1264 778 1299 q 564 1214 617 1230 l 387 1214 l 387 1231 m 558 1004 q 542 1046 558 1030 q 501 1061 525 1061 q 461 1046 477 1061 q 444 1004 444 1030 q 458 963 444 979 q 501 947 473 947 q 542 963 525 947 q 558 1004 558 979 m 501 991 z "},"ǻ":{"ha":865,"x_min":50,"x_max":777,"o":"m 593 0 l 542 102 l 536 102 q 427 11 483 35 q 283 -14 372 -14 q 112 53 174 -14 q 50 239 50 119 q 128 420 50 361 q 383 485 206 479 l 511 489 l 511 500 q 418 595 511 595 q 204 538 334 595 l 127 713 q 467 782 262 782 q 695 709 614 782 q 777 504 777 635 l 777 0 l 593 0 m 396 174 q 478 204 444 174 q 513 283 513 235 l 513 343 l 452 340 q 321 244 321 336 q 396 174 321 174 m 314 1197 l 314 1208 q 381 1276 348 1239 q 432 1339 414 1314 l 699 1339 l 699 1331 q 629 1279 684 1314 q 486 1197 573 1243 l 314 1197 m 628 990 q 576 866 628 915 q 443 818 525 818 q 313 865 361 818 q 264 989 264 911 q 313 1114 264 1067 q 443 1161 361 1161 q 575 1114 523 1161 q 628 990 628 1067 m 500 989 q 483 1030 500 1015 q 443 1046 467 1046 q 402 1030 419 1046 q 386 989 386 1015 q 400 948 386 964 q 443 932 414 932 q 483 948 467 932 q 500 989 500 964 z "},"Ǽ":{"ha":1314,"x_min":-7,"x_max":1247,"o":"m 1247 0 l 657 0 l 657 186 l 361 186 l 293 0 l -7 0 l 419 991 l 1247 991 l 1247 777 l 926 777 l 926 621 l 1223 621 l 1223 406 l 926 406 l 926 218 l 1247 218 l 1247 0 m 443 408 l 657 408 l 657 765 l 582 765 l 443 408 m 629 1071 l 629 1090 q 762 1235 734 1202 q 808 1293 790 1267 l 1099 1293 l 1099 1279 q 949 1168 1044 1236 q 806 1071 854 1101 l 629 1071 z "},"ǽ":{"ha":1299,"x_min":50,"x_max":1240,"o":"m 909 -14 q 618 115 720 -14 q 522 34 564 59 q 428 -3 480 8 q 294 -14 376 -14 q 117 55 184 -14 q 50 239 50 124 q 387 485 50 473 l 511 489 l 511 501 q 419 595 511 595 q 207 541 326 595 l 132 714 q 440 782 261 782 q 668 718 576 782 q 772 767 715 751 q 907 782 828 782 q 1151 689 1062 782 q 1240 429 1240 597 l 1240 313 l 768 313 q 819 213 771 252 q 945 175 866 175 q 1192 233 1076 175 l 1192 43 q 1062 -2 1128 10 q 909 -14 996 -14 m 513 343 l 456 340 q 352 314 384 338 q 321 241 321 291 q 397 174 321 174 q 478 204 444 174 q 513 283 513 235 l 513 343 m 892 602 q 772 479 782 602 l 1003 479 q 970 568 1002 535 q 892 602 939 602 m 526 842 l 526 861 q 659 1006 631 973 q 705 1064 687 1038 l 996 1064 l 996 1050 q 846 939 941 1006 q 703 842 751 872 l 526 842 z "},"Ǿ":{"ha":1107,"x_min":71,"x_max":1035,"o":"m 1035 497 q 912 117 1035 247 q 553 -14 789 -14 q 345 16 433 -14 l 288 -74 l 157 11 l 214 96 q 71 498 71 227 q 194 877 71 746 q 554 1007 318 1007 q 778 970 684 1007 l 829 1050 l 958 972 l 903 888 q 1035 497 1035 760 m 753 497 q 741 640 753 582 l 473 220 q 553 210 510 210 q 704 279 654 210 q 753 497 753 349 m 353 497 q 372 335 353 392 l 646 768 q 554 787 600 787 q 353 497 353 787 m 408 1071 l 408 1090 q 541 1235 513 1202 q 587 1293 569 1267 l 878 1293 l 878 1279 q 728 1168 823 1236 q 585 1071 633 1101 l 408 1071 z "},"ǿ":{"ha":924,"x_min":58,"x_max":864,"o":"m 186 77 q 58 386 58 184 q 165 678 58 574 q 464 782 271 782 q 623 755 549 782 l 671 831 l 785 760 l 739 689 q 864 386 864 582 q 758 91 864 196 q 460 -14 652 -14 q 304 9 375 -14 l 248 -79 l 132 -7 l 186 77 m 313 386 q 321 286 313 319 l 517 590 q 461 599 492 599 q 348 549 384 599 q 313 386 313 498 m 610 386 q 603 475 610 444 l 411 175 q 463 170 429 170 q 575 219 540 170 q 610 386 610 269 m 322 842 l 322 861 q 455 1006 427 973 q 501 1064 483 1038 l 791 1064 l 791 1050 q 642 939 737 1006 q 498 842 547 872 l 322 842 z "},"Ș":{"ha":802,"x_min":61,"x_max":755,"o":"m 755 301 q 709 137 755 209 q 574 26 662 66 q 367 -14 486 -14 q 201 0 268 -14 q 61 49 134 14 l 61 288 q 220 226 138 248 q 372 204 303 204 q 460 225 432 204 q 488 278 488 245 q 476 314 488 298 q 440 345 465 329 q 309 408 416 360 q 163 494 212 452 q 91 589 115 535 q 68 715 68 642 q 168 929 68 852 q 441 1006 267 1006 q 755 935 595 1006 l 673 728 q 433 791 534 791 q 357 773 381 791 q 334 728 334 755 q 364 675 334 699 q 528 591 394 652 q 706 468 656 534 q 755 301 755 401 m 214 -288 q 234 -189 224 -250 q 245 -85 244 -127 l 486 -85 l 486 -100 q 372 -307 438 -212 l 214 -307 l 214 -288 z "},"ș":{"ha":741,"x_min":81,"x_max":685,"o":"m 685 236 q 601 50 685 113 q 359 -14 517 -14 q 211 -4 274 -14 q 82 29 148 5 l 82 241 q 217 197 144 214 q 349 179 291 179 q 435 218 435 179 q 411 255 435 239 q 271 317 387 271 q 123 415 165 360 q 81 555 81 471 q 163 722 81 663 q 397 782 246 782 q 540 765 473 782 q 679 717 607 749 l 607 546 q 495 586 554 570 q 399 603 436 603 q 334 571 334 603 q 356 537 334 551 q 488 481 379 524 q 608 416 568 448 q 666 341 648 384 q 685 236 685 298 m 191 -288 q 211 -189 201 -250 q 222 -85 221 -127 l 463 -85 l 463 -100 q 349 -307 415 -212 l 191 -307 l 191 -288 z "},"ˆ":{"ha":839,"x_min":111,"x_max":726,"o":"m 554 842 q 418 943 497 874 q 286 842 333 871 l 111 842 l 111 861 q 209 965 158 905 q 286 1064 260 1025 l 553 1064 q 726 861 616 971 l 726 842 l 554 842 z "},"ˇ":{"ha":839,"x_min":111,"x_max":726,"o":"m 726 1064 l 726 1044 q 632 943 682 1000 q 553 842 583 886 l 286 842 q 211 938 260 882 q 111 1044 163 994 l 111 1064 l 286 1064 q 418 962 333 1035 q 554 1064 497 1031 l 726 1064 z "},"ˉ":{"ha":823,"x_min":165,"x_max":659,"o":"m 165 1002 l 659 1002 l 659 842 l 165 842 l 165 1002 z "},"˘":{"ha":831,"x_min":142,"x_max":690,"o":"m 690 1093 q 610 909 684 977 q 414 842 537 842 q 217 906 287 842 q 142 1093 148 970 l 285 1093 q 324 1022 298 1040 q 414 1004 349 1004 q 499 1026 469 1004 q 542 1093 529 1047 l 690 1093 z "},"˙":{"ha":452,"x_min":86,"x_max":368,"o":"m 86 960 q 119 1048 86 1019 q 227 1078 153 1078 q 334 1048 300 1078 q 368 960 368 1018 q 227 843 368 843 q 86 960 86 843 z "},"˚":{"ha":760,"x_min":199,"x_max":562,"o":"m 562 1011 q 511 887 562 935 q 378 839 459 839 q 247 885 296 839 q 199 1010 199 932 q 247 1135 199 1088 q 378 1182 296 1182 q 510 1135 458 1182 q 562 1011 562 1087 m 435 1010 q 418 1051 435 1036 q 378 1067 401 1067 q 337 1051 354 1067 q 321 1010 321 1036 q 335 969 321 985 q 378 953 349 953 q 418 969 401 953 q 435 1010 435 985 z "},"˛":{"ha":294,"x_min":-4,"x_max":301,"o":"m 168 -135 q 221 -180 168 -180 q 301 -165 269 -180 l 301 -315 q 183 -334 245 -334 q 48 -290 100 -334 q -4 -176 -4 -246 q 23 -87 -4 -130 q 114 0 50 -45 l 258 0 q 186 -79 205 -50 q 168 -135 168 -109 z "},"˜":{"ha":831,"x_min":119,"x_max":690,"o":"m 524 840 q 462 850 493 840 q 401 873 431 861 q 343 895 372 885 q 290 905 315 905 q 241 839 254 905 l 119 839 q 168 1014 127 958 q 290 1071 210 1071 q 345 1061 316 1071 q 404 1038 374 1050 q 463 1016 434 1026 q 518 1006 492 1006 q 549 1023 538 1006 q 567 1072 561 1040 l 690 1072 q 640 900 683 959 q 524 840 597 840 z "},"˝":{"ha":812,"x_min":53,"x_max":760,"o":"m 53 842 l 53 861 l 86 907 q 193 1064 165 1014 l 444 1064 l 444 1050 q 358 966 428 1023 q 191 842 288 909 l 53 842 m 367 842 l 367 861 l 400 907 q 507 1064 479 1012 l 760 1064 l 760 1050 q 664 959 742 1021 q 504 842 587 897 l 367 842 z "},"΄":{"ha":751,"x_min":275,"x_max":559,"o":"m 275 864 q 304 986 289 910 q 326 1104 320 1061 l 559 1104 l 559 1086 q 428 842 504 964 l 275 842 l 275 864 z "},"΅":{"ha":785,"x_min":78,"x_max":707,"o":"m 313 961 q 339 1164 337 1103 l 547 1164 l 547 1150 q 429 942 513 1070 l 313 942 l 313 961 m 78 958 q 182 1065 78 1065 q 258 1040 229 1065 q 288 958 288 1014 q 258 878 288 904 q 182 852 229 852 q 78 958 78 852 m 494 958 q 602 1065 494 1065 q 678 1040 650 1065 q 707 958 707 1014 q 678 878 707 904 q 602 852 650 852 q 494 958 494 852 z "},"Ά":{"ha":1026,"x_min":-54,"x_max":1027,"o":"m 734 0 l 685 186 l 363 186 l 313 0 l 18 0 l 342 996 l 699 996 l 1027 0 l 734 0 m 629 406 l 587 568 q 550 709 572 623 q 522 832 529 795 q 498 718 516 798 q 418 406 480 639 l 629 406 m -54 793 q -25 915 -41 839 q -3 1033 -9 990 l 230 1033 l 230 1015 q 98 770 174 893 l -54 770 l -54 793 z "},"·":{"ha":401,"x_min":58,"x_max":342,"o":"m 58 490 q 95 587 58 553 q 203 621 132 621 q 306 587 270 621 q 342 490 342 553 q 305 394 342 429 q 203 359 268 359 q 97 394 135 359 q 58 490 58 429 z "},"Έ":{"ha":916,"x_min":-54,"x_max":848,"o":"m 848 0 l 260 0 l 260 991 l 848 991 l 848 777 l 528 777 l 528 621 l 825 621 l 825 406 l 528 406 l 528 218 l 848 218 l 848 0 m -54 793 q -25 915 -41 839 q -3 1033 -9 990 l 230 1033 l 230 1015 q 98 770 174 893 l -54 770 l -54 793 z "},"Ή":{"ha":1206,"x_min":-54,"x_max":1099,"o":"m 1099 0 l 829 0 l 829 404 l 518 404 l 518 0 l 249 0 l 249 991 l 518 991 l 518 624 l 829 624 l 829 991 l 1099 991 l 1099 0 m -54 793 q -25 915 -41 839 q -3 1033 -9 990 l 230 1033 l 230 1015 q 98 770 174 893 l -54 770 l -54 793 z "},"Ό":{"ha":1187,"x_min":-54,"x_max":1116,"o":"m 1116 497 q 993 117 1116 247 q 633 -14 870 -14 q 276 117 400 -14 q 151 498 151 248 q 275 877 151 746 q 635 1007 399 1007 q 994 878 871 1007 q 1116 497 1116 748 m 433 497 q 633 210 433 210 q 784 279 735 210 q 833 497 833 349 q 784 716 833 646 q 635 787 734 787 q 433 497 433 787 m -54 793 q -25 915 -41 839 q -3 1033 -9 990 l 230 1033 l 230 1015 q 98 770 174 893 l -54 770 l -54 793 z "},"Ύ":{"ha":1183,"x_min":-54,"x_max":1183,"o":"m 722 624 l 893 991 l 1183 991 l 857 387 l 857 0 l 587 0 l 587 379 l 261 991 l 553 991 l 722 624 m -54 793 q -25 915 -41 839 q -3 1033 -9 990 l 230 1033 l 230 1015 q 98 770 174 893 l -54 770 l -54 793 z "},"Ώ":{"ha":1183,"x_min":-54,"x_max":1158,"o":"m 639 787 q 486 721 541 787 q 431 541 431 654 q 464 363 431 429 q 575 248 498 296 l 575 0 l 119 0 l 119 220 l 372 220 q 213 368 271 269 q 155 586 155 467 q 287 894 155 781 q 639 1007 418 1007 q 893 956 783 1007 q 1063 809 1003 905 q 1122 587 1122 713 q 1065 370 1122 467 q 900 220 1007 273 l 1158 220 l 1158 0 l 699 0 l 699 248 q 813 366 780 298 q 847 543 847 433 q 791 722 847 656 q 639 787 736 787 m -54 793 q -25 915 -41 839 q -3 1033 -9 990 l 230 1033 l 230 1015 q 98 770 174 893 l -54 770 l -54 793 z "},"ΐ":{"ha":604,"x_min":-64,"x_max":576,"o":"m 355 768 l 355 264 q 435 195 355 195 q 504 202 472 195 q 576 224 536 209 l 576 29 q 367 -14 486 -14 q 157 53 224 -14 q 90 252 90 120 l 90 768 l 355 768 m 170 961 q 197 1164 195 1103 l 405 1164 l 405 1150 q 287 942 371 1070 l 170 942 l 170 961 m -64 958 q 39 1065 -64 1065 q 116 1040 86 1065 q 145 958 145 1014 q 116 878 145 904 q 39 852 86 852 q -64 958 -64 852 m 352 958 q 459 1065 352 1065 q 536 1040 507 1065 q 564 958 564 1014 q 536 878 564 904 q 459 852 507 852 q 352 958 352 852 z "},"Α":{"ha":1008,"x_min":0,"x_max":1008,"o":"m 715 0 l 667 186 l 345 186 l 294 0 l 0 0 l 323 996 l 681 996 l 1008 0 l 715 0 m 611 406 l 568 568 q 532 709 553 623 q 504 832 511 795 q 480 718 498 798 q 400 406 462 639 l 611 406 z "},"Β":{"ha":936,"x_min":107,"x_max":871,"o":"m 107 991 l 453 991 q 753 931 655 991 q 851 745 851 871 q 808 602 851 661 q 696 526 766 543 l 696 519 q 829 438 788 495 q 871 290 871 381 q 769 78 871 155 q 493 0 668 0 l 107 0 l 107 991 m 375 611 l 456 611 q 545 635 513 611 q 576 705 576 659 q 450 789 576 789 l 375 789 l 375 611 m 375 415 l 375 207 l 469 207 q 595 313 595 207 q 561 389 595 362 q 464 415 528 415 l 375 415 z "},"Γ":{"ha":803,"x_min":107,"x_max":768,"o":"m 768 991 l 768 775 l 376 775 l 376 0 l 107 0 l 107 991 l 768 991 z "},"Δ":{"ha":981,"x_min":22,"x_max":958,"o":"m 22 151 l 334 999 l 650 999 l 958 150 l 958 0 l 22 0 l 22 151 m 490 787 q 469 690 482 732 l 315 220 l 667 220 l 513 690 q 490 787 499 728 z "},"Ε":{"ha":762,"x_min":107,"x_max":696,"o":"m 696 0 l 107 0 l 107 991 l 696 991 l 696 777 l 375 777 l 375 621 l 672 621 l 672 406 l 375 406 l 375 218 l 696 218 l 696 0 z "},"Ζ":{"ha":848,"x_min":41,"x_max":814,"o":"m 814 0 l 41 0 l 41 165 l 471 775 l 52 775 l 52 991 l 803 991 l 803 827 l 374 216 l 814 216 l 814 0 z "},"Η":{"ha":1064,"x_min":107,"x_max":957,"o":"m 957 0 l 688 0 l 688 404 l 376 404 l 376 0 l 107 0 l 107 991 l 376 991 l 376 624 l 688 624 l 688 991 l 957 991 l 957 0 z "},"Θ":{"ha":1107,"x_min":71,"x_max":1035,"o":"m 1035 497 q 912 117 1035 247 q 553 -14 789 -14 q 195 117 319 -14 q 71 498 71 248 q 194 877 71 746 q 554 1007 318 1007 q 913 878 791 1007 q 1035 497 1035 748 m 336 497 q 391 274 336 347 q 553 201 445 201 q 716 273 663 201 q 770 497 770 345 q 717 723 770 649 q 554 796 664 796 q 390 722 444 796 q 336 497 336 648 m 414 606 l 693 606 l 693 403 l 414 403 l 414 606 z "},"Κ":{"ha":954,"x_min":107,"x_max":960,"o":"m 954 0 l 652 0 l 456 379 l 376 332 l 376 0 l 107 0 l 107 991 l 376 991 l 376 561 q 458 688 397 601 l 667 991 l 960 991 l 647 547 l 954 0 z "},"Λ":{"ha":964,"x_min":0,"x_max":964,"o":"m 300 0 l 0 0 l 325 991 l 640 991 l 964 0 l 663 0 l 528 503 q 499 629 515 554 q 482 736 484 703 q 465 627 479 701 q 437 505 451 553 l 300 0 z "},"Μ":{"ha":1343,"x_min":107,"x_max":1236,"o":"m 539 0 l 336 714 l 330 714 q 345 431 345 532 l 345 0 l 107 0 l 107 991 l 464 991 l 671 288 l 676 288 l 879 991 l 1236 991 l 1236 0 l 990 0 l 990 435 q 991 510 990 469 q 1000 713 992 551 l 994 713 l 794 0 l 539 0 z "},"Ν":{"ha":1158,"x_min":107,"x_max":1051,"o":"m 1051 0 l 700 0 l 338 699 l 332 699 q 345 447 345 534 l 345 0 l 107 0 l 107 991 l 457 991 l 818 302 l 822 302 q 812 543 812 452 l 812 991 l 1051 991 l 1051 0 z "},"Ξ":{"ha":798,"x_min":54,"x_max":743,"o":"m 138 621 l 660 621 l 660 406 l 138 406 l 138 621 m 82 991 l 715 991 l 715 777 l 82 777 l 82 991 m 743 218 l 743 0 l 54 0 l 54 218 l 743 218 z "},"Ο":{"ha":1107,"x_min":71,"x_max":1035,"o":"m 1035 497 q 912 117 1035 247 q 553 -14 789 -14 q 195 117 319 -14 q 71 498 71 248 q 194 877 71 746 q 554 1007 318 1007 q 913 878 791 1007 q 1035 497 1035 748 m 353 497 q 553 210 353 210 q 704 279 654 210 q 753 497 753 349 q 703 716 753 646 q 554 787 653 787 q 353 497 353 787 z "},"Π":{"ha":1026,"x_min":107,"x_max":920,"o":"m 920 0 l 650 0 l 650 772 l 376 772 l 376 0 l 107 0 l 107 991 l 920 991 l 920 0 z "},"Ρ":{"ha":878,"x_min":107,"x_max":827,"o":"m 827 676 q 729 419 827 510 q 450 329 631 329 l 375 329 l 375 0 l 107 0 l 107 991 l 450 991 q 732 909 638 991 q 827 676 827 827 m 375 547 l 424 547 q 520 581 484 547 q 555 675 555 615 q 444 775 555 775 l 375 775 l 375 547 z "},"Σ":{"ha":836,"x_min":50,"x_max":785,"o":"m 50 0 l 50 208 l 351 521 l 58 790 l 58 991 l 745 991 l 745 777 l 517 777 q 357 783 410 777 l 643 522 l 342 210 q 513 218 439 218 l 785 218 l 785 0 l 50 0 z "},"Τ":{"ha":821,"x_min":35,"x_max":786,"o":"m 545 0 l 277 0 l 277 772 l 35 772 l 35 991 l 786 991 l 786 772 l 545 772 l 545 0 z "},"Υ":{"ha":922,"x_min":0,"x_max":922,"o":"m 461 624 l 632 991 l 922 991 l 596 387 l 596 0 l 326 0 l 326 379 l 0 991 l 292 991 l 461 624 z "},"Φ":{"ha":1242,"x_min":52,"x_max":1190,"o":"m 492 1006 l 750 1006 l 750 884 l 770 884 q 992 837 897 884 q 1139 705 1088 790 q 1190 513 1190 621 q 1140 316 1190 400 q 993 185 1090 231 q 758 139 896 139 l 750 139 l 750 -14 l 492 -14 l 492 139 l 478 139 q 245 184 341 139 q 100 313 149 229 q 52 514 52 397 q 103 710 52 625 q 249 840 155 796 q 467 884 342 884 l 492 884 l 492 1006 m 750 342 l 758 342 q 886 384 844 342 q 929 514 929 426 q 885 635 929 591 q 761 679 841 679 l 750 679 l 750 342 m 492 679 l 476 679 q 355 637 397 679 q 313 514 313 595 q 354 382 313 422 q 478 342 395 342 l 492 342 l 492 679 z "},"Χ":{"ha":1004,"x_min":3,"x_max":1000,"o":"m 1000 0 l 690 0 l 497 310 l 306 0 l 3 0 l 332 507 l 22 991 l 319 991 l 498 685 l 671 991 l 977 991 l 663 486 l 1000 0 z "},"Ψ":{"ha":1292,"x_min":77,"x_max":1215,"o":"m 775 0 l 517 0 l 517 269 l 492 269 q 174 358 271 269 q 77 650 77 448 l 77 991 l 340 991 l 340 653 q 378 529 340 568 q 505 490 416 490 l 517 490 l 517 991 l 775 991 l 775 490 l 789 490 q 909 532 866 490 q 951 650 951 574 l 951 991 l 1215 991 l 1215 668 q 1117 365 1215 461 q 802 269 1019 269 l 775 269 l 775 0 z "},"Ω":{"ha":1105,"x_min":33,"x_max":1072,"o":"m 553 787 q 400 721 455 787 q 345 541 345 654 q 378 363 345 429 q 489 248 412 296 l 489 0 l 33 0 l 33 220 l 286 220 q 127 368 185 269 q 69 586 69 467 q 201 894 69 781 q 553 1007 332 1007 q 807 956 696 1007 q 977 809 917 905 q 1036 587 1036 713 q 979 370 1036 467 q 814 220 921 273 l 1072 220 l 1072 0 l 612 0 l 612 248 q 727 366 694 298 q 761 543 761 433 q 705 722 761 656 q 553 787 650 787 z "},"Ϋ":{"ha":922,"x_min":0,"x_max":922,"o":"m 461 624 l 632 991 l 922 991 l 596 387 l 596 0 l 326 0 l 326 379 l 0 991 l 292 991 l 461 624 m 199 1187 q 230 1266 199 1238 q 314 1295 261 1295 q 399 1266 368 1295 q 431 1187 431 1237 q 399 1111 431 1139 q 314 1082 368 1082 q 230 1109 261 1082 q 199 1187 199 1137 m 524 1187 q 555 1266 524 1238 q 640 1295 586 1295 q 726 1265 694 1295 q 758 1187 758 1236 q 726 1111 758 1139 q 640 1082 694 1082 q 554 1110 585 1082 q 524 1187 524 1138 z "},"ά":{"ha":933,"x_min":58,"x_max":899,"o":"m 350 -14 q 136 91 213 -14 q 58 380 58 196 q 140 675 58 570 q 368 779 222 779 q 497 751 447 779 q 579 665 547 724 l 590 665 q 637 768 610 736 l 860 768 q 818 612 833 697 q 803 450 803 526 l 803 277 q 859 195 803 195 q 899 201 880 195 l 899 4 q 850 -8 888 -3 q 793 -14 812 -14 q 658 13 705 -14 q 582 100 611 39 l 566 100 q 350 -14 491 -14 m 440 192 q 529 232 500 192 q 558 375 557 273 l 558 382 q 529 528 558 483 q 437 574 500 574 q 355 524 383 574 q 328 379 328 473 q 440 192 328 192 m 352 864 q 381 986 366 910 q 403 1104 397 1061 l 636 1104 l 636 1086 q 505 842 581 964 l 352 842 l 352 864 z "},"έ":{"ha":770,"x_min":43,"x_max":721,"o":"m 571 485 l 571 313 l 471 313 q 375 307 410 313 q 325 288 340 300 q 309 249 309 275 q 449 183 309 183 q 721 243 591 183 l 721 40 q 574 -2 647 9 q 410 -14 500 -14 q 132 43 222 -14 q 43 218 43 99 q 93 338 43 289 q 228 399 142 388 l 228 406 q 126 467 164 422 q 89 574 89 512 q 176 728 89 674 q 429 782 264 782 q 571 770 505 782 q 721 724 637 758 l 646 545 q 440 593 538 593 q 339 542 339 593 q 374 498 339 511 q 488 485 408 485 l 571 485 m 366 864 q 395 986 379 910 q 416 1104 410 1061 l 650 1104 l 650 1086 q 518 842 594 964 l 366 842 l 366 864 z "},"ή":{"ha":930,"x_min":92,"x_max":842,"o":"m 576 -334 l 576 437 q 484 574 576 574 q 387 520 416 574 q 357 336 357 467 l 357 0 l 92 0 l 92 768 l 292 768 l 325 673 l 340 673 q 434 755 374 728 q 572 782 494 782 q 771 708 700 782 q 842 500 842 634 l 842 -334 l 576 -334 m 400 864 q 429 986 414 910 q 451 1104 445 1061 l 684 1104 l 684 1086 q 553 842 629 964 l 400 842 l 400 864 z "},"ί":{"ha":604,"x_min":90,"x_max":576,"o":"m 355 768 l 355 264 q 435 195 355 195 q 504 202 472 195 q 576 224 536 209 l 576 29 q 367 -14 486 -14 q 157 53 224 -14 q 90 252 90 120 l 90 768 l 355 768 m 155 864 q 184 986 169 910 q 206 1104 200 1061 l 439 1104 l 439 1086 q 308 842 384 964 l 155 842 l 155 864 z "},"ΰ":{"ha":921,"x_min":89,"x_max":854,"o":"m 458 -11 q 181 77 274 -11 q 89 351 89 165 l 89 768 l 354 768 l 354 338 q 381 229 354 260 q 464 197 408 197 q 560 249 531 197 q 589 419 589 300 q 536 768 589 570 l 804 768 q 844 581 833 661 q 854 414 854 500 q 757 95 854 201 q 458 -11 660 -11 m 370 961 q 396 1164 394 1103 l 604 1164 l 604 1150 q 486 942 570 1070 l 370 942 l 370 961 m 135 958 q 239 1065 135 1065 q 315 1040 286 1065 q 345 958 345 1014 q 315 878 345 904 q 239 852 286 852 q 135 958 135 852 m 551 958 q 659 1065 551 1065 q 735 1040 707 1065 q 764 958 764 1014 q 735 878 764 904 q 659 852 707 852 q 551 958 551 852 z "},"α":{"ha":933,"x_min":58,"x_max":899,"o":"m 350 -14 q 136 91 213 -14 q 58 380 58 196 q 140 675 58 570 q 368 779 222 779 q 497 751 447 779 q 579 665 547 724 l 590 665 q 637 768 610 736 l 860 768 q 818 612 833 697 q 803 450 803 526 l 803 277 q 859 195 803 195 q 899 201 880 195 l 899 4 q 850 -8 888 -3 q 793 -14 812 -14 q 658 13 705 -14 q 582 100 611 39 l 566 100 q 350 -14 491 -14 m 440 192 q 529 232 500 192 q 558 375 557 273 l 558 382 q 529 528 558 483 q 437 574 500 574 q 355 524 383 574 q 328 379 328 473 q 440 192 328 192 z "},"β":{"ha":951,"x_min":92,"x_max":896,"o":"m 476 1063 q 740 991 644 1063 q 835 794 835 920 q 785 636 835 694 q 644 564 735 578 l 644 558 q 835 477 774 541 q 896 301 896 413 q 807 72 896 157 q 570 -14 718 -14 q 448 -2 505 -14 q 357 26 392 9 l 357 -334 l 92 -334 l 92 743 q 193 979 92 895 q 476 1063 294 1063 m 468 865 q 384 829 410 865 q 357 720 357 793 l 357 231 q 416 205 377 216 q 486 195 455 195 q 589 228 551 195 q 627 326 627 260 q 590 411 627 380 q 488 443 553 443 l 449 443 l 449 640 l 475 640 q 546 671 521 640 q 571 755 571 703 q 543 837 571 808 q 468 865 514 865 z "},"γ":{"ha":838,"x_min":-1,"x_max":842,"o":"m 492 -334 l 212 -334 q 230 -183 212 -279 q 278 8 248 -88 l -1 768 l 275 768 l 354 519 q 398 361 387 412 q 414 269 409 310 l 419 269 q 481 507 433 367 l 566 768 l 842 768 l 558 9 q 510 -162 529 -66 q 492 -334 492 -259 z "},"δ":{"ha":884,"x_min":58,"x_max":827,"o":"m 302 610 q 155 848 155 705 q 240 1011 155 954 q 486 1068 326 1068 q 827 990 665 1068 l 728 799 q 490 871 584 871 q 408 827 408 871 q 434 783 408 805 q 586 692 460 762 q 767 536 709 624 q 825 325 825 448 q 723 74 825 162 q 437 -14 621 -14 q 162 71 266 -14 q 58 297 58 155 q 302 610 58 529 m 555 326 q 444 509 555 429 q 360 437 393 492 q 328 313 328 382 q 358 218 328 254 q 440 183 389 183 q 525 221 494 183 q 555 326 555 258 z "},"ε":{"ha":770,"x_min":43,"x_max":721,"o":"m 571 485 l 571 313 l 471 313 q 375 307 410 313 q 325 288 340 300 q 309 249 309 275 q 449 183 309 183 q 721 243 591 183 l 721 40 q 574 -2 647 9 q 410 -14 500 -14 q 132 43 222 -14 q 43 218 43 99 q 93 338 43 289 q 228 399 142 388 l 228 406 q 126 467 164 422 q 89 574 89 512 q 176 728 89 674 q 429 782 264 782 q 571 770 505 782 q 721 724 637 758 l 646 545 q 440 593 538 593 q 339 542 339 593 q 374 498 339 511 q 488 485 408 485 l 571 485 z "},"ζ":{"ha":708,"x_min":58,"x_max":720,"o":"m 58 319 q 145 600 58 463 q 412 873 233 737 q 300 859 361 859 l 96 859 l 96 1055 l 704 1055 l 704 899 q 418 605 509 739 q 328 332 328 471 q 365 247 328 274 q 517 193 401 219 q 669 122 618 172 q 720 -12 720 73 q 625 -248 720 -123 l 354 -248 q 428 -146 398 -199 q 457 -69 457 -94 q 444 -36 457 -48 q 400 -12 431 -24 q 298 17 369 -1 q 157 75 210 38 q 82 167 105 111 q 58 319 58 222 z "},"η":{"ha":930,"x_min":92,"x_max":842,"o":"m 576 -334 l 576 437 q 484 574 576 574 q 387 520 416 574 q 357 336 357 467 l 357 0 l 92 0 l 92 768 l 292 768 l 325 673 l 340 673 q 434 755 374 728 q 572 782 494 782 q 771 708 700 782 q 842 500 842 634 l 842 -334 l 576 -334 z "},"θ":{"ha":892,"x_min":58,"x_max":833,"o":"m 833 529 q 737 120 833 254 q 444 -14 640 -14 q 157 125 256 -14 q 58 529 58 264 q 154 938 58 806 q 444 1071 250 1071 q 734 931 635 1071 q 833 529 833 792 m 444 172 q 533 238 504 172 q 564 435 562 304 l 328 435 q 357 239 329 306 q 444 172 385 172 m 447 885 q 361 820 389 885 q 330 621 334 755 l 566 621 q 533 820 561 755 q 447 885 505 885 z "},"ι":{"ha":604,"x_min":90,"x_max":576,"o":"m 355 768 l 355 264 q 435 195 355 195 q 504 202 472 195 q 576 224 536 209 l 576 29 q 367 -14 486 -14 q 157 53 224 -14 q 90 252 90 120 l 90 768 l 355 768 z "},"κ":{"ha":916,"x_min":92,"x_max":916,"o":"m 628 432 l 916 0 l 616 0 l 446 271 l 358 204 l 358 0 l 92 0 l 92 768 l 358 768 l 358 602 q 351 436 358 522 l 357 436 q 390 486 370 454 q 439 554 410 517 l 606 768 l 903 768 l 628 432 z "},"λ":{"ha":924,"x_min":0,"x_max":911,"o":"m 0 0 l 330 717 l 321 745 q 270 828 302 800 q 184 856 239 856 q 93 844 139 856 l 93 1053 q 159 1061 120 1059 q 221 1064 199 1064 q 434 1007 358 1064 q 559 814 510 951 l 726 347 q 767 254 749 286 q 804 208 785 222 q 860 195 824 195 q 911 201 885 195 l 911 9 q 845 -6 895 1 q 764 -14 794 -14 q 621 32 680 -14 q 522 183 562 77 l 475 313 q 440 443 450 385 l 435 443 q 401 314 421 362 l 275 0 l 0 0 z "},"μ":{"ha":933,"x_min":92,"x_max":842,"o":"m 357 351 q 379 235 357 273 q 456 196 402 196 q 547 252 519 196 q 575 432 575 309 l 575 768 l 842 768 l 842 0 l 643 0 l 607 103 l 596 103 q 535 15 573 43 q 452 -14 496 -14 q 391 0 414 -14 q 349 43 368 14 q 357 -117 357 -18 l 357 -334 l 92 -334 l 92 768 l 357 768 l 357 351 z "},"ν":{"ha":861,"x_min":0,"x_max":812,"o":"m 0 768 l 272 768 l 411 335 q 435 239 427 287 l 441 239 q 523 468 499 347 q 547 768 547 589 l 812 768 q 742 357 812 538 q 513 0 672 176 l 290 0 l 0 768 z "},"ξ":{"ha":717,"x_min":58,"x_max":720,"o":"m 58 289 q 106 447 58 385 q 249 549 154 510 l 249 554 q 102 715 102 585 q 140 812 102 772 q 245 867 178 852 l 218 864 q 118 859 178 859 l 81 859 l 81 1055 l 685 1055 l 685 859 l 574 859 q 366 734 366 859 q 404 664 366 685 q 525 643 443 643 l 635 643 l 635 449 l 526 449 q 378 419 429 449 q 328 321 328 389 q 344 262 328 282 q 399 225 360 241 q 509 195 439 209 q 720 -12 720 151 q 625 -248 720 -123 l 354 -248 q 428 -146 398 -199 q 457 -69 457 -94 q 432 -23 457 -39 q 328 11 406 -7 q 123 112 187 42 q 58 289 58 182 z "},"ο":{"ha":885,"x_min":58,"x_max":825,"o":"m 825 386 q 724 92 825 197 q 440 -14 623 -14 q 162 94 265 -14 q 58 386 58 202 q 160 678 58 574 q 444 782 261 782 q 644 734 557 782 q 778 596 731 686 q 825 386 825 506 m 328 386 q 354 235 328 287 q 443 183 380 183 q 530 235 505 183 q 555 386 555 287 q 530 534 555 484 q 441 585 504 585 q 354 535 380 585 q 328 386 328 485 z "},"π":{"ha":1104,"x_min":16,"x_max":1050,"o":"m 945 195 q 997 201 968 195 q 1050 218 1027 208 l 1050 36 q 958 0 1015 14 q 844 -14 901 -14 q 671 48 727 -14 q 615 239 615 111 l 615 571 l 444 571 l 444 0 l 179 0 l 179 571 l 16 571 l 16 684 l 151 768 l 1050 768 l 1050 571 l 880 571 l 880 268 q 897 214 880 233 q 945 195 914 195 z "},"ρ":{"ha":903,"x_min":89,"x_max":844,"o":"m 844 383 q 764 92 844 197 q 542 -14 683 -14 q 441 -1 490 -14 q 357 32 391 11 l 339 32 q 354 -149 354 -75 l 354 -334 l 89 -334 l 89 379 q 189 675 89 569 q 471 782 290 782 q 666 732 580 782 q 798 592 751 683 q 844 383 844 501 m 467 585 q 354 415 354 585 l 354 243 q 407 205 375 218 q 468 192 439 192 q 550 237 526 192 q 575 383 575 281 q 549 537 575 490 q 467 585 523 585 z "},"ς":{"ha":741,"x_min":58,"x_max":722,"o":"m 58 378 q 160 677 58 572 q 453 782 262 782 q 722 718 591 782 l 647 524 q 546 559 599 544 q 453 574 492 574 q 360 523 392 574 q 328 374 328 473 q 346 283 328 314 q 404 230 363 252 q 517 193 445 209 q 669 122 618 172 q 720 -12 720 73 q 625 -248 720 -123 l 354 -248 q 428 -146 398 -199 q 457 -69 457 -94 q 443 -34 457 -47 q 392 -9 428 -22 q 298 17 356 3 q 158 81 208 38 q 83 197 109 125 q 58 378 58 269 z "},"σ":{"ha":946,"x_min":58,"x_max":909,"o":"m 450 -14 q 163 85 269 -14 q 58 355 58 183 q 171 668 58 568 q 519 768 283 768 l 909 768 l 909 571 l 721 571 q 844 323 844 481 q 797 145 844 222 q 661 27 749 68 q 450 -14 572 -14 m 329 357 q 362 239 329 280 q 453 197 395 197 q 575 364 575 197 q 569 439 575 408 q 551 497 564 470 q 505 571 539 524 l 490 571 q 367 521 404 571 q 329 357 329 471 z "},"τ":{"ha":734,"x_min":16,"x_max":690,"o":"m 464 571 l 464 268 q 481 214 464 233 q 532 195 499 195 q 663 224 585 195 l 663 31 q 456 -12 576 -12 q 258 52 317 -12 q 199 253 199 116 l 199 571 l 16 571 l 16 684 l 147 768 l 690 768 l 690 571 l 464 571 z "},"υ":{"ha":921,"x_min":89,"x_max":854,"o":"m 458 -11 q 181 77 274 -11 q 89 351 89 165 l 89 768 l 354 768 l 354 338 q 381 229 354 260 q 464 197 408 197 q 560 249 531 197 q 589 419 589 300 q 536 768 589 570 l 804 768 q 844 581 833 661 q 854 414 854 500 q 757 95 854 201 q 458 -11 660 -11 z "},"φ":{"ha":1175,"x_min":58,"x_max":1117,"o":"m 450 -334 l 450 -5 q 161 108 264 7 q 58 376 58 209 q 96 590 58 490 q 215 791 134 691 l 412 672 q 342 533 368 614 q 317 372 317 452 q 351 253 317 296 q 450 192 385 210 l 450 467 q 525 701 450 625 q 755 778 600 778 q 1020 681 922 778 q 1117 410 1117 584 q 1007 121 1117 230 q 701 -5 897 12 l 701 -334 l 450 -334 m 852 408 q 828 537 852 494 q 760 581 804 581 q 714 557 726 581 q 701 476 701 534 l 701 192 q 812 253 772 197 q 852 408 852 309 z "},"χ":{"ha":897,"x_min":-36,"x_max":884,"o":"m 184 781 q 351 737 293 781 q 452 583 410 693 l 479 511 l 607 768 l 884 768 l 597 258 l 720 -50 q 806 -125 749 -125 q 878 -115 842 -125 l 878 -306 q 714 -334 804 -334 q 566 -284 623 -334 q 476 -127 509 -234 l 427 24 l 261 -334 l -36 -334 l 309 277 l 228 489 q 135 572 195 572 q 45 555 94 572 l 45 754 q 184 781 116 781 z "},"ψ":{"ha":1242,"x_min":89,"x_max":1175,"o":"m 751 1054 l 751 197 q 881 252 846 207 q 917 393 917 296 q 856 768 917 570 l 1111 768 q 1162 564 1148 652 q 1175 389 1175 475 q 1068 102 1175 203 q 751 -11 962 0 l 751 -334 l 500 -334 l 500 -11 q 89 378 89 1 l 89 768 l 347 768 l 347 371 q 382 244 347 285 q 500 197 416 203 l 500 1054 l 751 1054 z "},"ω":{"ha":1270,"x_min":66,"x_max":1203,"o":"m 868 -14 q 722 23 777 -14 q 639 142 667 60 l 631 142 q 551 26 605 66 q 400 -14 496 -14 q 155 90 243 -14 q 66 374 66 193 q 83 568 66 479 q 139 768 99 656 l 410 768 q 325 385 325 599 q 347 237 325 282 q 422 192 369 192 q 491 227 474 192 q 509 357 509 262 l 509 543 l 761 543 l 761 357 q 768 254 761 288 q 793 206 776 220 q 847 192 810 192 q 921 238 897 192 q 945 380 945 283 q 924 579 945 478 q 860 768 904 680 l 1131 768 q 1187 569 1171 662 q 1203 374 1203 477 q 1114 89 1203 192 q 868 -14 1025 -14 z "},"ϊ":{"ha":604,"x_min":-28,"x_max":576,"o":"m 355 768 l 355 264 q 435 195 355 195 q 504 202 472 195 q 576 224 536 209 l 576 29 q 367 -14 486 -14 q 157 53 224 -14 q 90 252 90 120 l 90 768 l 355 768 m -28 958 q 3 1037 -28 1009 q 87 1065 34 1065 q 172 1037 140 1065 q 203 958 203 1008 q 172 881 203 910 q 87 852 140 852 q 3 880 34 852 q -28 958 -28 908 m 296 958 q 328 1037 296 1009 q 413 1065 359 1065 q 499 1036 467 1065 q 530 958 530 1007 q 499 881 530 910 q 413 852 467 852 q 327 881 358 852 q 296 958 296 909 z "},"ϋ":{"ha":921,"x_min":89,"x_max":854,"o":"m 458 -11 q 181 77 274 -11 q 89 351 89 165 l 89 768 l 354 768 l 354 338 q 381 229 354 260 q 464 197 408 197 q 560 249 531 197 q 589 419 589 300 q 536 768 589 570 l 804 768 q 844 581 833 661 q 854 414 854 500 q 757 95 854 201 q 458 -11 660 -11 m 174 958 q 205 1037 174 1009 q 289 1065 236 1065 q 374 1037 342 1065 q 406 958 406 1008 q 374 881 406 910 q 289 852 342 852 q 205 880 236 852 q 174 958 174 908 m 498 958 q 530 1037 498 1009 q 615 1065 561 1065 q 701 1036 669 1065 q 732 958 732 1007 q 701 881 732 910 q 615 852 669 852 q 529 881 560 852 q 498 958 498 909 z "},"ό":{"ha":885,"x_min":58,"x_max":825,"o":"m 825 386 q 724 92 825 197 q 440 -14 623 -14 q 162 94 265 -14 q 58 386 58 202 q 160 678 58 574 q 444 782 261 782 q 644 734 557 782 q 778 596 731 686 q 825 386 825 506 m 328 386 q 354 235 328 287 q 443 183 380 183 q 530 235 505 183 q 555 386 555 287 q 530 534 555 484 q 441 585 504 585 q 354 535 380 585 q 328 386 328 485 m 368 864 q 397 986 382 910 q 419 1104 413 1061 l 652 1104 l 652 1086 q 521 842 597 964 l 368 842 l 368 864 z "},"ύ":{"ha":921,"x_min":89,"x_max":854,"o":"m 458 -11 q 181 77 274 -11 q 89 351 89 165 l 89 768 l 354 768 l 354 338 q 381 229 354 260 q 464 197 408 197 q 560 249 531 197 q 589 419 589 300 q 536 768 589 570 l 804 768 q 844 581 833 661 q 854 414 854 500 q 757 95 854 201 q 458 -11 660 -11 m 374 864 q 403 986 387 910 q 425 1104 418 1061 l 658 1104 l 658 1086 q 526 842 602 964 l 374 842 l 374 864 z "},"ώ":{"ha":1270,"x_min":66,"x_max":1203,"o":"m 868 -14 q 722 23 777 -14 q 639 142 667 60 l 631 142 q 551 26 605 66 q 400 -14 496 -14 q 155 90 243 -14 q 66 374 66 193 q 83 568 66 479 q 139 768 99 656 l 410 768 q 325 385 325 599 q 347 237 325 282 q 422 192 369 192 q 491 227 474 192 q 509 357 509 262 l 509 543 l 761 543 l 761 357 q 768 254 761 288 q 793 206 776 220 q 847 192 810 192 q 921 238 897 192 q 945 380 945 283 q 924 579 945 478 q 860 768 904 680 l 1131 768 q 1187 569 1171 662 q 1203 374 1203 477 q 1114 89 1203 192 q 868 -14 1025 -14 m 560 864 q 589 986 574 910 q 611 1104 605 1061 l 844 1104 l 844 1086 q 713 842 789 964 l 560 842 l 560 864 z "},"Ё":{"ha":762,"x_min":107,"x_max":696,"o":"m 696 0 l 107 0 l 107 991 l 696 991 l 696 777 l 375 777 l 375 621 l 672 621 l 672 406 l 375 406 l 375 218 l 696 218 l 696 0 m 123 1187 q 154 1266 123 1238 q 238 1295 185 1295 q 323 1266 292 1295 q 355 1187 355 1237 q 323 1111 355 1139 q 238 1082 292 1082 q 154 1109 185 1082 q 123 1187 123 1137 m 448 1187 q 479 1266 448 1238 q 564 1295 510 1295 q 650 1265 618 1295 q 682 1187 682 1236 q 650 1111 682 1139 q 564 1082 618 1082 q 478 1110 509 1082 q 448 1187 448 1138 z "},"Ђ":{"ha":1150,"x_min":35,"x_max":1083,"o":"m 791 -14 q 660 5 703 -14 l 660 212 q 751 192 705 192 q 815 261 815 192 l 815 355 q 733 429 815 429 l 546 429 l 546 0 l 277 0 l 277 772 l 35 772 l 35 991 l 812 991 l 812 772 l 546 772 l 546 648 l 741 648 q 995 575 907 648 q 1083 370 1083 501 l 1083 288 q 791 -14 1083 -14 z "},"Ѓ":{"ha":803,"x_min":107,"x_max":768,"o":"m 768 991 l 768 775 l 376 775 l 376 0 l 107 0 l 107 991 l 768 991 m 296 1071 l 296 1090 q 428 1235 400 1202 q 475 1293 456 1267 l 765 1293 l 765 1279 q 616 1168 711 1236 q 472 1071 521 1101 l 296 1071 z "},"Є":{"ha":953,"x_min":71,"x_max":911,"o":"m 567 785 q 349 596 380 785 l 745 596 l 745 380 l 349 380 q 416 251 358 296 q 572 205 473 205 q 700 220 633 205 q 875 268 767 234 l 875 46 q 723 0 792 13 q 562 -14 654 -14 q 198 117 325 -14 q 71 493 71 248 q 133 761 71 644 q 311 941 195 878 q 582 1004 427 1004 q 749 986 670 1004 q 911 929 829 968 l 819 713 q 567 785 692 785 z "},"Ѕ":{"ha":802,"x_min":61,"x_max":755,"o":"m 755 301 q 709 137 755 209 q 574 26 662 66 q 367 -14 486 -14 q 201 0 268 -14 q 61 49 134 14 l 61 288 q 220 226 138 248 q 372 204 303 204 q 460 225 432 204 q 488 278 488 245 q 476 314 488 298 q 440 345 465 329 q 309 408 416 360 q 163 494 212 452 q 91 589 115 535 q 68 715 68 642 q 168 929 68 852 q 441 1006 267 1006 q 755 935 595 1006 l 673 728 q 433 791 534 791 q 357 773 381 791 q 334 728 334 755 q 364 675 334 699 q 528 591 394 652 q 706 468 656 534 q 755 301 755 401 z "},"Ј":{"ha":489,"x_min":-110,"x_max":382,"o":"m 29 -311 q -110 -297 -44 -311 l -110 -89 q -64 -98 -88 -93 q -11 -103 -39 -103 q 84 -63 56 -103 q 113 74 113 -23 l 113 991 l 382 991 l 382 97 q 294 -208 382 -104 q 29 -311 205 -311 z "},"Љ":{"ha":1432,"x_min":17,"x_max":1382,"o":"m 493 772 q 451 429 477 604 q 401 183 425 254 q 341 71 378 113 q 252 8 305 29 q 122 -14 198 -14 q 17 1 64 -14 l 17 208 q 83 195 58 195 q 137 224 119 195 q 172 325 156 254 q 215 588 187 395 q 267 991 243 780 l 924 991 l 924 639 l 957 639 q 1273 561 1164 639 q 1382 329 1382 482 q 1274 86 1382 172 q 966 0 1166 0 l 654 0 l 654 772 l 493 772 m 924 207 l 954 207 q 1111 323 1111 207 q 953 436 1111 436 l 924 436 l 924 207 z "},"Њ":{"ha":1401,"x_min":107,"x_max":1352,"o":"m 624 404 l 376 404 l 376 0 l 107 0 l 107 991 l 376 991 l 376 624 l 624 624 l 624 991 l 893 991 l 893 639 l 926 639 q 1243 561 1134 639 q 1352 329 1352 482 q 1244 86 1352 172 q 936 0 1136 0 l 624 0 l 624 404 m 893 207 l 924 207 q 1080 323 1080 207 q 922 436 1080 436 l 893 436 l 893 207 z "},"Ћ":{"ha":1156,"x_min":35,"x_max":1083,"o":"m 815 355 q 733 429 815 429 l 546 429 l 546 0 l 277 0 l 277 772 l 35 772 l 35 991 l 812 991 l 812 772 l 546 772 l 546 648 l 741 648 q 995 575 907 648 q 1083 370 1083 501 l 1083 0 l 815 0 l 815 355 z "},"Ќ":{"ha":968,"x_min":107,"x_max":974,"o":"m 974 0 l 671 0 l 376 503 l 376 0 l 107 0 l 107 991 l 376 991 l 376 511 l 660 991 l 954 991 l 648 518 l 974 0 m 391 1071 l 391 1090 q 524 1235 496 1202 q 570 1293 552 1267 l 861 1293 l 861 1279 q 711 1168 806 1236 q 568 1071 616 1101 l 391 1071 z "},"Ў":{"ha":946,"x_min":17,"x_max":962,"o":"m 235 -14 q 61 7 140 -14 l 61 220 q 222 195 125 195 q 293 214 264 195 q 340 282 322 233 l 17 991 l 306 991 l 428 689 q 445 647 435 671 q 464 596 454 623 q 481 545 473 570 q 494 500 490 519 l 504 500 q 572 715 527 592 l 673 991 l 962 991 l 661 296 q 551 104 605 165 q 421 15 496 43 q 235 -14 345 -14 m 485 1071 q 242 1134 323 1071 q 153 1329 162 1197 l 374 1329 q 403 1233 377 1263 q 485 1203 429 1203 q 596 1329 587 1203 l 821 1329 q 485 1071 793 1071 z "},"Џ":{"ha":1028,"x_min":107,"x_max":921,"o":"m 921 0 l 644 0 l 644 -309 l 383 -309 l 383 0 l 107 0 l 107 991 l 376 991 l 376 220 l 652 220 l 652 991 l 921 991 l 921 0 z "},"А":{"ha":1008,"x_min":0,"x_max":1008,"o":"m 715 0 l 667 186 l 345 186 l 294 0 l 0 0 l 323 996 l 681 996 l 1008 0 l 715 0 m 611 406 l 568 568 q 532 709 553 623 q 504 832 511 795 q 480 718 498 798 q 400 406 462 639 l 611 406 z "},"Б":{"ha":899,"x_min":107,"x_max":840,"o":"m 840 322 q 733 83 840 166 q 425 0 627 0 l 107 0 l 107 991 l 760 991 l 760 777 l 376 777 l 376 625 l 415 625 q 732 550 623 625 q 840 322 840 474 m 376 207 l 412 207 q 533 235 496 207 q 570 317 570 262 q 531 397 570 371 q 411 422 492 422 l 376 422 l 376 207 z "},"В":{"ha":936,"x_min":107,"x_max":871,"o":"m 107 991 l 453 991 q 753 931 655 991 q 851 745 851 871 q 808 602 851 661 q 696 526 766 543 l 696 519 q 829 438 788 495 q 871 290 871 381 q 769 78 871 155 q 493 0 668 0 l 107 0 l 107 991 m 375 611 l 456 611 q 545 635 513 611 q 576 705 576 659 q 450 789 576 789 l 375 789 l 375 611 m 375 415 l 375 207 l 469 207 q 595 313 595 207 q 561 389 595 362 q 464 415 528 415 l 375 415 z "},"Г":{"ha":803,"x_min":107,"x_max":768,"o":"m 768 991 l 768 775 l 376 775 l 376 0 l 107 0 l 107 991 l 768 991 z "},"Д":{"ha":1131,"x_min":5,"x_max":1105,"o":"m 1105 -309 l 844 -309 l 844 0 l 267 0 l 267 -309 l 5 -309 l 5 220 l 87 220 q 234 568 176 370 q 309 991 292 766 l 970 991 l 970 220 l 1105 220 l 1105 -309 m 700 220 l 700 772 l 524 772 q 371 220 496 482 l 700 220 z "},"Е":{"ha":762,"x_min":107,"x_max":696,"o":"m 696 0 l 107 0 l 107 991 l 696 991 l 696 777 l 375 777 l 375 621 l 672 621 l 672 406 l 375 406 l 375 218 l 696 218 l 696 0 z "},"Ж":{"ha":1425,"x_min":-5,"x_max":1430,"o":"m 309 518 l 20 991 l 309 991 l 583 511 l 583 991 l 842 991 l 842 511 l 1118 991 l 1407 991 l 1116 518 l 1430 0 l 1135 0 l 842 503 l 842 0 l 583 0 l 583 503 l 290 0 l -5 0 l 309 518 z "},"З":{"ha":925,"x_min":60,"x_max":860,"o":"m 822 760 q 589 524 822 564 l 589 518 q 791 446 723 507 q 860 283 860 386 q 810 126 860 194 q 666 23 760 59 q 443 -14 572 -14 q 65 40 206 -14 l 65 271 q 212 223 123 241 q 374 205 301 205 q 536 229 488 205 q 585 309 585 253 q 357 408 585 408 l 240 408 l 240 625 l 345 625 q 468 633 423 625 q 532 659 512 641 q 553 711 553 676 q 410 786 553 786 q 172 717 275 786 l 60 901 q 240 982 149 958 q 461 1006 332 1006 q 723 938 625 1006 q 822 760 822 870 z "},"И":{"ha":1174,"x_min":107,"x_max":1067,"o":"m 107 991 l 346 991 l 346 566 q 335 294 346 498 l 340 294 l 736 991 l 1067 991 l 1067 0 l 829 0 l 829 415 q 842 697 829 509 l 836 697 l 437 0 l 107 0 l 107 991 z "},"Й":{"ha":1174,"x_min":107,"x_max":1067,"o":"m 107 991 l 346 991 l 346 566 q 335 294 346 498 l 340 294 l 736 991 l 1067 991 l 1067 0 l 829 0 l 829 415 q 842 697 829 509 l 836 697 l 437 0 l 107 0 l 107 991 m 585 1071 q 342 1134 422 1071 q 252 1329 262 1197 l 473 1329 q 503 1233 477 1263 q 585 1203 528 1203 q 696 1329 686 1203 l 920 1329 q 585 1071 892 1071 z "},"К":{"ha":968,"x_min":107,"x_max":974,"o":"m 974 0 l 671 0 l 376 503 l 376 0 l 107 0 l 107 991 l 376 991 l 376 511 l 660 991 l 954 991 l 648 518 l 974 0 z "},"Л":{"ha":1059,"x_min":17,"x_max":951,"o":"m 951 0 l 682 0 l 682 772 l 493 772 q 451 429 477 604 q 401 183 425 254 q 341 71 378 113 q 252 8 305 29 q 122 -14 198 -14 q 17 1 64 -14 l 17 208 q 83 195 58 195 q 137 224 119 195 q 172 325 156 254 q 215 588 187 395 q 267 991 243 780 l 951 991 l 951 0 z "},"М":{"ha":1343,"x_min":107,"x_max":1236,"o":"m 539 0 l 336 714 l 330 714 q 345 431 345 532 l 345 0 l 107 0 l 107 991 l 464 991 l 671 288 l 676 288 l 879 991 l 1236 991 l 1236 0 l 990 0 l 990 435 q 991 510 990 469 q 1000 713 992 551 l 994 713 l 794 0 l 539 0 z "},"Н":{"ha":1064,"x_min":107,"x_max":957,"o":"m 957 0 l 688 0 l 688 404 l 376 404 l 376 0 l 107 0 l 107 991 l 376 991 l 376 624 l 688 624 l 688 991 l 957 991 l 957 0 z "},"О":{"ha":1107,"x_min":71,"x_max":1035,"o":"m 1035 497 q 912 117 1035 247 q 553 -14 789 -14 q 195 117 319 -14 q 71 498 71 248 q 194 877 71 746 q 554 1007 318 1007 q 913 878 791 1007 q 1035 497 1035 748 m 353 497 q 553 210 353 210 q 704 279 654 210 q 753 497 753 349 q 703 716 753 646 q 554 787 653 787 q 353 497 353 787 z "},"П":{"ha":1026,"x_min":107,"x_max":920,"o":"m 920 0 l 650 0 l 650 772 l 376 772 l 376 0 l 107 0 l 107 991 l 920 991 l 920 0 z "},"Р":{"ha":878,"x_min":107,"x_max":827,"o":"m 827 676 q 729 419 827 510 q 450 329 631 329 l 375 329 l 375 0 l 107 0 l 107 991 l 450 991 q 732 909 638 991 q 827 676 827 827 m 375 547 l 424 547 q 520 581 484 547 q 555 675 555 615 q 444 775 555 775 l 375 775 l 375 547 z "},"С":{"ha":901,"x_min":71,"x_max":859,"o":"m 549 786 q 399 708 453 786 q 346 492 346 629 q 564 205 346 205 q 691 224 629 205 q 815 268 753 242 l 815 41 q 534 -14 691 -14 q 190 117 310 -14 q 71 493 71 247 q 129 764 71 647 q 295 943 186 880 q 551 1006 404 1006 q 859 936 712 1006 l 777 725 q 667 768 722 751 q 549 786 612 786 z "},"Т":{"ha":821,"x_min":35,"x_max":786,"o":"m 545 0 l 277 0 l 277 772 l 35 772 l 35 991 l 786 991 l 786 772 l 545 772 l 545 0 z "},"У":{"ha":946,"x_min":17,"x_max":962,"o":"m 235 -14 q 61 7 140 -14 l 61 220 q 222 195 125 195 q 293 214 264 195 q 340 282 322 233 l 17 991 l 306 991 l 428 689 q 445 647 435 671 q 464 596 454 623 q 481 545 473 570 q 494 500 490 519 l 504 500 q 572 715 527 592 l 673 991 l 962 991 l 661 296 q 551 104 605 165 q 421 15 496 43 q 235 -14 345 -14 z "},"Ф":{"ha":1242,"x_min":52,"x_max":1190,"o":"m 492 1006 l 750 1006 l 750 884 l 770 884 q 992 837 897 884 q 1139 705 1088 790 q 1190 513 1190 621 q 1140 316 1190 400 q 993 185 1090 231 q 758 139 896 139 l 750 139 l 750 -14 l 492 -14 l 492 139 l 478 139 q 245 184 341 139 q 100 313 149 229 q 52 514 52 397 q 103 710 52 625 q 249 840 155 796 q 467 884 342 884 l 492 884 l 492 1006 m 750 342 l 758 342 q 886 384 844 342 q 929 514 929 426 q 885 635 929 591 q 761 679 841 679 l 750 679 l 750 342 m 492 679 l 476 679 q 355 637 397 679 q 313 514 313 595 q 354 382 313 422 q 478 342 395 342 l 492 342 l 492 679 z "},"Х":{"ha":1004,"x_min":3,"x_max":1000,"o":"m 1000 0 l 690 0 l 497 310 l 306 0 l 3 0 l 332 507 l 22 991 l 319 991 l 498 685 l 671 991 l 977 991 l 663 486 l 1000 0 z "},"Ц":{"ha":1154,"x_min":107,"x_max":1129,"o":"m 921 220 l 1129 220 l 1129 -309 l 868 -309 l 868 0 l 107 0 l 107 991 l 376 991 l 376 220 l 652 220 l 652 991 l 921 991 l 921 220 z "},"Ч":{"ha":1054,"x_min":72,"x_max":947,"o":"m 947 0 l 677 0 l 677 367 q 371 307 506 307 q 151 377 230 307 q 72 572 72 446 l 72 991 l 342 991 l 342 661 q 371 557 342 589 q 464 526 400 526 q 677 572 551 526 l 677 991 l 947 991 l 947 0 z "},"Ш":{"ha":1511,"x_min":107,"x_max":1404,"o":"m 1404 0 l 107 0 l 107 991 l 376 991 l 376 220 l 624 220 l 624 991 l 888 991 l 888 220 l 1135 220 l 1135 991 l 1404 991 l 1404 0 z "},"Щ":{"ha":1638,"x_min":107,"x_max":1613,"o":"m 107 0 l 107 991 l 376 991 l 376 220 l 624 220 l 624 991 l 888 991 l 888 220 l 1135 220 l 1135 991 l 1404 991 l 1404 220 l 1613 220 l 1613 -309 l 1352 -309 l 1352 0 l 107 0 z "},"Ъ":{"ha":1060,"x_min":35,"x_max":1010,"o":"m 1010 329 q 902 85 1010 170 q 595 0 793 0 l 277 0 l 277 772 l 35 772 l 35 991 l 546 991 l 546 639 l 585 639 q 901 561 792 639 q 1010 329 1010 482 m 546 207 l 582 207 q 739 323 739 207 q 581 436 739 436 l 546 436 l 546 207 z "},"Ы":{"ha":1282,"x_min":107,"x_max":1175,"o":"m 815 329 q 707 85 815 170 q 400 0 599 0 l 107 0 l 107 991 l 376 991 l 376 639 l 390 639 q 706 561 597 639 q 815 329 815 482 m 376 207 l 387 207 q 545 323 545 207 q 386 436 545 436 l 376 436 l 376 207 m 1175 0 l 905 0 l 905 991 l 1175 991 l 1175 0 z "},"Ь":{"ha":865,"x_min":107,"x_max":815,"o":"m 815 329 q 707 85 815 170 q 400 0 599 0 l 107 0 l 107 991 l 376 991 l 376 639 l 390 639 q 706 561 597 639 q 815 329 815 482 m 376 205 l 389 205 q 546 322 546 205 q 387 433 546 433 l 376 433 l 376 205 z "},"Э":{"ha":930,"x_min":56,"x_max":859,"o":"m 375 785 q 258 768 326 785 q 134 724 189 751 l 56 933 q 226 989 148 973 q 385 1004 304 1004 q 735 872 611 1004 q 859 498 859 741 q 735 117 859 248 q 376 -14 612 -14 q 62 43 201 -14 l 62 268 q 376 205 224 205 q 518 250 467 205 q 575 380 569 295 l 179 380 l 179 596 l 575 596 q 516 736 569 687 q 375 785 464 785 z "},"Ю":{"ha":1495,"x_min":107,"x_max":1422,"o":"m 1422 497 q 1308 116 1422 245 q 974 -14 1193 -14 q 542 404 583 -14 l 376 404 l 376 0 l 107 0 l 107 991 l 376 991 l 376 624 l 546 624 q 975 1007 599 1007 q 1309 878 1195 1007 q 1422 497 1422 748 m 807 497 q 974 210 807 210 q 1099 279 1058 210 q 1140 497 1140 349 q 975 787 1140 787 q 807 497 807 787 z "},"Я":{"ha":943,"x_min":-14,"x_max":836,"o":"m 486 361 l 290 0 l -14 0 l 258 433 q 143 544 183 475 q 103 699 103 613 q 507 991 103 991 l 836 991 l 836 0 l 568 0 l 568 361 l 486 361 m 568 789 l 511 789 q 410 763 447 789 q 374 686 374 737 q 409 593 374 625 q 518 562 444 562 l 568 562 l 568 789 z "},"а":{"ha":865,"x_min":50,"x_max":777,"o":"m 593 0 l 542 102 l 536 102 q 427 11 483 35 q 283 -14 372 -14 q 113 52 175 -14 q 50 235 50 117 q 136 417 50 357 q 383 485 221 477 l 511 489 l 511 500 q 418 595 511 595 q 204 538 334 595 l 127 713 q 467 782 262 782 q 695 709 614 782 q 777 504 777 635 l 777 0 l 593 0 m 396 174 q 478 204 444 174 q 513 283 513 235 l 513 343 l 452 340 q 321 244 321 336 q 396 174 321 174 z "},"б":{"ha":905,"x_min":60,"x_max":846,"o":"m 60 460 q 80 670 60 576 q 148 834 101 764 q 271 950 195 903 q 453 1022 347 997 q 821 1068 559 1046 l 846 848 q 631 828 767 842 q 451 799 496 813 q 379 761 407 785 q 339 700 352 736 q 322 606 326 664 l 334 606 q 414 685 357 653 q 542 717 471 717 q 764 632 686 717 q 842 386 842 547 q 738 92 842 198 q 449 -14 633 -14 q 163 111 267 -14 q 60 460 60 236 m 463 183 q 572 357 572 183 q 472 528 572 528 q 388 496 433 528 q 329 432 343 465 q 365 252 329 321 q 463 183 401 183 z "},"в":{"ha":930,"x_min":92,"x_max":868,"o":"m 844 570 q 805 458 844 503 q 697 403 766 414 l 697 397 q 824 341 780 388 q 868 220 868 294 q 510 0 868 0 l 92 0 l 92 768 l 511 768 q 762 720 679 768 q 844 570 844 671 m 599 245 q 574 297 599 281 q 504 313 550 313 l 357 313 l 357 174 l 501 174 q 599 245 599 174 m 581 534 q 507 595 581 595 l 357 595 l 357 479 l 497 479 q 560 495 539 479 q 581 534 581 511 z "},"г":{"ha":696,"x_min":92,"x_max":663,"o":"m 663 768 l 663 571 l 357 571 l 357 0 l 92 0 l 92 768 l 663 768 z "},"д":{"ha":1006,"x_min":17,"x_max":989,"o":"m 989 -282 l 757 -282 l 757 0 l 249 0 l 249 -282 l 17 -282 l 17 197 l 85 197 q 184 448 144 298 q 240 768 224 598 l 875 768 l 875 197 l 989 197 l 989 -282 m 610 197 l 610 571 l 458 571 q 425 393 446 479 q 364 197 404 306 l 610 197 z "},"е":{"ha":859,"x_min":58,"x_max":800,"o":"m 463 -14 q 164 89 271 -14 q 58 379 58 191 q 157 678 58 574 q 437 782 255 782 q 706 691 611 782 q 800 431 800 601 l 800 313 l 326 313 q 373 212 329 248 q 494 175 418 175 q 623 188 564 175 q 750 233 682 201 l 750 43 q 621 -1 688 11 q 463 -14 555 -14 m 447 602 q 369 572 400 602 q 332 479 337 543 l 559 479 q 528 568 558 535 q 447 602 498 602 z "},"ж":{"ha":1348,"x_min":-5,"x_max":1353,"o":"m 545 396 l 545 768 l 803 768 l 803 396 l 1042 768 l 1326 768 l 1067 403 l 1353 0 l 1064 0 l 803 390 l 803 0 l 545 0 l 545 390 l 283 0 l -5 0 l 281 403 l 21 768 l 306 768 l 545 396 z "},"з":{"ha":770,"x_min":49,"x_max":726,"o":"m 296 485 q 410 498 375 485 q 444 542 444 512 q 343 593 444 593 q 138 545 245 593 l 62 724 q 211 770 144 758 q 354 782 278 782 q 607 728 519 782 q 694 574 694 674 q 657 467 694 512 q 555 406 619 422 l 555 399 q 682 341 637 388 q 726 218 726 294 q 342 -14 726 -14 q 191 -3 257 -14 q 49 40 125 8 l 49 243 q 326 183 180 183 q 425 199 389 183 q 461 249 461 216 q 429 299 461 286 q 313 313 397 313 l 212 313 l 212 485 l 296 485 z "},"и":{"ha":1010,"x_min":92,"x_max":918,"o":"m 328 768 l 328 575 q 327 540 328 559 q 318 298 327 521 l 625 768 l 918 768 l 918 0 l 682 0 l 682 208 q 692 467 682 317 l 386 0 l 92 0 l 92 768 l 328 768 z "},"й":{"ha":1010,"x_min":92,"x_max":918,"o":"m 328 768 l 328 575 q 327 540 328 559 q 318 298 327 521 l 625 768 l 918 768 l 918 0 l 682 0 l 682 208 q 692 467 682 317 l 386 0 l 92 0 l 92 768 l 328 768 m 514 842 q 272 905 352 842 q 182 1100 191 968 l 403 1100 q 432 1004 406 1034 q 514 974 458 974 q 625 1100 616 974 l 850 1100 q 514 842 822 842 z "},"к":{"ha":939,"x_min":92,"x_max":945,"o":"m 629 768 l 922 768 l 635 400 l 945 0 l 642 0 l 357 390 l 357 0 l 92 0 l 92 768 l 357 768 l 357 396 l 629 768 z "},"л":{"ha":954,"x_min":11,"x_max":863,"o":"m 863 0 l 597 0 l 597 571 l 441 571 q 385 207 419 323 q 292 39 351 91 q 131 -14 232 -14 q 11 7 60 -14 l 11 204 q 71 192 33 192 q 120 223 101 192 q 154 324 139 255 q 180 502 168 393 q 203 768 192 610 l 863 768 l 863 0 z "},"м":{"ha":1193,"x_min":92,"x_max":1101,"o":"m 1101 0 l 864 0 l 864 574 q 815 393 842 486 q 688 0 787 300 l 507 0 l 428 245 q 344 523 388 369 l 329 574 l 329 0 l 92 0 l 92 768 l 454 768 l 514 589 q 561 425 531 537 q 597 269 591 313 q 646 450 602 301 l 672 541 l 746 768 l 1101 768 l 1101 0 z "},"н":{"ha":924,"x_min":92,"x_max":832,"o":"m 357 768 l 357 492 l 567 492 l 567 768 l 832 768 l 832 0 l 567 0 l 567 294 l 357 294 l 357 0 l 92 0 l 92 768 l 357 768 z "},"о":{"ha":885,"x_min":58,"x_max":825,"o":"m 825 386 q 724 92 825 197 q 440 -14 623 -14 q 162 94 265 -14 q 58 386 58 202 q 160 678 58 574 q 444 782 261 782 q 644 734 557 782 q 778 596 731 686 q 825 386 825 506 m 328 386 q 354 235 328 287 q 443 183 380 183 q 530 235 505 183 q 555 386 555 287 q 530 534 555 484 q 441 585 504 585 q 354 535 380 585 q 328 386 328 485 z "},"п":{"ha":913,"x_min":92,"x_max":821,"o":"m 821 768 l 821 0 l 555 0 l 555 571 l 357 571 l 357 0 l 92 0 l 92 768 l 821 768 z "},"р":{"ha":893,"x_min":92,"x_max":833,"o":"m 553 -14 q 448 6 494 -14 q 357 75 402 25 l 345 75 q 357 -25 357 -5 l 357 -334 l 92 -334 l 92 768 l 307 768 l 345 671 l 357 671 q 561 782 431 782 q 761 676 688 782 q 833 386 833 570 q 758 93 833 200 q 553 -14 682 -14 m 464 574 q 382 532 406 574 q 357 408 359 490 l 357 387 q 383 244 357 288 q 467 200 410 200 q 541 244 517 200 q 564 389 564 288 q 541 531 564 488 q 464 574 517 574 z "},"с":{"ha":749,"x_min":58,"x_max":714,"o":"m 441 -14 q 156 88 253 -14 q 58 380 58 190 q 163 677 58 572 q 463 782 269 782 q 714 724 596 782 l 636 528 q 547 561 588 549 q 463 574 507 574 q 363 524 398 574 q 328 382 328 473 q 464 197 328 197 q 688 265 581 197 l 688 54 q 441 -14 585 -14 z "},"т":{"ha":838,"x_min":33,"x_max":804,"o":"m 804 571 l 551 571 l 551 0 l 286 0 l 286 571 l 33 571 l 33 768 l 804 768 l 804 571 z "},"у":{"ha":847,"x_min":-1,"x_max":847,"o":"m -1 768 l 278 768 l 408 328 q 421 244 418 293 l 427 244 q 443 326 432 291 l 576 768 l 847 768 l 543 -49 q 400 -269 485 -205 q 178 -334 315 -334 q 69 -322 125 -334 l 69 -114 q 151 -122 105 -122 q 213 -109 186 -122 q 259 -70 239 -95 q 301 11 279 -45 l -1 768 z "},"ф":{"ha":1203,"x_min":58,"x_max":1145,"o":"m 1145 383 q 1036 117 1145 216 q 728 0 928 17 l 728 -334 l 479 -334 l 479 0 q 171 122 283 20 q 58 383 58 223 q 164 657 58 558 q 476 768 270 755 l 476 1055 l 728 1055 l 728 768 q 1036 649 926 751 q 1145 383 1145 547 m 321 383 q 365 251 321 304 q 476 197 410 199 l 476 571 q 367 513 412 568 q 321 383 321 458 m 880 383 q 837 514 880 460 q 728 571 793 568 l 728 197 q 837 251 794 199 q 880 383 880 302 z "},"х":{"ha":875,"x_min":7,"x_max":868,"o":"m 254 392 l 20 768 l 321 768 l 437 553 l 557 768 l 859 768 l 618 392 l 868 0 l 567 0 l 437 233 l 309 0 l 7 0 l 254 392 z "},"ц":{"ha":1057,"x_min":92,"x_max":1040,"o":"m 1040 -282 l 808 -282 l 808 0 l 92 0 l 92 768 l 357 768 l 357 197 l 603 197 l 603 768 l 868 768 l 868 197 l 1040 197 l 1040 -282 z "},"ч":{"ha":932,"x_min":58,"x_max":840,"o":"m 323 768 l 323 498 q 396 419 323 419 q 575 453 473 419 l 575 768 l 840 768 l 840 0 l 575 0 l 575 279 q 332 222 444 222 q 125 287 192 222 q 58 485 58 351 l 58 768 l 323 768 z "},"ш":{"ha":1394,"x_min":92,"x_max":1303,"o":"m 1303 0 l 92 0 l 92 768 l 357 768 l 357 197 l 570 197 l 570 768 l 828 768 l 828 197 l 1038 197 l 1038 768 l 1303 768 l 1303 0 z "},"щ":{"ha":1492,"x_min":92,"x_max":1475,"o":"m 1303 197 l 1475 197 l 1475 -282 l 1243 -282 l 1243 0 l 92 0 l 92 768 l 357 768 l 357 197 l 570 197 l 570 768 l 828 768 l 828 197 l 1038 197 l 1038 768 l 1303 768 l 1303 197 z "},"ъ":{"ha":990,"x_min":33,"x_max":946,"o":"m 277 0 l 277 571 l 33 571 l 33 768 l 542 768 l 542 492 l 567 492 q 785 467 702 492 q 907 391 868 442 q 946 254 946 340 q 860 61 946 122 q 599 0 774 0 l 277 0 m 681 243 q 659 300 681 283 q 583 318 636 318 l 542 318 l 542 174 l 586 174 q 681 243 681 174 z "},"ы":{"ha":1203,"x_min":92,"x_max":1111,"o":"m 1111 0 l 846 0 l 846 768 l 1111 768 l 1111 0 m 357 768 l 357 492 l 382 492 q 671 436 582 492 q 761 254 761 380 q 675 61 761 122 q 414 0 589 0 l 92 0 l 92 768 l 357 768 m 496 243 q 473 300 496 283 q 399 318 451 318 l 357 318 l 357 174 l 401 174 q 496 243 496 174 z "},"ь":{"ha":806,"x_min":92,"x_max":761,"o":"m 357 768 l 357 492 l 382 492 q 671 436 582 492 q 761 254 761 380 q 675 61 761 122 q 414 0 589 0 l 92 0 l 92 768 l 357 768 m 496 243 q 473 300 496 283 q 399 318 451 318 l 357 318 l 357 174 l 401 174 q 496 243 496 174 z "},"э":{"ha":751,"x_min":35,"x_max":693,"o":"m 306 -14 q 165 -2 227 -14 q 47 39 102 9 l 47 237 q 273 175 176 175 q 383 208 343 175 q 424 298 423 241 l 161 298 l 161 465 l 424 465 q 386 559 421 525 q 293 593 350 593 q 202 581 252 593 q 110 549 153 570 l 35 720 q 177 766 100 750 q 326 782 254 782 q 595 682 498 782 q 693 397 693 582 q 593 92 693 198 q 306 -14 492 -14 z "},"ю":{"ha":1254,"x_min":92,"x_max":1194,"o":"m 1194 386 q 1096 91 1194 196 q 821 -14 998 -14 q 579 67 675 -14 q 460 294 484 148 l 357 294 l 357 0 l 92 0 l 92 768 l 357 768 l 357 492 l 461 492 q 582 707 487 631 q 825 782 676 782 q 1019 734 935 782 q 1148 597 1103 687 q 1194 386 1194 508 m 722 386 q 746 232 722 281 q 823 183 770 183 q 902 235 879 183 q 925 386 925 287 q 902 534 925 484 q 822 585 878 585 q 745 535 768 585 q 722 386 722 485 z "},"я":{"ha":846,"x_min":-17,"x_max":754,"o":"m 264 0 l -17 0 l 180 292 q 86 384 121 324 q 52 522 52 444 q 139 704 52 640 q 387 768 227 768 l 754 768 l 754 0 l 489 0 l 489 267 l 411 267 l 264 0 m 317 514 q 342 459 317 479 q 414 440 367 440 l 489 440 l 489 595 l 412 595 q 342 574 368 595 q 317 514 317 553 z "},"ё":{"ha":859,"x_min":58,"x_max":800,"o":"m 463 -14 q 164 89 271 -14 q 58 379 58 191 q 157 678 58 574 q 437 782 255 782 q 706 691 611 782 q 800 431 800 601 l 800 313 l 326 313 q 373 212 329 248 q 494 175 418 175 q 623 188 564 175 q 750 233 682 201 l 750 43 q 621 -1 688 11 q 463 -14 555 -14 m 447 602 q 369 572 400 602 q 332 479 337 543 l 559 479 q 528 568 558 535 q 447 602 498 602 m 171 958 q 202 1037 171 1009 q 286 1065 233 1065 q 371 1037 340 1065 q 403 958 403 1008 q 371 881 403 910 q 286 852 340 852 q 202 880 233 852 q 171 958 171 908 m 496 958 q 527 1037 496 1009 q 612 1065 558 1065 q 698 1036 667 1065 q 730 958 730 1007 q 698 881 730 910 q 612 852 667 852 q 527 881 557 852 q 496 958 496 909 z "},"ђ":{"ha":945,"x_min":0,"x_max":856,"o":"m 856 -62 q 782 -261 856 -189 q 572 -334 707 -334 q 495 -329 539 -334 q 425 -317 452 -323 l 425 -111 q 509 -122 466 -122 q 589 -7 589 -122 l 589 351 q 497 505 589 505 q 401 450 432 505 q 371 268 371 395 l 371 0 l 106 0 l 106 791 l 0 791 l 0 956 l 106 956 l 106 1055 l 371 1055 l 371 956 l 529 956 l 529 791 l 371 791 l 371 764 q 359 606 371 698 l 375 606 q 464 689 412 664 q 585 714 515 714 q 784 640 713 714 q 856 433 856 566 l 856 -62 z "},"ѓ":{"ha":696,"x_min":92,"x_max":697,"o":"m 663 768 l 663 571 l 357 571 l 357 0 l 92 0 l 92 768 l 663 768 m 228 842 l 228 861 q 360 1006 332 973 q 407 1064 389 1038 l 697 1064 l 697 1050 q 548 939 643 1006 q 404 842 453 872 l 228 842 z "},"є":{"ha":753,"x_min":58,"x_max":718,"o":"m 444 -14 q 155 86 252 -14 q 58 379 58 186 q 158 679 58 576 q 452 782 258 782 q 718 725 587 782 l 642 546 q 447 593 538 593 q 362 559 393 593 q 326 465 331 525 l 578 465 l 578 298 l 328 298 q 367 206 332 237 q 463 175 401 175 q 694 237 568 175 l 694 43 q 444 -14 587 -14 z "},"ѕ":{"ha":741,"x_min":81,"x_max":685,"o":"m 685 236 q 601 50 685 113 q 359 -14 517 -14 q 211 -4 274 -14 q 82 29 148 5 l 82 241 q 217 197 144 214 q 349 179 291 179 q 435 218 435 179 q 411 255 435 239 q 271 317 387 271 q 123 415 165 360 q 81 555 81 471 q 163 722 81 663 q 397 782 246 782 q 540 765 473 782 q 679 717 607 749 l 607 546 q 495 586 554 570 q 399 603 436 603 q 334 571 334 603 q 356 537 334 551 q 488 481 379 524 q 608 416 568 448 q 666 341 648 384 q 685 236 685 298 z "},"і":{"ha":452,"x_min":86,"x_max":368,"o":"m 358 0 l 93 0 l 93 768 l 358 768 l 358 0 m 86 960 q 119 1048 86 1019 q 227 1078 153 1078 q 334 1048 300 1078 q 368 960 368 1018 q 227 843 368 843 q 86 960 86 843 z "},"ї":{"ha":452,"x_min":-50,"x_max":509,"o":"m 358 0 l 93 0 l 93 768 l 358 768 l 358 0 m -50 958 q -18 1037 -50 1009 q 66 1065 13 1065 q 151 1037 119 1065 q 182 958 182 1008 q 151 881 182 910 q 66 852 119 852 q -18 880 13 852 q -50 958 -50 908 m 275 958 q 307 1037 275 1009 q 392 1065 338 1065 q 478 1036 446 1065 q 509 958 509 1007 q 478 881 509 910 q 392 852 446 852 q 306 881 337 852 q 275 958 275 909 z "},"ј":{"ha":450,"x_min":-71,"x_max":367,"o":"m 72 -334 q -3 -329 39 -334 q -71 -317 -45 -323 l -71 -110 q 11 -122 -27 -122 q 92 -7 92 -122 l 92 768 l 357 768 l 357 -62 q 282 -261 357 -189 q 72 -334 208 -334 m 85 960 q 118 1048 85 1019 q 225 1078 151 1078 q 333 1048 299 1078 q 367 960 367 1018 q 225 843 367 843 q 85 960 85 843 z "},"љ":{"ha":1291,"x_min":11,"x_max":1246,"o":"m 867 492 q 1156 436 1067 492 q 1246 254 1246 380 q 1160 61 1246 122 q 899 0 1074 0 l 576 0 l 576 571 l 441 571 q 385 207 419 323 q 292 39 351 91 q 131 -14 232 -14 q 11 7 60 -14 l 11 204 q 71 192 33 192 q 120 223 101 192 q 154 324 139 255 q 180 502 168 393 q 203 768 192 610 l 842 768 l 842 492 l 867 492 m 981 243 q 958 300 981 283 q 884 318 936 318 l 842 318 l 842 174 l 886 174 q 981 243 981 174 z "},"њ":{"ha":1240,"x_min":92,"x_max":1196,"o":"m 791 492 l 817 492 q 1106 436 1017 492 q 1196 254 1196 380 q 1109 61 1196 122 q 848 0 1023 0 l 526 0 l 526 294 l 357 294 l 357 0 l 92 0 l 92 768 l 357 768 l 357 492 l 526 492 l 526 768 l 791 768 l 791 492 m 930 243 q 908 300 930 283 q 833 318 886 318 l 791 318 l 791 174 l 836 174 q 930 243 930 174 z "},"ћ":{"ha":945,"x_min":0,"x_max":856,"o":"m 106 791 l 0 791 l 0 956 l 106 956 l 106 1055 l 371 1055 l 371 956 l 529 956 l 529 791 l 370 791 l 370 764 q 366 686 370 739 q 359 606 363 634 l 375 606 q 464 689 412 664 q 585 714 515 714 q 784 640 713 714 q 856 433 856 566 l 856 0 l 589 0 l 589 351 q 497 505 589 505 q 401 450 432 505 q 371 268 371 395 l 371 0 l 106 0 l 106 791 z "},"ќ":{"ha":939,"x_min":92,"x_max":945,"o":"m 629 768 l 922 768 l 635 400 l 945 0 l 642 0 l 357 390 l 357 0 l 92 0 l 92 768 l 357 768 l 357 396 l 629 768 m 358 842 l 358 861 q 491 1006 463 973 q 537 1064 519 1038 l 827 1064 l 827 1050 q 678 939 773 1006 q 534 842 583 872 l 358 842 z "},"ў":{"ha":847,"x_min":-1,"x_max":847,"o":"m -1 768 l 278 768 l 408 328 q 421 244 418 293 l 427 244 q 443 326 432 291 l 576 768 l 847 768 l 543 -49 q 400 -269 485 -205 q 178 -334 315 -334 q 69 -322 125 -334 l 69 -114 q 151 -122 105 -122 q 213 -109 186 -122 q 259 -70 239 -95 q 301 11 279 -45 l -1 768 m 424 842 q 181 905 262 842 q 92 1100 101 968 l 313 1100 q 342 1004 316 1034 q 424 974 368 974 q 535 1100 526 974 l 760 1100 q 424 842 732 842 z "},"џ":{"ha":957,"x_min":92,"x_max":865,"o":"m 363 0 l 92 0 l 92 768 l 357 768 l 357 197 l 600 197 l 600 768 l 865 768 l 865 0 l 595 0 l 595 -282 l 363 -282 l 363 0 z "},"Ґ":{"ha":843,"x_min":107,"x_max":818,"o":"m 583 991 l 583 1204 l 818 1204 l 818 775 l 376 775 l 376 0 l 107 0 l 107 991 l 583 991 z "},"ґ":{"ha":754,"x_min":92,"x_max":696,"o":"m 357 0 l 92 0 l 92 768 l 464 768 l 464 968 l 696 968 l 696 571 l 357 571 l 357 0 z "},"Ẁ":{"ha":1443,"x_min":21,"x_max":1422,"o":"m 1178 0 l 861 0 l 766 432 q 745 540 760 459 q 724 675 730 621 q 706 565 718 631 q 682 445 694 500 q 583 0 670 390 l 267 0 l 21 991 l 279 991 l 387 494 q 437 232 424 330 q 469 420 446 301 q 511 616 492 538 l 599 991 l 847 991 l 932 616 q 976 408 954 526 q 1006 232 998 290 q 1054 493 1015 307 l 1164 991 l 1422 991 l 1178 0 m 703 1071 q 565 1165 656 1101 q 410 1279 473 1229 l 410 1293 l 701 1293 q 839 1135 736 1246 l 879 1090 l 879 1071 l 703 1071 z "},"ẁ":{"ha":1264,"x_min":17,"x_max":1247,"o":"m 753 0 l 666 366 l 646 477 l 632 566 l 628 566 q 583 326 595 376 l 505 0 l 227 0 l 17 768 l 278 768 l 340 473 q 375 221 370 321 l 379 221 q 416 458 381 283 l 488 768 l 781 768 l 846 454 q 885 221 877 304 l 889 221 q 903 350 893 273 q 924 473 912 427 l 991 768 l 1247 768 l 1036 0 l 753 0 m 595 842 q 457 936 549 871 q 302 1050 366 1000 l 302 1064 l 594 1064 q 732 906 629 1017 l 772 861 l 772 842 l 595 842 z "},"Ẃ":{"ha":1443,"x_min":21,"x_max":1422,"o":"m 1178 0 l 861 0 l 766 432 q 745 540 760 459 q 724 675 730 621 q 706 565 718 631 q 682 445 694 500 q 583 0 670 390 l 267 0 l 21 991 l 279 991 l 387 494 q 437 232 424 330 q 469 420 446 301 q 511 616 492 538 l 599 991 l 847 991 l 932 616 q 976 408 954 526 q 1006 232 998 290 q 1054 493 1015 307 l 1164 991 l 1422 991 l 1178 0 m 585 1071 l 585 1090 q 717 1235 689 1202 q 764 1293 745 1267 l 1054 1293 l 1054 1279 q 905 1168 1000 1236 q 761 1071 810 1101 l 585 1071 z "},"ẃ":{"ha":1264,"x_min":17,"x_max":1247,"o":"m 753 0 l 666 366 l 646 477 l 632 566 l 628 566 q 583 326 595 376 l 505 0 l 227 0 l 17 768 l 278 768 l 340 473 q 375 221 370 321 l 379 221 q 416 458 381 283 l 488 768 l 781 768 l 846 454 q 885 221 877 304 l 889 221 q 903 350 893 273 q 924 473 912 427 l 991 768 l 1247 768 l 1036 0 l 753 0 m 475 842 l 475 861 q 607 1006 579 973 q 654 1064 635 1038 l 944 1064 l 944 1050 q 795 939 890 1006 q 651 842 700 872 l 475 842 z "},"Ẅ":{"ha":1443,"x_min":21,"x_max":1422,"o":"m 1178 0 l 861 0 l 766 432 q 745 540 760 459 q 724 675 730 621 q 706 565 718 631 q 682 445 694 500 q 583 0 670 390 l 267 0 l 21 991 l 279 991 l 387 494 q 437 232 424 330 q 469 420 446 301 q 511 616 492 538 l 599 991 l 847 991 l 932 616 q 976 408 954 526 q 1006 232 998 290 q 1054 493 1015 307 l 1164 991 l 1422 991 l 1178 0 m 452 1187 q 484 1266 452 1238 q 568 1295 515 1295 q 653 1266 621 1295 q 684 1187 684 1237 q 653 1111 684 1139 q 568 1082 621 1082 q 484 1109 515 1082 q 452 1187 452 1137 m 777 1187 q 808 1266 777 1238 q 894 1295 840 1295 q 980 1265 948 1295 q 1011 1187 1011 1236 q 980 1111 1011 1139 q 894 1082 948 1082 q 808 1110 839 1082 q 777 1187 777 1138 z "},"ẅ":{"ha":1264,"x_min":17,"x_max":1247,"o":"m 753 0 l 666 366 l 646 477 l 632 566 l 628 566 q 583 326 595 376 l 505 0 l 227 0 l 17 768 l 278 768 l 340 473 q 375 221 370 321 l 379 221 q 416 458 381 283 l 488 768 l 781 768 l 846 454 q 885 221 877 304 l 889 221 q 903 350 893 273 q 924 473 912 427 l 991 768 l 1247 768 l 1036 0 l 753 0 m 363 958 q 395 1037 363 1009 q 479 1065 426 1065 q 564 1037 532 1065 q 595 958 595 1008 q 564 881 595 910 q 479 852 532 852 q 395 880 426 852 q 363 958 363 908 m 688 958 q 720 1037 688 1009 q 805 1065 751 1065 q 891 1036 859 1065 q 922 958 922 1007 q 891 881 922 910 q 805 852 859 852 q 719 881 750 852 q 688 958 688 909 z "},"Ỳ":{"ha":922,"x_min":0,"x_max":922,"o":"m 461 624 l 632 991 l 922 991 l 596 387 l 596 0 l 326 0 l 326 379 l 0 991 l 292 991 l 461 624 m 392 1071 q 254 1165 345 1101 q 99 1279 163 1229 l 99 1293 l 391 1293 q 528 1135 426 1246 l 568 1090 l 568 1071 l 392 1071 z "},"ỳ":{"ha":847,"x_min":-1,"x_max":847,"o":"m -1 768 l 278 768 l 408 328 q 421 244 418 293 l 427 244 q 443 326 432 291 l 576 768 l 847 768 l 543 -49 q 400 -269 485 -205 q 178 -334 315 -334 q 69 -322 125 -334 l 69 -114 q 151 -122 105 -122 q 213 -109 186 -122 q 259 -70 239 -95 q 301 11 279 -45 l -1 768 m 376 842 q 238 936 329 871 q 83 1050 146 1000 l 83 1064 l 374 1064 q 512 906 410 1017 l 552 861 l 552 842 l 376 842 z "},"–":{"ha":694,"x_min":50,"x_max":644,"o":"m 50 281 l 50 468 l 644 468 l 644 281 l 50 281 z "},"—":{"ha":1389,"x_min":50,"x_max":1336,"o":"m 50 281 l 50 468 l 1336 468 l 1336 281 l 50 281 z "},"―":{"ha":1389,"x_min":52,"x_max":1337,"o":"m 52 281 l 52 468 l 1337 468 l 1337 281 l 52 281 z "},"‗":{"ha":694,"x_min":-3,"x_max":697,"o":"m 697 -314 l -3 -314 l -3 -203 l 697 -203 l 697 -314 m 697 -142 l -3 -142 l -3 -31 l 697 -31 l 697 -142 z "},"‘":{"ha":347,"x_min":14,"x_max":322,"o":"m 24 595 l 14 610 q 134 990 81 875 l 322 990 q 256 595 277 779 l 24 595 z "},"’":{"ha":347,"x_min":25,"x_max":334,"o":"m 323 990 l 334 975 q 214 595 271 727 l 25 595 q 92 990 71 810 l 323 990 z "},"‚":{"ha":429,"x_min":39,"x_max":347,"o":"m 338 203 l 347 187 q 228 -193 281 -71 l 39 -193 q 78 17 58 -100 q 106 203 98 133 l 338 203 z "},"‛":{"ha":347,"x_min":14,"x_max":322,"o":"m 256 990 q 322 595 276 810 l 134 595 q 14 975 79 715 l 24 990 l 256 990 z "},"“":{"ha":693,"x_min":14,"x_max":668,"o":"m 370 595 l 359 610 q 479 990 427 875 l 668 990 q 602 595 623 779 l 370 595 m 24 595 l 14 610 q 134 990 81 875 l 322 990 q 256 595 277 779 l 24 595 z "},"”":{"ha":693,"x_min":25,"x_max":679,"o":"m 323 990 l 334 975 q 214 595 271 727 l 25 595 q 92 990 71 810 l 323 990 m 669 990 l 679 975 q 559 595 616 724 l 371 595 q 437 990 417 810 l 669 990 z "},"„":{"ha":775,"x_min":39,"x_max":693,"o":"m 338 203 l 347 187 q 228 -193 281 -71 l 39 -193 q 78 17 58 -100 q 106 203 98 133 l 338 203 m 684 203 l 693 187 q 574 -193 627 -71 l 385 -193 q 424 17 404 -100 q 452 203 444 133 l 684 203 z "},"†":{"ha":713,"x_min":75,"x_max":637,"o":"m 637 599 l 421 619 l 461 0 l 237 0 l 278 619 l 75 599 l 75 793 l 278 772 l 237 1055 l 461 1055 l 421 772 l 637 793 l 637 599 z "},"‡":{"ha":728,"x_min":75,"x_max":653,"o":"m 436 407 l 653 428 l 653 233 l 436 254 l 476 0 l 254 0 l 294 254 l 75 233 l 75 428 l 294 407 l 260 533 l 294 648 l 75 628 l 75 822 l 294 802 l 254 1055 l 476 1055 l 436 802 l 653 822 l 653 628 l 436 648 l 469 533 l 436 407 z "},"•":{"ha":545,"x_min":50,"x_max":494,"o":"m 50 507 q 107 688 50 625 q 272 751 165 751 q 437 687 379 751 q 494 507 494 623 q 435 327 494 391 q 272 262 376 262 q 109 326 167 262 q 50 507 50 389 m 453 768 z "},"…":{"ha":1204,"x_min":58,"x_max":1145,"o":"m 58 113 q 95 209 58 175 q 203 243 132 243 q 306 209 270 243 q 342 113 342 175 q 305 17 342 52 q 203 -17 268 -17 q 97 17 136 -17 q 58 113 58 51 m 460 113 q 497 209 460 175 q 604 243 534 243 q 707 209 671 243 q 743 113 743 175 q 706 17 743 52 q 604 -17 669 -17 q 498 17 537 -17 q 460 113 460 51 m 861 113 q 898 209 861 175 q 1006 243 935 243 q 1109 209 1073 243 q 1145 113 1145 175 q 1108 17 1145 52 q 1006 -17 1071 -17 q 900 17 939 -17 q 861 113 861 51 z "},"‰":{"ha":1870,"x_min":25,"x_max":1845,"o":"m 229 693 q 242 581 229 615 q 281 546 255 546 q 319 580 307 546 q 332 693 332 614 q 319 806 332 771 q 281 840 307 840 q 242 805 254 840 q 229 693 229 770 m 536 696 q 469 465 536 547 q 278 383 402 383 q 93 468 161 383 q 25 696 25 552 q 92 925 25 845 q 278 1006 158 1006 q 467 922 397 1006 q 536 696 536 839 m 1031 991 l 481 0 l 279 0 l 829 991 l 1031 991 m 983 298 q 996 186 983 220 q 1035 151 1009 151 q 1075 191 1064 151 q 1086 298 1086 231 q 1075 406 1086 366 q 1035 446 1064 446 q 996 410 1008 446 q 983 298 983 375 m 1291 301 q 1223 71 1291 153 q 1032 -11 1156 -11 q 847 74 916 -11 q 779 301 779 158 q 846 531 779 450 q 1032 611 912 611 q 1221 528 1151 611 q 1291 301 1291 444 m 1537 298 q 1589 151 1537 151 q 1629 191 1618 151 q 1640 298 1640 231 q 1629 406 1640 366 q 1589 446 1618 446 q 1549 406 1560 446 q 1537 298 1537 366 m 1845 301 q 1776 70 1845 150 q 1586 -11 1708 -11 q 1402 74 1471 -11 q 1333 301 1333 158 q 1400 531 1333 450 q 1586 611 1466 611 q 1775 528 1705 611 q 1845 301 1845 444 z "},"′":{"ha":406,"x_min":82,"x_max":323,"o":"m 323 991 l 296 633 l 110 633 l 82 991 l 323 991 z "},"″":{"ha":728,"x_min":82,"x_max":646,"o":"m 323 991 l 296 633 l 110 633 l 82 991 l 323 991 m 646 991 l 618 633 l 432 633 l 404 991 l 646 991 z "},"‹":{"ha":555,"x_min":50,"x_max":504,"o":"m 50 399 l 314 726 l 504 625 l 319 390 l 504 154 l 314 54 l 50 380 l 50 399 z "},"›":{"ha":555,"x_min":52,"x_max":505,"o":"m 505 380 l 243 54 l 52 154 l 236 390 l 52 625 l 243 726 l 505 399 l 505 380 z "},"‼":{"ha":806,"x_min":56,"x_max":751,"o":"m 717 350 l 493 350 l 458 991 l 751 991 l 717 350 m 461 113 q 498 209 461 174 q 604 243 534 243 q 709 209 673 243 q 745 113 745 174 q 708 17 745 52 q 604 -17 671 -17 q 499 17 537 -17 q 461 113 461 52 m 314 350 l 90 350 l 56 991 l 349 991 l 314 350 m 58 113 q 95 209 58 174 q 201 243 132 243 q 306 209 271 243 q 342 113 342 174 q 305 17 342 52 q 201 -17 268 -17 q 96 17 134 -17 q 58 113 58 52 z "},"⁄":{"ha":127,"x_min":-294,"x_max":421,"o":"m 421 991 l -90 0 l -294 0 l 216 991 l 421 991 z "},"ⁿ":{"ha":639,"x_min":75,"x_max":567,"o":"m 385 503 l 385 766 q 372 834 385 814 q 329 854 359 854 q 274 823 290 854 q 258 721 258 791 l 258 503 l 75 503 l 75 990 l 227 990 l 250 935 l 261 935 q 318 986 286 970 q 406 1003 351 1003 q 525 961 482 1003 q 567 833 567 920 l 567 503 l 385 503 z "},"₣":{"ha":814,"x_min":21,"x_max":746,"o":"m 376 318 l 593 318 l 593 176 l 376 176 l 376 0 l 111 0 l 111 176 l 21 176 l 21 318 l 111 318 l 111 991 l 746 991 l 746 777 l 376 777 l 376 632 l 722 632 l 722 416 l 376 416 l 376 318 z "},"₤":{"ha":814,"x_min":69,"x_max":790,"o":"m 498 1007 q 631 992 559 1007 q 765 953 703 978 l 689 755 q 517 793 592 793 q 463 770 482 793 q 443 705 443 748 l 443 669 l 660 669 l 660 530 l 443 530 l 443 471 l 660 471 l 660 332 l 443 332 q 335 221 415 252 l 790 221 l 790 0 l 69 0 l 69 214 q 144 259 117 232 q 182 332 171 287 l 69 332 l 69 471 l 182 471 l 182 530 l 69 530 l 69 669 l 182 669 l 182 708 q 261 930 182 854 q 498 1007 340 1007 z "},"₧":{"ha":1337,"x_min":107,"x_max":1287,"o":"m 1158 174 q 1231 182 1197 174 q 1287 204 1265 191 l 1287 29 q 1201 -2 1251 10 q 1101 -14 1152 -14 q 912 49 969 -14 q 856 244 856 111 l 856 399 l 762 399 l 762 484 l 880 567 l 951 746 l 1092 746 l 1092 574 l 1286 574 l 1286 399 l 1092 399 l 1092 245 q 1109 193 1092 212 q 1158 174 1126 174 m 789 669 q 685 415 789 502 q 387 329 581 329 l 357 329 l 357 0 l 107 0 l 107 991 l 393 991 q 688 909 587 991 q 789 669 789 827 m 357 541 l 387 541 q 495 571 458 541 q 533 661 533 602 q 395 781 533 781 l 357 781 l 357 541 z "},"€":{"ha":814,"x_min":37,"x_max":799,"o":"m 562 786 q 446 750 486 786 q 397 653 406 713 l 627 653 l 627 514 l 387 514 l 386 494 l 386 485 l 387 455 l 387 456 l 582 456 l 582 317 l 403 317 q 579 205 425 205 q 760 243 677 205 l 760 24 q 562 -14 690 -14 q 283 72 391 -14 q 143 317 175 157 l 37 317 l 37 456 l 125 456 l 123 470 l 123 485 l 125 514 l 37 514 l 37 653 l 138 653 q 282 916 172 826 q 562 1006 391 1006 q 799 954 684 1006 l 718 751 q 562 786 637 786 z "},"℅":{"ha":1116,"x_min":28,"x_max":1088,"o":"m 907 991 l 357 0 l 155 0 l 705 991 l 907 991 m 1088 237 q 1023 48 1088 117 q 848 -20 959 -20 q 679 50 743 -20 q 615 237 615 120 q 677 425 615 359 q 852 492 740 492 q 1023 422 959 492 q 1088 237 1088 353 m 789 237 q 804 151 789 182 q 851 119 820 119 q 911 237 911 119 q 851 353 911 353 q 789 237 789 353 m 265 498 q 91 565 154 498 q 28 746 28 631 q 88 935 28 871 q 267 999 149 999 q 425 960 351 999 l 382 833 q 277 860 326 860 q 205 747 205 860 q 281 637 205 637 q 406 667 344 637 l 406 533 q 265 498 353 498 z "},"ℓ":{"ha":814,"x_min":37,"x_max":745,"o":"m 479 163 q 528 198 515 163 q 542 294 542 233 l 745 294 q 670 60 745 130 q 433 -11 595 -11 q 230 67 304 -11 q 157 285 157 146 l 157 325 l 37 293 l 37 465 l 157 497 l 157 721 q 234 932 157 861 q 461 1003 312 1003 q 669 935 596 1003 q 742 741 742 867 q 414 393 742 491 l 414 269 q 429 186 414 210 q 479 163 445 163 m 507 747 q 497 817 507 794 q 461 840 486 840 q 425 822 435 840 q 414 762 414 803 l 414 572 q 507 747 507 616 z "},"№":{"ha":1522,"x_min":97,"x_max":1464,"o":"m 885 0 l 582 0 l 336 612 l 323 612 q 336 319 336 412 l 336 0 l 97 0 l 97 991 l 399 991 l 640 389 l 657 389 q 646 671 646 543 l 646 991 l 885 991 l 885 0 m 1464 463 q 1397 275 1464 344 q 1215 207 1331 207 q 1036 277 1104 207 q 968 463 968 347 q 1034 647 968 578 q 1218 715 1101 715 q 1396 645 1328 715 q 1464 463 1464 575 m 975 0 l 975 150 l 1461 150 l 1461 0 l 975 0 m 1149 460 q 1165 373 1149 401 q 1217 346 1181 346 q 1267 373 1251 346 q 1283 460 1283 401 q 1267 548 1283 519 q 1217 576 1251 576 q 1165 548 1181 576 q 1149 460 1149 519 z "},"™":{"ha":1069,"x_min":25,"x_max":1014,"o":"m 273 503 l 140 503 l 140 872 l 25 872 l 25 991 l 389 991 l 389 872 l 273 872 l 273 503 m 667 503 l 570 848 l 564 848 q 568 774 568 810 l 568 503 l 437 503 l 437 991 l 632 991 l 725 667 l 827 991 l 1014 991 l 1014 503 l 882 503 l 882 774 q 886 848 882 820 l 880 848 l 778 503 l 667 503 z "},"Ω":{"ha":1105,"x_min":33,"x_max":1072,"o":"m 553 787 q 400 721 455 787 q 345 541 345 654 q 378 363 345 429 q 489 248 412 296 l 489 0 l 33 0 l 33 220 l 286 220 q 127 368 185 269 q 69 586 69 467 q 201 894 69 781 q 553 1007 332 1007 q 807 956 696 1007 q 977 809 917 905 q 1036 587 1036 713 q 979 370 1036 467 q 814 220 921 273 l 1072 220 l 1072 0 l 612 0 l 612 248 q 727 366 694 298 q 761 543 761 433 q 705 722 761 656 q 553 787 650 787 z "},"℮":{"ha":860,"x_min":69,"x_max":789,"o":"m 429 -24 q 241 26 323 -24 q 114 164 159 76 q 69 359 69 253 q 116 562 69 475 q 245 696 163 648 q 429 743 328 743 q 615 695 532 743 q 743 559 697 647 q 789 359 789 471 l 228 359 l 228 118 q 317 58 261 82 q 429 35 374 35 q 580 70 518 35 q 697 193 642 106 l 746 165 q 606 18 680 60 q 429 -24 532 -24 m 632 418 l 632 606 q 543 664 598 642 q 428 686 488 686 q 228 607 311 686 l 228 418 l 632 418 z "},"⅛":{"ha":1301,"x_min":7,"x_max":1236,"o":"m 988 608 q 1152 566 1090 608 q 1213 453 1213 524 q 1192 380 1213 413 q 1117 313 1171 347 q 1208 252 1181 288 q 1236 164 1236 216 q 1167 33 1236 83 q 988 -18 1099 -18 q 805 30 871 -18 q 738 164 738 77 q 748 223 738 199 q 775 264 758 247 q 845 306 793 281 q 760 456 760 364 q 822 567 760 526 q 988 608 884 608 m 914 172 q 932 127 914 143 q 985 112 951 112 q 1059 166 1059 112 q 1042 207 1059 191 q 981 234 1025 222 q 914 172 914 211 m 987 477 q 946 466 959 477 q 932 437 932 454 q 945 403 932 418 q 988 374 958 389 q 1026 400 1011 386 q 1040 437 1040 414 q 1027 466 1040 456 q 987 477 1013 477 m 949 991 l 437 0 l 233 0 l 744 991 l 949 991 m 387 397 l 195 397 l 195 639 q 198 719 195 663 q 202 786 200 775 q 181 757 196 773 q 106 690 165 741 l 7 806 l 238 991 l 387 991 l 387 397 z "},"⅜":{"ha":1303,"x_min":44,"x_max":1263,"o":"m 1015 608 q 1179 566 1118 608 q 1240 453 1240 524 q 1219 380 1240 413 q 1144 313 1198 347 q 1236 252 1208 288 q 1263 164 1263 216 q 1195 33 1263 83 q 1015 -18 1126 -18 q 832 30 899 -18 q 765 164 765 77 q 775 223 765 199 q 803 264 785 247 q 872 306 821 281 q 787 456 787 364 q 849 567 787 526 q 1015 608 911 608 m 941 172 q 960 127 941 143 q 1013 112 978 112 q 1086 166 1086 112 q 1069 207 1086 191 q 1008 234 1052 222 q 941 172 941 211 m 1014 477 q 973 466 986 477 q 960 437 960 454 q 972 403 960 418 q 1015 374 985 389 q 1053 400 1038 386 q 1067 437 1067 414 q 1054 466 1067 456 q 1014 477 1040 477 m 493 859 q 468 769 493 806 q 383 710 443 732 l 383 704 q 481 652 449 688 q 513 558 513 617 q 446 431 513 477 q 258 386 380 386 q 49 433 133 386 l 49 591 q 250 536 128 536 q 329 582 329 536 q 307 620 329 610 q 237 631 285 631 l 167 631 l 167 762 l 221 762 q 292 775 269 762 q 315 815 315 787 q 301 847 315 832 q 253 861 287 861 q 189 850 219 861 q 123 811 159 838 l 44 926 q 277 1004 145 1004 q 434 965 376 1004 q 493 859 493 926 m 995 991 l 484 0 l 279 0 l 790 991 l 995 991 z "},"⅝":{"ha":1303,"x_min":63,"x_max":1265,"o":"m 1017 608 q 1181 566 1120 608 q 1242 453 1242 524 q 1221 380 1242 413 q 1146 313 1200 347 q 1238 252 1210 288 q 1265 164 1265 216 q 1197 33 1265 83 q 1017 -18 1128 -18 q 834 30 901 -18 q 767 164 767 77 q 777 223 767 199 q 805 264 787 247 q 874 306 823 281 q 789 456 789 364 q 851 567 789 526 q 1017 608 913 608 m 943 172 q 962 127 943 143 q 1015 112 980 112 q 1088 166 1088 112 q 1071 207 1088 191 q 1010 234 1054 222 q 943 172 943 211 m 1016 477 q 975 466 988 477 q 962 437 962 454 q 975 403 962 418 q 1017 374 987 389 q 1055 400 1040 386 q 1069 437 1069 414 q 1056 466 1069 456 q 1016 477 1042 477 m 295 790 q 451 738 392 790 q 509 599 509 686 q 440 443 509 498 q 241 387 371 387 q 63 421 132 387 l 63 578 q 142 541 97 555 q 220 526 187 526 q 323 599 323 526 q 227 668 323 668 q 166 659 190 668 l 72 688 l 98 997 l 460 997 l 460 851 l 230 851 l 220 785 q 295 790 269 790 m 996 991 l 485 0 l 281 0 l 791 991 l 996 991 z "},"⅞":{"ha":1299,"x_min":28,"x_max":1208,"o":"m 960 608 q 1124 566 1063 608 q 1185 453 1185 524 q 1164 380 1185 413 q 1089 313 1143 347 q 1181 252 1153 288 q 1208 164 1208 216 q 1140 33 1208 83 q 960 -18 1071 -18 q 777 30 844 -18 q 710 164 710 77 q 720 223 710 199 q 748 264 730 247 q 817 306 766 281 q 732 456 732 364 q 794 567 732 526 q 960 608 856 608 m 886 172 q 905 127 886 143 q 958 112 923 112 q 1031 166 1031 112 q 1014 207 1031 191 q 953 234 997 222 q 886 172 886 211 m 959 477 q 918 466 931 477 q 905 437 905 454 q 918 403 905 418 q 960 374 930 389 q 998 400 983 386 q 1013 437 1013 414 q 999 466 1013 456 q 959 477 985 477 m 937 991 l 425 0 l 221 0 l 732 991 l 937 991 m 89 397 l 321 846 l 28 846 l 28 991 l 511 991 l 511 867 l 305 397 l 89 397 z "},"∂":{"ha":828,"x_min":35,"x_max":793,"o":"m 793 618 q 733 292 793 441 q 570 64 673 142 q 336 -14 468 -14 q 112 60 190 -14 q 35 278 35 134 q 82 495 35 396 q 212 649 130 595 q 401 703 295 703 q 536 677 476 703 q 502 774 536 739 q 408 808 467 808 q 302 794 355 808 q 210 753 250 781 l 210 958 q 319 993 252 981 q 457 1006 387 1006 q 706 905 619 1006 q 793 618 793 804 m 355 183 q 448 258 406 183 q 515 481 490 334 q 484 502 507 493 q 437 511 460 511 q 372 477 404 511 q 321 384 340 443 q 301 264 301 326 q 355 183 301 183 z "},"∆":{"ha":981,"x_min":22,"x_max":958,"o":"m 22 151 l 334 999 l 650 999 l 958 150 l 958 0 l 22 0 l 22 151 m 490 787 q 469 690 482 732 l 315 220 l 667 220 l 513 690 q 490 787 499 728 z "},"∏":{"ha":1011,"x_min":97,"x_max":914,"o":"m 644 -293 l 644 772 l 367 772 l 367 -293 l 97 -293 l 97 991 l 914 991 l 914 -293 l 644 -293 z "},"∑":{"ha":875,"x_min":17,"x_max":861,"o":"m 17 -293 l 17 -151 l 379 376 l 28 856 l 28 991 l 823 991 l 823 772 l 389 772 l 679 379 l 370 -74 l 861 -74 l 861 -293 l 17 -293 z "},"−":{"ha":786,"x_min":49,"x_max":736,"o":"m 49 399 l 49 581 l 736 581 l 736 399 l 49 399 z "},"√":{"ha":764,"x_min":24,"x_max":880,"o":"m 465 -9 l 319 -9 l 142 471 l 24 471 l 24 648 l 260 648 l 386 300 l 697 1192 l 880 1192 l 465 -9 z "},"∞":{"ha":970,"x_min":66,"x_max":903,"o":"m 903 485 q 874 366 903 421 q 793 279 845 311 q 677 248 741 248 q 481 347 564 248 q 390 277 438 302 q 294 252 341 252 q 130 317 193 252 q 66 490 66 382 q 131 661 66 593 q 294 728 195 728 q 486 629 414 728 q 572 700 526 674 q 677 725 618 725 q 841 659 779 725 q 903 485 903 593 m 302 422 q 387 490 346 422 q 301 558 345 558 q 255 538 272 558 q 237 489 237 519 q 256 440 237 458 q 302 422 274 422 m 668 554 q 579 488 625 554 q 624 437 600 457 q 669 416 648 416 q 715 437 698 416 q 732 488 732 458 q 714 535 732 516 q 668 554 696 554 z "},"∫":{"ha":596,"x_min":-20,"x_max":595,"o":"m 432 1055 q 595 1018 520 1055 l 595 803 q 475 836 508 836 q 432 820 446 836 q 418 766 418 804 l 418 -69 q 347 -266 418 -198 q 139 -334 277 -334 q -20 -296 52 -334 l -20 -81 q 90 -114 55 -114 q 136 -97 123 -114 q 149 -46 149 -79 l 149 791 q 221 988 149 921 q 432 1055 294 1055 z "},"≈":{"ha":786,"x_min":49,"x_max":736,"o":"m 207 593 q 49 511 132 593 l 49 701 q 228 774 119 774 q 316 765 275 774 q 418 732 357 756 q 579 694 507 694 q 655 716 613 694 q 736 777 698 738 l 736 586 q 557 512 665 512 q 466 522 509 512 q 367 555 424 532 q 207 593 278 593 m 207 281 q 49 199 132 281 l 49 390 q 228 463 119 463 q 316 454 275 463 q 418 420 357 445 q 579 383 507 383 q 655 405 613 383 q 736 465 698 427 l 736 275 q 557 201 665 201 q 466 211 509 201 q 367 244 424 221 q 207 281 278 281 z "},"≠":{"ha":786,"x_min":49,"x_max":737,"o":"m 378 243 l 306 87 l 138 157 l 178 243 l 49 243 l 49 427 l 262 427 l 321 553 l 49 553 l 49 734 l 406 734 l 479 895 l 647 823 l 604 734 l 737 734 l 737 553 l 521 553 l 463 427 l 737 427 l 737 243 l 378 243 z "},"≤":{"ha":786,"x_min":49,"x_max":736,"o":"m 734 204 l 49 509 l 49 625 l 734 968 l 734 767 l 314 575 l 734 404 l 734 204 m 49 1 l 49 182 l 736 182 l 736 1 l 49 1 z "}}}
